<?xml version="1.0" encoding="UTF-8" standalone="no"?>
<svg
   xmlns:serif="http://www.serif.com/"
   xmlns:dc="http://purl.org/dc/elements/1.1/"
   xmlns:cc="http://creativecommons.org/ns#"
   xmlns:rdf="http://www.w3.org/1999/02/22-rdf-syntax-ns#"
   xmlns:svg="http://www.w3.org/2000/svg"
   xmlns="http://www.w3.org/2000/svg"
   xmlns:sodipodi="http://sodipodi.sourceforge.net/DTD/sodipodi-0.dtd"
   xmlns:inkscape="http://www.inkscape.org/namespaces/inkscape"
   width="30.5mm"
   height="128.5mm"
   viewBox="0 0 30.5 128.5"
   version="1.1"
   xml:space="preserve"
   style="clip-rule:evenodd;fill-rule:evenodd;stroke-linecap:round;stroke-linejoin:round;stroke-miterlimit:1.5"
   id="svg941"
   sodipodi:docname="capacitor2.svg"
   inkscape:version="1.0.1 (c497b03c, 2020-09-10)"><metadata
   id="metadata947"><rdf:RDF><cc:Work
       rdf:about=""><dc:format>image/svg+xml</dc:format><dc:type
         rdf:resource="http://purl.org/dc/dcmitype/StillImage" /><dc:title /></cc:Work></rdf:RDF></metadata><defs
   id="defs945">
        
        
    
        
        
        
    
            
            
            
            
        
            
            
            
            
        
            
            
            
            
        
        
        
    
        
        
        
    </defs><sodipodi:namedview
   pagecolor="#ffffff"
   bordercolor="#666666"
   borderopacity="1"
   objecttolerance="10"
   gridtolerance="10"
   guidetolerance="10"
   inkscape:pageopacity="0"
   inkscape:pageshadow="2"
   inkscape:window-width="3440"
   inkscape:window-height="1387"
   id="namedview943"
   showgrid="false"
   inkscape:zoom="2.1971356"
   inkscape:cx="157.64784"
   inkscape:cy="265.86388"
   inkscape:window-x="0"
   inkscape:window-y="25"
   inkscape:window-maximized="1"
   inkscape:current-layer="Logo---Copyright"
   inkscape:document-rotation="0"
   units="mm"
   inkscape:document-units="mm"
   inkscape:pagecheckerboard="true"
   scale-x="1"
   borderlayer="true"
   showborder="true"
   showguides="false"
   inkscape:guide-bbox="true"><sodipodi:guide
     position="19.990043,76.838989"
     orientation="0,-1"
     id="guide1056" /><sodipodi:guide
     position="19.508355,92.132576"
     orientation="0,-1"
     id="guide935" /><sodipodi:guide
     position="39.137132,61.545402"
     orientation="0,-1"
     id="guide937" /><sodipodi:guide
     position="21.796372,46.251815"
     orientation="0,-1"
     id="guide939" /></sodipodi:namedview>
    
    <g
   inkscape:groupmode="layer"
   id="layer2"
   inkscape:label="bg"
   style="display:inline"><g
     id="Background"
     transform="matrix(0.08478205,0,0,0.08468656,0,-0.02176444)"
     style="clip-rule:evenodd;fill-rule:evenodd;stroke-linecap:round;stroke-linejoin:round;stroke-miterlimit:1.5">
        <path
   id="rect833"
   style="fill:#e6e6e6"
   d="m 0,0.257 c 119.91533,0 239.83067,0 359.746,0 0,505.78667 0,1011.5733 0,1517.36 -119.91533,0 -239.83067,0 -359.746,0 C 0,1011.8303 0,506.04367 0,0.257 Z" />
    </g><g
     id="Logo---Copyright"
     serif:id="Logo &amp; Copyright"
     transform="matrix(0.08201366,0,0,0.08378892,0.27770194,0.48989006)"
     style="clip-rule:evenodd;fill-rule:evenodd;stroke-linecap:round;stroke-linejoin:round;stroke-miterlimit:1.5">
        <g
   id="inspired-by-airwindows"
   serif:id="inspired by airwindows">
            <path
   id="path11"
   d="m 97.041,1446.58 v -1.68 h 1.465 v 1.68 z m 0,10.25 v -8.65 h 1.465 v 8.65 z"
   style="fill-rule:nonzero" />
            <path
   id="path13"
   d="m 100.736,1456.83 v -8.64 h 1.318 v 1.23 c 0.635,-0.95 1.552,-1.43 2.751,-1.43 0.521,0 0.999,0.1 1.436,0.28 0.437,0.19 0.764,0.44 0.981,0.74 0.217,0.3 0.369,0.66 0.455,1.08 0.055,0.27 0.082,0.75 0.082,1.43 v 5.31 h -1.465 v -5.26 c 0,-0.59 -0.057,-1.04 -0.171,-1.34 -0.114,-0.29 -0.316,-0.53 -0.606,-0.7 -0.29,-0.18 -0.631,-0.27 -1.022,-0.27 -0.623,0 -1.162,0.2 -1.615,0.6 -0.453,0.39 -0.679,1.14 -0.679,2.25 v 4.72 z"
   style="fill-rule:nonzero" />
            <path
   id="path15"
   d="m 109.419,1454.25 1.449,-0.23 c 0.081,0.58 0.307,1.03 0.679,1.34 0.372,0.31 0.891,0.46 1.558,0.46 0.673,0 1.172,-0.14 1.498,-0.41 0.325,-0.27 0.488,-0.6 0.488,-0.96 0,-0.33 -0.144,-0.6 -0.431,-0.79 -0.201,-0.13 -0.7,-0.29 -1.498,-0.49 -1.074,-0.27 -1.818,-0.51 -2.233,-0.71 -0.415,-0.19 -0.73,-0.47 -0.944,-0.82 -0.215,-0.35 -0.322,-0.73 -0.322,-1.16 0,-0.38 0.088,-0.74 0.265,-1.07 0.176,-0.33 0.416,-0.6 0.72,-0.82 0.228,-0.16 0.538,-0.31 0.932,-0.42 0.393,-0.12 0.815,-0.18 1.265,-0.18 0.678,0 1.274,0.1 1.786,0.3 0.513,0.19 0.891,0.46 1.136,0.79 0.244,0.33 0.412,0.78 0.504,1.34 l -1.432,0.19 c -0.065,-0.44 -0.254,-0.79 -0.566,-1.04 -0.312,-0.25 -0.752,-0.37 -1.322,-0.37 -0.673,0 -1.153,0.11 -1.441,0.33 -0.287,0.22 -0.431,0.48 -0.431,0.78 0,0.19 0.06,0.36 0.179,0.51 0.119,0.16 0.307,0.29 0.562,0.39 0.146,0.06 0.577,0.18 1.294,0.38 1.036,0.28 1.759,0.5 2.168,0.68 0.41,0.17 0.731,0.43 0.965,0.77 0.233,0.33 0.35,0.75 0.35,1.25 0,0.49 -0.143,0.95 -0.428,1.38 -0.284,0.43 -0.695,0.76 -1.232,1 -0.538,0.24 -1.145,0.36 -1.823,0.36 -1.123,0 -1.979,-0.24 -2.568,-0.7 -0.589,-0.47 -0.964,-1.16 -1.127,-2.08 z"
   style="fill-rule:nonzero" />
            <path
   id="path17"
   d="m 118.338,1460.14 v -11.96 h 1.335 v 1.13 c 0.315,-0.44 0.67,-0.77 1.066,-0.99 0.396,-0.22 0.876,-0.33 1.44,-0.33 0.738,0 1.389,0.19 1.953,0.57 0.565,0.38 0.991,0.92 1.278,1.61 0.288,0.69 0.431,1.45 0.431,2.27 0,0.89 -0.158,1.68 -0.476,2.39 -0.317,0.71 -0.778,1.25 -1.383,1.63 -0.605,0.38 -1.241,0.56 -1.908,0.56 -0.489,0 -0.927,-0.1 -1.315,-0.31 -0.388,-0.2 -0.706,-0.46 -0.956,-0.78 v 4.21 z m 1.327,-7.58 c 0,1.11 0.225,1.93 0.675,2.46 0.45,0.53 0.996,0.8 1.636,0.8 0.651,0 1.208,-0.28 1.672,-0.83 0.464,-0.55 0.696,-1.4 0.696,-2.56 0,-1.1 -0.226,-1.92 -0.679,-2.47 -0.453,-0.55 -0.995,-0.82 -1.624,-0.82 -0.624,0 -1.176,0.29 -1.656,0.87 -0.48,0.59 -0.72,1.43 -0.72,2.55 z"
   style="fill-rule:nonzero" />
            <path
   id="path19"
   d="m 127.616,1446.58 v -1.68 h 1.464 v 1.68 z m 0,10.25 v -8.65 h 1.464 v 8.65 z"
   style="fill-rule:nonzero" />
            <path
   id="path21"
   d="m 131.294,1456.83 v -8.64 h 1.318 v 1.31 c 0.337,-0.62 0.647,-1.02 0.932,-1.21 0.285,-0.2 0.598,-0.3 0.94,-0.3 0.494,0 0.996,0.16 1.506,0.47 l -0.505,1.36 c -0.358,-0.21 -0.716,-0.31 -1.074,-0.31 -0.32,0 -0.608,0.09 -0.863,0.29 -0.255,0.19 -0.437,0.45 -0.545,0.8 -0.163,0.52 -0.244,1.09 -0.244,1.71 v 4.52 z"
   style="fill-rule:nonzero" />
            <path
   id="path23"
   d="m 142.777,1454.04 1.513,0.19 c -0.238,0.88 -0.681,1.57 -1.326,2.06 -0.646,0.48 -1.47,0.73 -2.474,0.73 -1.264,0 -2.267,-0.39 -3.007,-1.17 -0.741,-0.78 -1.111,-1.87 -1.111,-3.27 0,-1.46 0.374,-2.59 1.123,-3.39 0.749,-0.8 1.72,-1.2 2.914,-1.2 1.155,0 2.099,0.39 2.832,1.17 0.732,0.79 1.098,1.9 1.098,3.33 0,0.08 -0.003,0.21 -0.008,0.39 h -6.445 c 0.054,0.95 0.323,1.67 0.805,2.18 0.483,0.5 1.085,0.75 1.807,0.75 0.537,0 0.996,-0.14 1.375,-0.42 0.38,-0.28 0.681,-0.73 0.904,-1.35 z m -4.81,-2.37 h 4.826 c -0.065,-0.73 -0.25,-1.27 -0.553,-1.63 -0.467,-0.57 -1.072,-0.85 -1.815,-0.85 -0.673,0 -1.239,0.22 -1.697,0.68 -0.458,0.45 -0.712,1.05 -0.761,1.8 z"
   style="fill-rule:nonzero" />
            <path
   id="path25"
   d="m 151.737,1456.83 v -1.09 c -0.548,0.86 -1.354,1.29 -2.417,1.29 -0.689,0 -1.323,-0.19 -1.901,-0.57 -0.577,-0.38 -1.025,-0.91 -1.342,-1.59 -0.318,-0.69 -0.476,-1.47 -0.476,-2.35 0,-0.87 0.143,-1.65 0.431,-2.35 0.287,-0.7 0.719,-1.24 1.294,-1.62 0.575,-0.37 1.218,-0.56 1.929,-0.56 0.52,0 0.984,0.11 1.391,0.33 0.407,0.22 0.738,0.51 0.993,0.86 v -4.28 h 1.457 v 11.93 z m -4.631,-4.31 c 0,1.1 0.233,1.93 0.7,2.48 0.467,0.55 1.017,0.82 1.652,0.82 0.64,0 1.184,-0.26 1.632,-0.78 0.447,-0.53 0.671,-1.33 0.671,-2.4 0,-1.18 -0.228,-2.05 -0.684,-2.6 -0.455,-0.56 -1.017,-0.84 -1.684,-0.84 -0.651,0 -1.195,0.27 -1.632,0.8 -0.437,0.53 -0.655,1.37 -0.655,2.52 z"
   style="fill-rule:nonzero" />
            <path
   id="path27"
   d="m 161.38,1456.83 h -1.359 v -11.93 h 1.465 v 4.26 c 0.618,-0.78 1.408,-1.17 2.368,-1.17 0.532,0 1.035,0.11 1.51,0.32 0.474,0.22 0.865,0.52 1.172,0.91 0.306,0.39 0.546,0.85 0.72,1.4 0.173,0.55 0.26,1.14 0.26,1.76 0,1.48 -0.366,2.62 -1.098,3.43 -0.733,0.81 -1.612,1.22 -2.637,1.22 -1.02,0 -1.82,-0.43 -2.401,-1.28 z m -0.016,-4.39 c 0,1.04 0.141,1.79 0.423,2.25 0.461,0.75 1.085,1.13 1.872,1.13 0.64,0 1.193,-0.28 1.66,-0.83 0.467,-0.56 0.7,-1.39 0.7,-2.49 0,-1.13 -0.224,-1.96 -0.672,-2.5 -0.447,-0.54 -0.988,-0.8 -1.623,-0.8 -0.64,0 -1.194,0.28 -1.66,0.83 -0.467,0.56 -0.7,1.36 -0.7,2.41 z"
   style="fill-rule:nonzero" />
            <path
   id="path29"
   d="m 169.233,1460.15 -0.162,-1.37 c 0.32,0.08 0.599,0.12 0.838,0.12 0.325,0 0.586,-0.05 0.781,-0.16 0.195,-0.11 0.355,-0.26 0.48,-0.45 0.092,-0.15 0.242,-0.51 0.448,-1.09 0.027,-0.08 0.07,-0.2 0.13,-0.36 l -3.28,-8.66 h 1.579 l 1.799,5 c 0.233,0.64 0.442,1.31 0.626,2.01 0.169,-0.68 0.369,-1.33 0.603,-1.97 l 1.847,-5.04 h 1.465 l -3.288,8.79 c -0.353,0.95 -0.627,1.6 -0.822,1.96 -0.26,0.48 -0.559,0.84 -0.895,1.06 -0.337,0.23 -0.738,0.34 -1.205,0.34 -0.282,0 -0.596,-0.06 -0.944,-0.18 z"
   style="fill-rule:nonzero" />
            <path
   id="path31"
   d="m 187.902,1455.76 c -0.543,0.46 -1.065,0.79 -1.567,0.98 -0.501,0.19 -1.04,0.28 -1.615,0.28 -0.949,0 -1.679,-0.23 -2.189,-0.69 -0.51,-0.47 -0.765,-1.06 -0.765,-1.78 0,-0.43 0.096,-0.81 0.289,-1.16 0.192,-0.35 0.445,-0.63 0.757,-0.84 0.312,-0.22 0.663,-0.38 1.054,-0.48 0.287,-0.08 0.721,-0.15 1.302,-0.22 1.182,-0.15 2.053,-0.31 2.612,-0.51 0.005,-0.2 0.008,-0.33 0.008,-0.38 0,-0.6 -0.138,-1.02 -0.415,-1.26 -0.374,-0.33 -0.93,-0.5 -1.668,-0.5 -0.689,0 -1.198,0.12 -1.526,0.36 -0.328,0.24 -0.571,0.67 -0.728,1.29 l -1.433,-0.2 c 0.13,-0.61 0.345,-1.11 0.643,-1.49 0.299,-0.37 0.73,-0.66 1.294,-0.87 0.564,-0.2 1.218,-0.3 1.961,-0.3 0.738,0 1.338,0.09 1.799,0.26 0.461,0.17 0.8,0.39 1.017,0.65 0.217,0.27 0.369,0.6 0.456,1 0.049,0.25 0.073,0.7 0.073,1.35 v 1.95 c 0,1.37 0.031,2.23 0.094,2.59 0.062,0.36 0.185,0.71 0.37,1.04 h -1.53 c -0.152,-0.31 -0.25,-0.66 -0.293,-1.07 z m -0.122,-3.27 c -0.532,0.21 -1.329,0.4 -2.393,0.55 -0.602,0.09 -1.028,0.19 -1.277,0.3 -0.25,0.1 -0.442,0.26 -0.578,0.47 -0.136,0.21 -0.204,0.44 -0.204,0.7 0,0.39 0.148,0.71 0.444,0.97 0.296,0.26 0.728,0.39 1.298,0.39 0.564,0 1.066,-0.12 1.506,-0.37 0.439,-0.24 0.762,-0.58 0.968,-1.01 0.157,-0.33 0.236,-0.82 0.236,-1.46 z"
   style="fill-rule:nonzero" />
            <path
   id="path33"
   d="m 191.54,1446.58 v -1.68 h 1.465 v 1.68 z m 0,10.25 v -8.65 h 1.465 v 8.65 z"
   style="fill-rule:nonzero" />
            <path
   id="path35"
   d="m 195.218,1456.83 v -8.64 h 1.318 v 1.31 c 0.337,-0.62 0.647,-1.02 0.932,-1.21 0.285,-0.2 0.598,-0.3 0.94,-0.3 0.494,0 0.996,0.16 1.506,0.47 l -0.505,1.36 c -0.358,-0.21 -0.716,-0.31 -1.074,-0.31 -0.32,0 -0.608,0.09 -0.863,0.29 -0.255,0.19 -0.436,0.45 -0.545,0.8 -0.163,0.52 -0.244,1.09 -0.244,1.71 v 4.52 z"
   style="fill-rule:nonzero" />
            <path
   id="path37"
   d="m 202.38,1456.83 -2.645,-8.64 h 1.513 l 1.376,4.99 0.512,1.85 c 0.022,-0.09 0.171,-0.68 0.448,-1.78 l 1.375,-5.06 h 1.506 l 1.294,5.01 0.431,1.65 0.497,-1.67 1.481,-4.99 h 1.424 l -2.702,8.64 h -1.522 l -1.375,-5.18 -0.334,-1.47 -1.749,6.65 z"
   style="fill-rule:nonzero" />
            <path
   id="path39"
   d="m 212.829,1446.58 v -1.68 h 1.465 v 1.68 z m 0,10.25 v -8.65 h 1.465 v 8.65 z"
   style="fill-rule:nonzero" />
            <path
   id="path41"
   d="m 216.523,1456.83 v -8.64 h 1.319 v 1.23 c 0.635,-0.95 1.551,-1.43 2.75,-1.43 0.521,0 1,0.1 1.437,0.28 0.437,0.19 0.763,0.44 0.98,0.74 0.217,0.3 0.369,0.66 0.456,1.08 0.054,0.27 0.082,0.75 0.082,1.43 v 5.31 h -1.465 v -5.26 c 0,-0.59 -0.057,-1.04 -0.171,-1.34 -0.114,-0.29 -0.316,-0.53 -0.606,-0.7 -0.291,-0.18 -0.631,-0.27 -1.022,-0.27 -0.624,0 -1.162,0.2 -1.615,0.6 -0.453,0.39 -0.68,1.14 -0.68,2.25 v 4.72 z"
   style="fill-rule:nonzero" />
            <path
   id="path43"
   d="m 231.4,1456.83 v -1.09 c -0.548,0.86 -1.354,1.29 -2.417,1.29 -0.689,0 -1.323,-0.19 -1.9,-0.57 -0.578,-0.38 -1.026,-0.91 -1.343,-1.59 -0.318,-0.69 -0.476,-1.47 -0.476,-2.35 0,-0.87 0.143,-1.65 0.431,-2.35 0.288,-0.7 0.719,-1.24 1.294,-1.62 0.575,-0.37 1.218,-0.56 1.929,-0.56 0.52,0 0.984,0.11 1.391,0.33 0.407,0.22 0.738,0.51 0.993,0.86 v -4.28 h 1.457 v 11.93 z m -4.631,-4.31 c 0,1.1 0.233,1.93 0.7,2.48 0.467,0.55 1.017,0.82 1.652,0.82 0.64,0 1.184,-0.26 1.632,-0.78 0.447,-0.53 0.671,-1.33 0.671,-2.4 0,-1.18 -0.228,-2.05 -0.683,-2.6 -0.456,-0.56 -1.018,-0.84 -1.685,-0.84 -0.651,0 -1.195,0.27 -1.632,0.8 -0.436,0.53 -0.655,1.37 -0.655,2.52 z"
   style="fill-rule:nonzero" />
            <path
   id="path45"
   d="m 234.517,1452.5 c 0,-1.6 0.444,-2.79 1.334,-3.56 0.744,-0.64 1.65,-0.96 2.718,-0.96 1.188,0 2.16,0.39 2.914,1.17 0.754,0.78 1.131,1.86 1.131,3.23 0,1.11 -0.167,1.99 -0.501,2.62 -0.333,0.64 -0.819,1.13 -1.456,1.49 -0.638,0.35 -1.334,0.53 -2.088,0.53 -1.21,0 -2.187,-0.39 -2.933,-1.17 -0.746,-0.77 -1.119,-1.89 -1.119,-3.35 z m 1.505,0 c 0,1.11 0.242,1.93 0.724,2.49 0.483,0.55 1.091,0.82 1.823,0.82 0.727,0 1.332,-0.27 1.815,-0.83 0.483,-0.55 0.724,-1.39 0.724,-2.53 0,-1.07 -0.242,-1.88 -0.728,-2.43 -0.486,-0.55 -1.089,-0.82 -1.811,-0.82 -0.732,0 -1.34,0.27 -1.823,0.82 -0.482,0.55 -0.724,1.37 -0.724,2.48 z"
   style="fill-rule:nonzero" />
            <path
   id="path47"
   d="m 245.926,1456.83 -2.645,-8.64 h 1.514 l 1.375,4.99 0.513,1.85 c 0.022,-0.09 0.171,-0.68 0.448,-1.78 l 1.375,-5.06 h 1.505 l 1.294,5.01 0.432,1.65 0.496,-1.67 1.481,-4.99 h 1.424 l -2.701,8.64 h -1.522 l -1.376,-5.18 -0.333,-1.47 -1.75,6.65 z"
   style="fill-rule:nonzero" />
            <path
   id="path49"
   d="m 255.781,1454.25 1.449,-0.23 c 0.081,0.58 0.308,1.03 0.679,1.34 0.372,0.31 0.891,0.46 1.559,0.46 0.673,0 1.172,-0.14 1.497,-0.41 0.326,-0.27 0.488,-0.6 0.488,-0.96 0,-0.33 -0.143,-0.6 -0.431,-0.79 -0.201,-0.13 -0.7,-0.29 -1.497,-0.49 -1.074,-0.27 -1.819,-0.51 -2.234,-0.71 -0.415,-0.19 -0.73,-0.47 -0.944,-0.82 -0.214,-0.35 -0.322,-0.73 -0.322,-1.16 0,-0.38 0.089,-0.74 0.265,-1.07 0.176,-0.33 0.416,-0.6 0.72,-0.82 0.228,-0.16 0.539,-0.31 0.932,-0.42 0.393,-0.12 0.815,-0.18 1.265,-0.18 0.679,0 1.274,0.1 1.787,0.3 0.512,0.19 0.891,0.46 1.135,0.79 0.244,0.33 0.412,0.78 0.504,1.34 l -1.432,0.19 c -0.065,-0.44 -0.253,-0.79 -0.565,-1.04 -0.312,-0.25 -0.753,-0.37 -1.323,-0.37 -0.673,0 -1.153,0.11 -1.44,0.33 -0.288,0.22 -0.432,0.48 -0.432,0.78 0,0.19 0.06,0.36 0.179,0.51 0.12,0.16 0.307,0.29 0.562,0.39 0.146,0.06 0.578,0.18 1.294,0.38 1.036,0.28 1.759,0.5 2.169,0.68 0.409,0.17 0.731,0.43 0.964,0.77 0.233,0.33 0.35,0.75 0.35,1.25 0,0.49 -0.142,0.95 -0.427,1.38 -0.285,0.43 -0.696,0.76 -1.233,1 -0.537,0.24 -1.145,0.36 -1.823,0.36 -1.123,0 -1.979,-0.24 -2.568,-0.7 -0.588,-0.47 -0.964,-1.16 -1.127,-2.08 z"
   style="fill-rule:nonzero" />
        </g>
        
        <g
   id="rect76"
   transform="matrix(1.5237928,0,0,0.72260694,-91.724115,39.012284)">
            <rect
   x="70.117996"
   y="90.126999"
   width="219.76401"
   height="134.258"
   style="fill:none;stroke:#000000;stroke-width:2.08px"
   id="rect869" />
        </g>
    <g
   aria-label="Capacitor2"
   transform="scale(1.010765,0.98934965)"
   id="text917"
   style="font-style:normal;font-weight:normal;font-size:59.579px;line-height:1.25;font-family:sans-serif;fill:#000000;fill-opacity:1;stroke:none;stroke-width:3.19173"><path
     d="m 72.7344,165.97769 q -1.072422,1.60864 -2.621476,3.03853 -1.489475,1.4299 -3.515161,2.50232 -1.966107,1.07242 -4.408845,1.66821 -2.38316,0.65537 -5.242952,0.65537 -4.76632,0 -8.817692,-1.66821 -4.051372,-1.66821 -6.970743,-4.58758 -2.919371,-2.97895 -4.587583,-7.03033 -1.608633,-4.05137 -1.608633,-8.87727 0,-4.8259 1.668212,-8.87727 1.668212,-4.05137 4.587583,-6.97074 2.97895,-2.97895 6.970743,-4.64716 4.051372,-1.66821 8.758113,-1.66821 2.323581,0 4.528004,0.47663 2.264002,0.47663 4.230108,1.37032 1.966107,0.8341 3.57474,2.08526 1.608633,1.19158 2.681055,2.74063 l -3.57474,2.62148 q -0.655369,-1.01284 -1.78737,-2.02569 -1.072422,-1.01284 -2.561896,-1.78737 -1.489475,-0.77452 -3.276845,-1.25115 -1.727791,-0.47664 -3.753477,-0.47664 -4.110951,0 -7.387796,1.48948 -3.217266,1.48947 -5.481268,4.05137 -2.264002,2.50232 -3.455582,5.83874 -1.19158,3.33643 -1.19158,7.03032 0,3.6939 1.19158,7.03033 1.251159,3.33642 3.515161,5.89832 2.264002,2.50231 5.481268,3.99179 3.276845,1.48947 7.328217,1.48947 3.634319,0 6.911164,-1.48947 3.276844,-1.48948 5.481267,-4.76632 z"
     style="font-style:normal;font-variant:normal;font-weight:normal;font-stretch:normal;font-size:59.579px;font-family:'Avenir Next';-inkscape-font-specification:'Avenir Next';stroke-width:3.19173"
     id="path916" /><path
     d="m 96.454289,154.77684 q 0,-3.63432 -1.906528,-5.42169 -1.906528,-1.78737 -5.540847,-1.78737 -2.502318,0 -4.647162,0.89369 -2.144844,0.89368 -3.634319,2.38316 l -2.264002,-2.68106 q 1.727791,-1.72779 4.528004,-2.85979 2.859792,-1.132 6.434532,-1.132 2.264002,0 4.230109,0.65537 1.966107,0.59579 3.455582,1.84695 1.489475,1.25116 2.323581,3.15768 0.834101,1.90653 0.834101,4.46843 v 12.21369 q 0,1.60864 0.11916,3.33643 0.11916,1.72779 0.35748,2.91937 h -3.634322 q -0.178737,-1.01284 -0.297895,-2.20442 -0.119158,-1.19158 -0.119158,-2.32358 h -0.119158 q -1.906528,2.80021 -4.349267,4.05137 -2.38316,1.19158 -5.779163,1.19158 -1.608633,0 -3.336424,-0.47663 -1.668212,-0.41706 -3.098108,-1.4299 -1.370317,-1.01284 -2.323581,-2.62148 -0.893684,-1.60863 -0.893684,-3.93221 0,-3.21727 1.608632,-5.06422 1.668212,-1.90652 4.408846,-2.80021 2.740634,-0.95326 6.255795,-1.19158 3.57474,-0.29789 7.387796,-0.29789 z m -1.19158,4.05137 q -2.502318,0 -5.064215,0.23832 -2.502318,0.17874 -4.587583,0.83411 -2.025686,0.59579 -3.336424,1.78737 -1.310738,1.19158 -1.310738,3.15768 0,1.48948 0.536211,2.50232 0.59579,1.01284 1.549054,1.66821 0.953264,0.59579 2.085265,0.89369 1.19158,0.23831 2.38316,0.23831 2.144844,0 3.813056,-0.71494 1.668212,-0.77453 2.800213,-2.02569 1.132001,-1.31074 1.727791,-2.97895 0.59579,-1.66821 0.59579,-3.51516 v -2.08527 z"
     style="font-style:normal;font-variant:normal;font-weight:normal;font-stretch:normal;font-size:59.579px;font-family:'Avenir Next';-inkscape-font-specification:'Avenir Next';stroke-width:3.19173"
     id="path918" /><path
     d="m 114.69757,187.06866 h -4.05137 v -42.18193 h 4.05137 v 4.8259 h 0.17873 q 1.7278,-2.74064 4.58759,-4.11095 2.91937,-1.4299 5.89832,-1.4299 3.27684,0 5.89832,1.132 2.68105,1.132 4.528,3.09811 1.90653,1.96611 2.91937,4.64716 1.07243,2.68106 1.07243,5.77916 0,3.09811 -1.07243,5.77917 -1.01284,2.68105 -2.91937,4.64716 -1.84695,1.96611 -4.528,3.09811 -2.62148,1.132 -5.89832,1.132 -2.97895,0 -5.89832,-1.37032 -2.85979,-1.4299 -4.58759,-4.05137 h -0.17873 z m 20.79307,-28.24045 q 0,-2.32358 -0.71495,-4.34926 -0.71495,-2.08527 -2.08526,-3.57474 -1.31074,-1.54906 -3.27685,-2.44274 -1.96611,-0.89369 -4.46842,-0.89369 -2.32359,0 -4.28969,0.89369 -1.96611,0.8341 -3.39601,2.38316 -1.42989,1.48947 -2.264,3.57474 -0.77452,2.02568 -0.77452,4.40884 0,2.38316 0.77452,4.46843 0.83411,2.02568 2.264,3.51516 1.4299,1.48947 3.39601,2.38316 1.9661,0.83411 4.28969,0.83411 2.50231,0 4.46842,-0.83411 1.96611,-0.89369 3.27685,-2.38316 1.37031,-1.54905 2.08526,-3.57474 0.71495,-2.08527 0.71495,-4.40885 z"
     style="font-style:normal;font-variant:normal;font-weight:normal;font-stretch:normal;font-size:59.579px;font-family:'Avenir Next';-inkscape-font-specification:'Avenir Next';stroke-width:3.19173"
     id="path920" /><path
     d="m 166.0407,154.77684 q 0,-3.63432 -1.90653,-5.42169 -1.90653,-1.78737 -5.54085,-1.78737 -2.50232,0 -4.64716,0.89369 -2.14484,0.89368 -3.63432,2.38316 l -2.264,-2.68106 q 1.72779,-1.72779 4.528,-2.85979 2.85979,-1.132 6.43453,-1.132 2.26401,0 4.23011,0.65537 1.96611,0.59579 3.45558,1.84695 1.48948,1.25116 2.32359,3.15768 0.8341,1.90653 0.8341,4.46843 v 12.21369 q 0,1.60864 0.11916,3.33643 0.11916,1.72779 0.35747,2.91937 h -3.63432 q -0.17873,-1.01284 -0.29789,-2.20442 -0.11916,-1.19158 -0.11916,-2.32358 h -0.11916 q -1.90652,2.80021 -4.34926,4.05137 -2.38316,1.19158 -5.77917,1.19158 -1.60863,0 -3.33642,-0.47663 -1.66821,-0.41706 -3.09811,-1.4299 -1.37031,-1.01284 -2.32358,-2.62148 -0.89368,-1.60863 -0.89368,-3.93221 0,-3.21727 1.60863,-5.06422 1.66821,-1.90652 4.40885,-2.80021 2.74063,-0.95326 6.25579,-1.19158 3.57474,-0.29789 7.3878,-0.29789 z m -1.19158,4.05137 q -2.50232,0 -5.06422,0.23832 -2.50232,0.17874 -4.58758,0.83411 -2.02569,0.59579 -3.33643,1.78737 -1.31073,1.19158 -1.31073,3.15768 0,1.48948 0.53621,2.50232 0.59579,1.01284 1.54905,1.66821 0.95327,0.59579 2.08527,0.89369 1.19158,0.23831 2.38316,0.23831 2.14484,0 3.81305,-0.71494 1.66821,-0.77453 2.80021,-2.02569 1.13201,-1.31074 1.7278,-2.97895 0.59579,-1.66821 0.59579,-3.51516 v -2.08527 z"
     style="font-style:normal;font-variant:normal;font-weight:normal;font-stretch:normal;font-size:59.579px;font-family:'Avenir Next';-inkscape-font-specification:'Avenir Next';stroke-width:3.19173"
     id="path922" /><path
     d="m 200.31073,151.26168 q -1.01284,-1.60863 -2.97895,-2.62148 -1.90653,-1.07242 -4.17053,-1.07242 -2.44274,0 -4.40885,0.89369 -1.9661,0.8341 -3.396,2.38316 -1.37032,1.48947 -2.14484,3.57474 -0.71495,2.02568 -0.71495,4.40884 0,2.38316 0.71495,4.40885 0.77452,2.02569 2.14484,3.57474 1.37032,1.48947 3.33642,2.38316 1.96611,0.83411 4.40885,0.83411 2.68106,0 4.528,-1.01285 1.84695,-1.01284 3.03853,-2.62147 l 3.03853,2.264 q -1.78737,2.20442 -4.40884,3.51516 -2.5619,1.31074 -6.19622,1.31074 -3.396,0 -6.13664,-1.07242 -2.74063,-1.13201 -4.70674,-3.09811 -1.90653,-1.96611 -2.97895,-4.64716 -1.07242,-2.68106 -1.07242,-5.83875 0,-3.15768 1.07242,-5.83874 1.07242,-2.68105 2.97895,-4.64716 1.96611,-1.96611 4.70674,-3.03853 2.74064,-1.132 6.13664,-1.132 2.80021,0 5.66001,1.25116 2.91937,1.19158 4.70674,3.57474 z"
     style="font-style:normal;font-variant:normal;font-weight:normal;font-stretch:normal;font-size:59.579px;font-family:'Avenir Next';-inkscape-font-specification:'Avenir Next';stroke-width:3.19173"
     id="path924" /><path
     d="m 214.13305,172.7697 h -4.05137 v -27.88297 h 4.05137 z m 0.8341,-38.60719 q 0,1.25116 -0.89368,2.08526 -0.89369,0.77453 -1.96611,0.77453 -1.07242,0 -1.96611,-0.77453 -0.89368,-0.8341 -0.89368,-2.08526 0,-1.25116 0.89368,-2.02569 0.89369,-0.8341 1.96611,-0.8341 1.07242,0 1.96611,0.8341 0.89368,0.77453 0.89368,2.02569 z"
     style="font-style:normal;font-variant:normal;font-weight:normal;font-stretch:normal;font-size:59.579px;font-family:'Avenir Next';-inkscape-font-specification:'Avenir Next';stroke-width:3.19173"
     id="path926" /><path
     d="m 237.48801,148.28273 h -7.86443 v 16.26507 q 0,1.54905 0.2979,2.56189 0.29789,1.01285 0.8341,1.60864 0.59579,0.53621 1.37032,0.77452 0.77453,0.17874 1.66821,0.17874 0.83411,0 1.72779,-0.23831 0.95327,-0.23832 1.78737,-0.65537 l 0.17874,3.51516 q -1.07242,0.41705 -2.264,0.59579 -1.132,0.23831 -2.50232,0.23831 -1.132,0 -2.38316,-0.29789 -1.25116,-0.2979 -2.32358,-1.132 -1.07242,-0.83411 -1.78737,-2.264 -0.65537,-1.4299 -0.65537,-3.75348 v -17.39707 h -5.77916 v -3.396 h 5.77916 v -7.86443 h 4.05137 v 7.86443 h 7.86443 z"
     style="font-style:normal;font-variant:normal;font-weight:normal;font-stretch:normal;font-size:59.579px;font-family:'Avenir Next';-inkscape-font-specification:'Avenir Next';stroke-width:3.19173"
     id="path928" /><path
     d="m 271.47226,158.82821 q 0,3.15769 -1.132,5.83875 -1.07243,2.68105 -3.03853,4.64716 -1.96611,1.9661 -4.70674,3.09811 -2.74064,1.07242 -6.01748,1.07242 -3.21727,0 -5.9579,-1.07242 -2.74064,-1.13201 -4.70674,-3.09811 -1.96611,-1.96611 -3.09811,-4.64716 -1.07242,-2.68106 -1.07242,-5.83875 0,-3.15768 1.07242,-5.83874 1.132,-2.68105 3.09811,-4.64716 1.9661,-1.96611 4.70674,-3.03853 2.74063,-1.132 5.9579,-1.132 3.27684,0 6.01748,1.132 2.74063,1.07242 4.70674,3.03853 1.9661,1.96611 3.03853,4.64716 1.132,2.68106 1.132,5.83874 z m -4.28969,0 q 0,-2.32358 -0.77453,-4.34926 -0.71495,-2.08527 -2.08526,-3.57474 -1.37032,-1.54906 -3.33643,-2.44274 -1.9661,-0.89369 -4.40884,-0.89369 -2.44274,0 -4.40885,0.89369 -1.90653,0.89368 -3.27684,2.44274 -1.37032,1.48947 -2.14485,3.57474 -0.71495,2.02568 -0.71495,4.34926 0,2.32358 0.71495,4.40885 0.77453,2.02569 2.14485,3.57474 1.37031,1.48947 3.27684,2.38316 1.96611,0.83411 4.40885,0.83411 2.44274,0 4.40884,-0.83411 1.96611,-0.89369 3.33643,-2.38316 1.37031,-1.54905 2.08526,-3.57474 0.77453,-2.08527 0.77453,-4.40885 z"
     style="font-style:normal;font-variant:normal;font-weight:normal;font-stretch:normal;font-size:59.579px;font-family:'Avenir Next';-inkscape-font-specification:'Avenir Next';stroke-width:3.19173"
     id="path930" /><path
     d="m 280.19034,151.02336 q 0,-1.132 -0.0596,-2.91937 -0.0596,-1.78737 -0.17874,-3.21726 h 3.87264 q 0.11916,1.132 0.17874,2.50232 0.0596,1.37031 0.0596,2.264 h 0.11916 q 1.19158,-2.44274 3.57474,-3.93222 2.38316,-1.54905 5.36211,-1.54905 0.77453,0 1.37032,0.0596 0.65537,0.0596 1.31074,0.23831 l -0.53621,3.81306 q -0.35748,-0.11916 -1.19158,-0.23832 -0.83411,-0.11915 -1.66822,-0.11915 -1.60863,0 -3.0981,0.59579 -1.48948,0.59579 -2.62148,1.90652 -1.07242,1.25116 -1.78737,3.27685 -0.65537,1.96611 -0.65537,4.76632 v 14.29896 h -4.05137 v -21.74634 z"
     style="font-style:normal;font-variant:normal;font-weight:normal;font-stretch:normal;font-size:59.579px;font-family:'Avenir Next';-inkscape-font-specification:'Avenir Next';stroke-width:3.19173"
     id="path932" /><path
     d="m 326.26724,172.7697 h -26.98929 v -4.46843 l 17.27791,-17.45664 q 0.95327,-0.95327 1.84695,-2.02569 0.95327,-1.132 1.66821,-2.32358 0.71495,-1.19158 1.132,-2.50232 0.41706,-1.37031 0.41706,-2.80021 0,-1.84695 -0.65537,-3.33642 -0.65537,-1.48948 -1.84695,-2.50232 -1.132,-1.07242 -2.68106,-1.60863 -1.48947,-0.59579 -3.15768,-0.59579 -3.39601,0 -5.71959,2.14484 -2.32358,2.08526 -2.97895,5.36211 l -4.23011,-0.83411 q 0.41706,-2.20442 1.54906,-4.11095 1.19158,-1.90653 2.85979,-3.27684 1.72779,-1.37032 3.87264,-2.14485 2.14484,-0.77452 4.64716,-0.77452 2.56189,0 4.8259,0.77452 2.32358,0.71495 4.05137,2.20443 1.72779,1.42989 2.74063,3.63431 1.07242,2.14485 1.07242,5.00464 0,2.02569 -0.59579,3.75348 -0.53621,1.72779 -1.48947,3.27684 -0.89369,1.54906 -2.14484,2.97895 -1.25116,1.37032 -2.62148,2.74064 l -15.19265,15.07348 h 22.34213 z"
     style="font-style:normal;font-variant:normal;font-weight:normal;font-stretch:normal;font-size:59.579px;font-family:'Avenir Next';-inkscape-font-specification:'Avenir Next';stroke-width:3.19173"
     id="path934" /></g><g
   aria-label="lowpass"
   transform="matrix(1.010765,0,0,0.98934965,0,6.3154731)"
   id="text921"
   style="font-style:normal;font-weight:normal;font-size:25.5338px;line-height:1.25;font-family:sans-serif;fill:#000000;fill-opacity:1;stroke:none;stroke-width:3.19173"><path
     d="m 137.31273,431.50293 h -1.73629 v -19.30355 h 1.73629 z"
     style="font-style:normal;font-variant:normal;font-weight:normal;font-stretch:normal;font-size:25.5338px;font-family:'Avenir Next';-inkscape-font-specification:'Avenir Next';stroke-width:3.19173"
     id="path937" /><path
     d="m 153.83191,425.52802 q 0,1.35329 -0.48515,2.50231 -0.45961,1.14902 -1.30222,1.99164 -0.84262,0.84261 -2.01717,1.32776 -1.17456,0.45961 -2.57892,0.45961 -1.37882,0 -2.55338,-0.45961 -1.17455,-0.48515 -2.01717,-1.32776 -0.84261,-0.84262 -1.32775,-1.99164 -0.45961,-1.14902 -0.45961,-2.50231 0,-1.35329 0.45961,-2.50231 0.48514,-1.14902 1.32775,-1.99164 0.84262,-0.84261 2.01717,-1.30222 1.17456,-0.48514 2.55338,-0.48514 1.40436,0 2.57892,0.48514 1.17455,0.45961 2.01717,1.30222 0.84261,0.84262 1.30222,1.99164 0.48515,1.14902 0.48515,2.50231 z m -1.83844,0 q 0,-0.99582 -0.33194,-1.86397 -0.3064,-0.89368 -0.89368,-1.53202 -0.58728,-0.66388 -1.42989,-1.04689 -0.84262,-0.38301 -1.88951,-0.38301 -1.04688,0 -1.8895,0.38301 -0.81708,0.38301 -1.40436,1.04689 -0.58727,0.63834 -0.91921,1.53202 -0.30641,0.86815 -0.30641,1.86397 0,0.99582 0.30641,1.8895 0.33194,0.86815 0.91921,1.53203 0.58728,0.63834 1.40436,1.02135 0.84262,0.35747 1.8895,0.35747 1.04689,0 1.88951,-0.35747 0.84261,-0.38301 1.42989,-1.02135 0.58728,-0.66388 0.89368,-1.53203 0.33194,-0.89368 0.33194,-1.8895 z"
     style="font-style:normal;font-variant:normal;font-weight:normal;font-stretch:normal;font-size:25.5338px;font-family:'Avenir Next';-inkscape-font-specification:'Avenir Next';stroke-width:3.19173"
     id="path939" /><path
     d="m 157.79802,419.55311 2.88532,9.70285 h 0.0511 l 3.21726,-9.70285 h 1.68523 l 3.26833,9.70285 h 0.0511 l 2.85979,-9.70285 h 1.83843 l -3.779,11.94982 h -1.8895 l -3.19173,-9.67731 h -0.0511 l -3.14066,9.67731 h -1.8895 l -3.77901,-11.94982 z"
     style="font-style:normal;font-variant:normal;font-weight:normal;font-stretch:normal;font-size:25.5338px;font-family:'Avenir Next';-inkscape-font-specification:'Avenir Next';stroke-width:3.19173"
     id="path941" /><path
     d="m 178.35513,437.63104 h -1.7363 v -18.07793 h 1.7363 v 2.06824 h 0.0766 q 0.74048,-1.17456 1.9661,-1.76183 1.25116,-0.61281 2.52785,-0.61281 1.40436,0 2.52784,0.48514 1.14902,0.48514 1.94057,1.32776 0.81708,0.84261 1.25116,1.99163 0.45961,1.14902 0.45961,2.47678 0,1.32776 -0.45961,2.47678 -0.43408,1.14902 -1.25116,1.99164 -0.79155,0.84261 -1.94057,1.32775 -1.12348,0.48515 -2.52784,0.48515 -1.27669,0 -2.52785,-0.58728 -1.22562,-0.61281 -1.9661,-1.7363 h -0.0766 z m 8.91129,-12.10302 q 0,-0.99582 -0.3064,-1.86397 -0.30641,-0.89368 -0.89369,-1.53202 -0.56174,-0.66388 -1.40436,-1.04689 -0.84261,-0.38301 -1.91503,-0.38301 -0.99582,0 -1.83843,0.38301 -0.84262,0.35747 -1.45543,1.02135 -0.61281,0.63835 -0.97029,1.53203 -0.33193,0.86815 -0.33193,1.8895 0,1.02135 0.33193,1.91504 0.35748,0.86814 0.97029,1.50649 0.61281,0.63834 1.45543,1.02135 0.84261,0.35747 1.83843,0.35747 1.07242,0 1.91503,-0.35747 0.84262,-0.38301 1.40436,-1.02135 0.58728,-0.66388 0.89369,-1.53203 0.3064,-0.89368 0.3064,-1.8895 z"
     style="font-style:normal;font-variant:normal;font-weight:normal;font-stretch:normal;font-size:25.5338px;font-family:'Avenir Next';-inkscape-font-specification:'Avenir Next';stroke-width:3.19173"
     id="path943" /><path
     d="m 200.35928,423.79172 q 0,-1.55756 -0.81708,-2.32357 -0.81708,-0.76602 -2.37465,-0.76602 -1.07241,0 -1.99163,0.38301 -0.91922,0.38301 -1.55756,1.02135 l -0.97029,-1.14902 q 0.74048,-0.74048 1.94057,-1.22562 1.22562,-0.48514 2.75765,-0.48514 0.97029,0 1.8129,0.28087 0.84262,0.25534 1.48096,0.79155 0.63835,0.53621 0.99582,1.35329 0.35747,0.81708 0.35747,1.91503 v 5.23443 q 0,0.68941 0.0511,1.42989 0.0511,0.74048 0.1532,1.25116 h -1.55756 q -0.0766,-0.43407 -0.12767,-0.94475 -0.0511,-0.51068 -0.0511,-0.99582 h -0.0511 q -0.81708,1.20009 -1.86397,1.7363 -1.02135,0.51068 -2.47678,0.51068 -0.68941,0 -1.42989,-0.20428 -0.71495,-0.17873 -1.32776,-0.61281 -0.58728,-0.43407 -0.99582,-1.12348 -0.383,-0.68942 -0.383,-1.68523 0,-1.37883 0.68941,-2.17038 0.71494,-0.81708 1.8895,-1.20009 1.17455,-0.40854 2.68105,-0.51067 1.53203,-0.12767 3.16619,-0.12767 z m -0.51068,1.7363 q -1.07242,0 -2.17037,0.10214 -1.07242,0.0766 -1.9661,0.35747 -0.86815,0.25534 -1.42989,0.76601 -0.56175,0.51068 -0.56175,1.35329 0,0.63835 0.22981,1.07242 0.25533,0.43408 0.66387,0.71495 0.40855,0.25534 0.89369,0.38301 0.51067,0.10213 1.02135,0.10213 0.91922,0 1.63416,-0.3064 0.71495,-0.33194 1.20009,-0.86815 0.48514,-0.56175 0.74048,-1.27669 0.25534,-0.71495 0.25534,-1.5065 v -0.89368 z"
     style="font-style:normal;font-variant:normal;font-weight:normal;font-stretch:normal;font-size:25.5338px;font-family:'Avenir Next';-inkscape-font-specification:'Avenir Next';stroke-width:3.19173"
     id="path945" /><path
     d="m 212.79943,422.38736 q -0.38301,-0.74048 -1.17456,-1.20009 -0.76601,-0.48514 -1.76183,-0.48514 -0.45961,0 -0.91921,0.10214 -0.45961,0.10213 -0.81709,0.33194 -0.35747,0.2298 -0.58727,0.58727 -0.20427,0.35748 -0.20427,0.84262 0,0.84262 0.68941,1.30222 0.68941,0.43408 2.17037,0.74048 2.11931,0.43408 3.11513,1.27669 1.02135,0.81709 1.02135,2.22144 0,1.02136 -0.40854,1.7363 -0.38301,0.68942 -1.02136,1.14902 -0.63834,0.43408 -1.45542,0.61281 -0.79155,0.20428 -1.60863,0.20428 -1.35329,0 -2.62998,-0.56175 -1.27669,-0.56174 -2.09377,-1.76183 l 1.37882,-1.02135 q 0.45961,0.79155 1.35329,1.32776 0.89368,0.5362 1.9661,0.5362 0.56175,0 1.07242,-0.10213 0.51068,-0.10214 0.89369,-0.35747 0.383,-0.25534 0.61281,-0.63835 0.2298,-0.40854 0.2298,-0.99582 0,-0.94475 -0.91921,-1.40436 -0.89369,-0.48514 -2.60445,-0.89368 -0.53621,-0.12767 -1.14902,-0.3064 -0.58728,-0.20427 -1.09796,-0.56175 -0.51067,-0.383 -0.84261,-0.94475 -0.33194,-0.56174 -0.33194,-1.40436 0,-0.91921 0.35747,-1.55756 0.35748,-0.66388 0.94475,-1.07242 0.61281,-0.43407 1.37883,-0.63834 0.76601,-0.20427 1.58309,-0.20427 1.25116,0 2.42571,0.56174 1.17456,0.56174 1.76184,1.58309 z"
     style="font-style:normal;font-variant:normal;font-weight:normal;font-stretch:normal;font-size:25.5338px;font-family:'Avenir Next';-inkscape-font-specification:'Avenir Next';stroke-width:3.19173"
     id="path947" /><path
     d="m 224.12008,422.38736 q -0.38301,-0.74048 -1.17456,-1.20009 -0.76601,-0.48514 -1.76183,-0.48514 -0.45961,0 -0.91922,0.10214 -0.45961,0.10213 -0.81708,0.33194 -0.35747,0.2298 -0.58728,0.58727 -0.20427,0.35748 -0.20427,0.84262 0,0.84262 0.68942,1.30222 0.68941,0.43408 2.17037,0.74048 2.1193,0.43408 3.11512,1.27669 1.02136,0.81709 1.02136,2.22144 0,1.02136 -0.40855,1.7363 -0.383,0.68942 -1.02135,1.14902 -0.63834,0.43408 -1.45542,0.61281 -0.79155,0.20428 -1.60863,0.20428 -1.3533,0 -2.62999,-0.56175 -1.27669,-0.56174 -2.09377,-1.76183 l 1.37883,-1.02135 q 0.45961,0.79155 1.35329,1.32776 0.89368,0.5362 1.9661,0.5362 0.56175,0 1.07242,-0.10213 0.51068,-0.10214 0.89369,-0.35747 0.383,-0.25534 0.61281,-0.63835 0.2298,-0.40854 0.2298,-0.99582 0,-0.94475 -0.91922,-1.40436 -0.89368,-0.48514 -2.60444,-0.89368 -0.53621,-0.12767 -1.14902,-0.3064 -0.58728,-0.20427 -1.09796,-0.56175 -0.51067,-0.383 -0.84261,-0.94475 -0.33194,-0.56174 -0.33194,-1.40436 0,-0.91921 0.35747,-1.55756 0.35747,-0.66388 0.94475,-1.07242 0.61281,-0.43407 1.37883,-0.63834 0.76601,-0.20427 1.58309,-0.20427 1.25116,0 2.42571,0.56174 1.17456,0.56174 1.76183,1.58309 z"
     style="font-style:normal;font-variant:normal;font-weight:normal;font-stretch:normal;font-size:25.5338px;font-family:'Avenir Next';-inkscape-font-specification:'Avenir Next';stroke-width:3.19173"
     id="path949" /></g><g
   aria-label="highpass"
   transform="matrix(1.010765,0,0,0.98934965,0,6.3154731)"
   id="text925"
   style="font-style:normal;font-weight:normal;font-size:25.5338px;line-height:1.25;font-family:sans-serif;fill:#000000;fill-opacity:1;stroke:none;stroke-width:3.19173"><path
     d="m 131.72842,606.63951 q 0.48514,-1.04688 1.60863,-1.65969 1.12348,-0.61281 2.40017,-0.61281 2.27251,0 3.396,1.35329 1.14902,1.35329 1.14902,3.57473 v 7.3282 h -1.7363 v -6.61325 q 0,-0.94475 -0.1532,-1.71077 -0.1532,-0.76601 -0.53621,-1.30222 -0.35747,-0.56175 -0.99582,-0.86815 -0.61281,-0.30641 -1.55756,-0.30641 -0.68941,0 -1.35329,0.28087 -0.63835,0.28088 -1.14902,0.86815 -0.51068,0.56175 -0.81708,1.45543 -0.30641,0.86815 -0.30641,2.06824 v 6.12811 h -1.7363 v -19.30355 h 1.7363 v 9.31983 z"
     style="font-style:normal;font-variant:normal;font-weight:normal;font-stretch:normal;font-size:25.5338px;font-family:'Avenir Next';-inkscape-font-specification:'Avenir Next';stroke-width:3.19173"
     id="path952" /><path
     d="m 146.56316,616.62323 h -1.7363 v -11.94982 h 1.7363 z m 0.35747,-16.5459 q 0,0.53621 -0.38301,0.89368 -0.383,0.33194 -0.84261,0.33194 -0.45961,0 -0.84262,-0.33194 -0.383,-0.35747 -0.383,-0.89368 0,-0.53621 0.383,-0.86815 0.38301,-0.35747 0.84262,-0.35747 0.45961,0 0.84261,0.35747 0.38301,0.33194 0.38301,0.86815 z"
     style="font-style:normal;font-variant:normal;font-weight:normal;font-stretch:normal;font-size:25.5338px;font-family:'Avenir Next';-inkscape-font-specification:'Avenir Next';stroke-width:3.19173"
     id="path954" /><path
     d="m 151.82312,619.02341 q 0.71495,0.91921 1.94057,1.55756 1.25115,0.63834 2.62998,0.63834 1.27669,0 2.17037,-0.383 0.89369,-0.35748 1.4299,-0.99582 0.56174,-0.63835 0.81708,-1.5065 0.25533,-0.84261 0.25533,-1.8129 v -2.24697 h -0.0511 q -0.68942,1.12349 -1.96611,1.7363 -1.25115,0.61281 -2.55338,0.61281 -1.40435,0 -2.55338,-0.45961 -1.12348,-0.45961 -1.94056,-1.25115 -0.79155,-0.81709 -1.25116,-1.94057 -0.43408,-1.12349 -0.43408,-2.42571 0,-1.27669 0.43408,-2.40018 0.45961,-1.12349 1.25116,-1.9661 0.81708,-0.84262 1.94056,-1.32776 1.14903,-0.48514 2.55338,-0.48514 1.30223,0 2.55338,0.61281 1.25116,0.61281 1.96611,1.76183 h 0.0511 v -2.06824 h 1.7363 v 11.84768 q 0,0.97029 -0.28087,2.06824 -0.25534,1.09796 -0.99582,2.01717 -0.71494,0.91922 -1.9661,1.53203 -1.25116,0.61281 -3.24279,0.61281 -1.6597,0 -3.16619,-0.63834 -1.5065,-0.63835 -2.57892,-1.76184 z m 0.33194,-8.52829 q 0,0.94475 0.3064,1.78736 0.30641,0.84262 0.86815,1.48096 0.58728,0.63835 1.4299,1.02136 0.84261,0.35747 1.91503,0.35747 0.99582,0 1.83843,-0.33194 0.84262,-0.33194 1.45543,-0.94475 0.61281,-0.61281 0.94475,-1.45543 0.35748,-0.86815 0.35748,-1.91503 0,-0.94475 -0.35748,-1.78737 -0.33194,-0.84261 -0.94475,-1.48096 -0.61281,-0.63834 -1.45543,-1.02135 -0.84261,-0.38301 -1.83843,-0.38301 -1.07242,0 -1.91503,0.38301 -0.84262,0.38301 -1.4299,1.02135 -0.56174,0.63835 -0.86815,1.48096 -0.3064,0.84262 -0.3064,1.78737 z"
     style="font-style:normal;font-variant:normal;font-weight:normal;font-stretch:normal;font-size:25.5338px;font-family:'Avenir Next';-inkscape-font-specification:'Avenir Next';stroke-width:3.19173"
     id="path956" /><path
     d="m 169.18132,606.63951 q 0.48514,-1.04688 1.60863,-1.65969 1.12348,-0.61281 2.40017,-0.61281 2.27251,0 3.396,1.35329 1.14902,1.35329 1.14902,3.57473 v 7.3282 h -1.7363 v -6.61325 q 0,-0.94475 -0.1532,-1.71077 -0.1532,-0.76601 -0.53621,-1.30222 -0.35747,-0.56175 -0.99582,-0.86815 -0.61281,-0.30641 -1.55756,-0.30641 -0.68941,0 -1.35329,0.28087 -0.63835,0.28088 -1.14902,0.86815 -0.51068,0.56175 -0.81708,1.45543 -0.30641,0.86815 -0.30641,2.06824 v 6.12811 h -1.7363 v -19.30355 h 1.7363 v 9.31983 z"
     style="font-style:normal;font-variant:normal;font-weight:normal;font-stretch:normal;font-size:25.5338px;font-family:'Avenir Next';-inkscape-font-specification:'Avenir Next';stroke-width:3.19173"
     id="path958" /><path
     d="m 183.99052,622.75134 h -1.7363 v -18.07793 h 1.7363 v 2.06824 h 0.0766 q 0.74048,-1.17456 1.96611,-1.76183 1.25115,-0.61281 2.52784,-0.61281 1.40436,0 2.52785,0.48514 1.14902,0.48514 1.94057,1.32776 0.81708,0.84261 1.25115,1.99163 0.45961,1.14902 0.45961,2.47678 0,1.32776 -0.45961,2.47678 -0.43407,1.14902 -1.25115,1.99164 -0.79155,0.84261 -1.94057,1.32775 -1.12349,0.48515 -2.52785,0.48515 -1.27669,0 -2.52784,-0.58728 -1.22563,-0.61281 -1.96611,-1.7363 h -0.0766 z m 8.9113,-12.10302 q 0,-0.99582 -0.30641,-1.86397 -0.3064,-0.89368 -0.89368,-1.53202 -0.56174,-0.66388 -1.40436,-1.04689 -0.84262,-0.38301 -1.91504,-0.38301 -0.99581,0 -1.83843,0.38301 -0.84261,0.35747 -1.45543,1.02135 -0.61281,0.63835 -0.97028,1.53203 -0.33194,0.86815 -0.33194,1.8895 0,1.02135 0.33194,1.91504 0.35747,0.86814 0.97028,1.50649 0.61282,0.63834 1.45543,1.02135 0.84262,0.35748 1.83843,0.35748 1.07242,0 1.91504,-0.35748 0.84262,-0.38301 1.40436,-1.02135 0.58728,-0.66388 0.89368,-1.53203 0.30641,-0.89368 0.30641,-1.8895 z"
     style="font-style:normal;font-variant:normal;font-weight:normal;font-stretch:normal;font-size:25.5338px;font-family:'Avenir Next';-inkscape-font-specification:'Avenir Next';stroke-width:3.19173"
     id="path960" /><path
     d="m 205.99467,608.91202 q 0,-1.55756 -0.81708,-2.32357 -0.81708,-0.76602 -2.37464,-0.76602 -1.07242,0 -1.99164,0.38301 -0.91921,0.38301 -1.55756,1.02135 l -0.97028,-1.14902 q 0.74048,-0.74048 1.94057,-1.22562 1.22562,-0.48514 2.75765,-0.48514 0.97028,0 1.8129,0.28087 0.84261,0.25534 1.48096,0.79155 0.63834,0.53621 0.99581,1.35329 0.35748,0.81708 0.35748,1.91503 v 5.23443 q 0,0.68941 0.0511,1.42989 0.0511,0.74048 0.1532,1.25116 h -1.55756 q -0.0766,-0.43407 -0.12767,-0.94475 -0.0511,-0.51068 -0.0511,-0.99582 h -0.0511 q -0.81708,1.20009 -1.86397,1.7363 -1.02135,0.51068 -2.47677,0.51068 -0.68942,0 -1.4299,-0.20427 -0.71494,-0.17874 -1.32775,-0.61282 -0.58728,-0.43407 -0.99582,-1.12348 -0.38301,-0.68942 -0.38301,-1.68523 0,-1.37883 0.68941,-2.17038 0.71495,-0.81708 1.8895,-1.20009 1.17456,-0.40854 2.68105,-0.51067 1.53203,-0.12767 3.16619,-0.12767 z m -0.51067,1.7363 q -1.07242,0 -2.17037,0.10214 -1.07242,0.0766 -1.96611,0.35747 -0.86815,0.25534 -1.42989,0.76601 -0.56174,0.51068 -0.56174,1.35329 0,0.63835 0.2298,1.07242 0.25534,0.43408 0.66388,0.71495 0.40854,0.25534 0.89368,0.38301 0.51068,0.10213 1.02135,0.10213 0.91922,0 1.63417,-0.3064 0.71494,-0.33194 1.20009,-0.86815 0.48514,-0.56175 0.74048,-1.27669 0.25533,-0.71495 0.25533,-1.5065 v -0.89368 z"
     style="font-style:normal;font-variant:normal;font-weight:normal;font-stretch:normal;font-size:25.5338px;font-family:'Avenir Next';-inkscape-font-specification:'Avenir Next';stroke-width:3.19173"
     id="path962" /><path
     d="m 218.43482,607.50766 q -0.38301,-0.74048 -1.17455,-1.20009 -0.76602,-0.48514 -1.76184,-0.48514 -0.45961,0 -0.91921,0.10214 -0.45961,0.10213 -0.81709,0.33194 -0.35747,0.2298 -0.58727,0.58727 -0.20427,0.35748 -0.20427,0.84262 0,0.84262 0.68941,1.30222 0.68941,0.43408 2.17037,0.74048 2.11931,0.43408 3.11513,1.27669 1.02135,0.81709 1.02135,2.22144 0,1.02136 -0.40854,1.7363 -0.38301,0.68942 -1.02135,1.14902 -0.63835,0.43408 -1.45543,0.61282 -0.79155,0.20427 -1.60863,0.20427 -1.35329,0 -2.62998,-0.56175 -1.27669,-0.56174 -2.09377,-1.76183 l 1.37882,-1.02135 q 0.45961,0.79155 1.35329,1.32776 0.89369,0.53621 1.96611,0.53621 0.56174,0 1.07242,-0.10214 0.51067,-0.10214 0.89368,-0.35747 0.38301,-0.25534 0.61281,-0.63835 0.2298,-0.40854 0.2298,-0.99582 0,-0.94475 -0.91921,-1.40436 -0.89369,-0.48514 -2.60445,-0.89368 -0.53621,-0.12767 -1.14902,-0.3064 -0.58728,-0.20427 -1.09796,-0.56175 -0.51067,-0.383 -0.84261,-0.94475 -0.33194,-0.56174 -0.33194,-1.40436 0,-0.91921 0.35747,-1.55756 0.35748,-0.66388 0.94475,-1.07242 0.61282,-0.43407 1.37883,-0.63834 0.76601,-0.20427 1.58309,-0.20427 1.25116,0 2.42572,0.56174 1.17455,0.56174 1.76183,1.5831 z"
     style="font-style:normal;font-variant:normal;font-weight:normal;font-stretch:normal;font-size:25.5338px;font-family:'Avenir Next';-inkscape-font-specification:'Avenir Next';stroke-width:3.19173"
     id="path964" /><path
     d="m 229.75547,607.50766 q -0.38301,-0.74048 -1.17456,-1.20009 -0.76601,-0.48514 -1.76183,-0.48514 -0.45961,0 -0.91922,0.10214 -0.4596,0.10213 -0.81708,0.33194 -0.35747,0.2298 -0.58727,0.58727 -0.20427,0.35748 -0.20427,0.84262 0,0.84262 0.68941,1.30222 0.68941,0.43408 2.17037,0.74048 2.11931,0.43408 3.11512,1.27669 1.02136,0.81709 1.02136,2.22144 0,1.02136 -0.40854,1.7363 -0.38301,0.68942 -1.02136,1.14902 -0.63834,0.43408 -1.45542,0.61282 -0.79155,0.20427 -1.60863,0.20427 -1.35329,0 -2.62998,-0.56175 -1.27669,-0.56174 -2.09378,-1.76183 l 1.37883,-1.02135 q 0.45961,0.79155 1.35329,1.32776 0.89368,0.53621 1.9661,0.53621 0.56175,0 1.07242,-0.10214 0.51068,-0.10214 0.89369,-0.35747 0.383,-0.25534 0.61281,-0.63835 0.2298,-0.40854 0.2298,-0.99582 0,-0.94475 -0.91921,-1.40436 -0.89369,-0.48514 -2.60445,-0.89368 -0.53621,-0.12767 -1.14902,-0.3064 -0.58728,-0.20427 -1.09796,-0.56175 -0.51067,-0.383 -0.84261,-0.94475 -0.33194,-0.56174 -0.33194,-1.40436 0,-0.91921 0.35747,-1.55756 0.35747,-0.66388 0.94475,-1.07242 0.61281,-0.43407 1.37883,-0.63834 0.76601,-0.20427 1.58309,-0.20427 1.25116,0 2.42571,0.56174 1.17456,0.56174 1.76184,1.5831 z"
     style="font-style:normal;font-variant:normal;font-weight:normal;font-stretch:normal;font-size:25.5338px;font-family:'Avenir Next';-inkscape-font-specification:'Avenir Next';stroke-width:3.19173"
     id="path966" /></g><g
   aria-label="nonlin"
   transform="matrix(1.010765,0,0,0.98934965,0,6.3154731)"
   id="text929"
   style="font-style:normal;font-weight:normal;font-size:25.5338px;line-height:1.25;font-family:sans-serif;fill:#000000;fill-opacity:1;stroke:none;stroke-width:3.19173"><path
     d="m 148.02756,789.79371 q 0.0511,0.48514 0.0766,1.07242 0.0255,0.58728 0.0255,0.97029 h 0.0511 q 0.51067,-1.04689 1.65969,-1.68523 1.14903,-0.66388 2.42572,-0.66388 2.2725,0 3.39599,1.35329 1.14902,1.35329 1.14902,3.57473 v 7.3282 h -1.7363 v -6.61325 q 0,-0.94475 -0.1532,-1.71077 -0.1532,-0.76601 -0.53621,-1.30222 -0.35747,-0.56175 -0.99582,-0.86815 -0.61281,-0.30641 -1.55756,-0.30641 -0.68941,0 -1.35329,0.28087 -0.63835,0.28088 -1.14902,0.86815 -0.51068,0.56175 -0.81708,1.45543 -0.30641,0.86815 -0.30641,2.06824 v 6.12811 h -1.7363 v -9.31984 q 0,-0.48514 -0.0255,-1.25115 -0.0255,-0.76602 -0.0766,-1.37883 z"
     style="font-style:normal;font-variant:normal;font-weight:normal;font-stretch:normal;font-size:25.5338px;font-family:'Avenir Next';-inkscape-font-specification:'Avenir Next';stroke-width:3.19173"
     id="path969" /><path
     d="m 173.15481,795.76862 q 0,1.35329 -0.48514,2.50231 -0.45961,1.14902 -1.30223,1.99164 -0.84261,0.84262 -2.01717,1.32776 -1.17455,0.45961 -2.57891,0.45961 -1.37883,0 -2.55338,-0.45961 -1.17456,-0.48514 -2.01717,-1.32776 -0.84262,-0.84262 -1.32776,-1.99164 -0.45961,-1.14902 -0.45961,-2.50231 0,-1.35329 0.45961,-2.50231 0.48514,-1.14902 1.32776,-1.99164 0.84261,-0.84261 2.01717,-1.30222 1.17455,-0.48514 2.55338,-0.48514 1.40436,0 2.57891,0.48514 1.17456,0.45961 2.01717,1.30222 0.84262,0.84262 1.30223,1.99164 0.48514,1.14902 0.48514,2.50231 z m -1.83843,0 q 0,-0.99582 -0.33194,-1.86397 -0.30641,-0.89368 -0.89369,-1.53202 -0.58727,-0.66388 -1.42989,-1.04689 -0.84262,-0.38301 -1.8895,-0.38301 -1.04689,0 -1.8895,0.38301 -0.81708,0.38301 -1.40436,1.04689 -0.58728,0.63834 -0.91922,1.53202 -0.3064,0.86815 -0.3064,1.86397 0,0.99582 0.3064,1.8895 0.33194,0.86815 0.91922,1.53203 0.58728,0.63835 1.40436,1.02135 0.84261,0.35748 1.8895,0.35748 1.04688,0 1.8895,-0.35748 0.84262,-0.383 1.42989,-1.02135 0.58728,-0.66388 0.89369,-1.53203 0.33194,-0.89368 0.33194,-1.8895 z"
     style="font-style:normal;font-variant:normal;font-weight:normal;font-stretch:normal;font-size:25.5338px;font-family:'Avenir Next';-inkscape-font-specification:'Avenir Next';stroke-width:3.19173"
     id="path971" /><path
     d="m 178.44868,789.79371 q 0.0511,0.48514 0.0766,1.07242 0.0255,0.58728 0.0255,0.97029 h 0.0511 q 0.51067,-1.04689 1.65969,-1.68523 1.14903,-0.66388 2.42572,-0.66388 2.2725,0 3.39599,1.35329 1.14902,1.35329 1.14902,3.57473 v 7.3282 h -1.7363 v -6.61325 q 0,-0.94475 -0.1532,-1.71077 -0.1532,-0.76601 -0.53621,-1.30222 -0.35747,-0.56175 -0.99582,-0.86815 -0.61281,-0.30641 -1.55756,-0.30641 -0.68941,0 -1.35329,0.28087 -0.63835,0.28088 -1.14902,0.86815 -0.51068,0.56175 -0.81708,1.45543 -0.30641,0.86815 -0.30641,2.06824 v 6.12811 h -1.7363 v -9.31984 q 0,-0.48514 -0.0255,-1.25115 -0.0255,-0.76602 -0.0766,-1.37883 z"
     style="font-style:normal;font-variant:normal;font-weight:normal;font-stretch:normal;font-size:25.5338px;font-family:'Avenir Next';-inkscape-font-specification:'Avenir Next';stroke-width:3.19173"
     id="path973" /><path
     d="m 193.49009,801.74353 h -1.7363 v -19.30355 h 1.7363 z"
     style="font-style:normal;font-variant:normal;font-weight:normal;font-stretch:normal;font-size:25.5338px;font-family:'Avenir Next';-inkscape-font-specification:'Avenir Next';stroke-width:3.19173"
     id="path975" /><path
     d="m 199.89788,801.74353 h -1.7363 v -11.94982 h 1.7363 z m 0.35747,-16.5459 q 0,0.53621 -0.38301,0.89368 -0.38301,0.33194 -0.84261,0.33194 -0.45961,0 -0.84262,-0.33194 -0.38301,-0.35747 -0.38301,-0.89368 0,-0.53621 0.38301,-0.86815 0.38301,-0.35747 0.84262,-0.35747 0.4596,0 0.84261,0.35747 0.38301,0.33194 0.38301,0.86815 z"
     style="font-style:normal;font-variant:normal;font-weight:normal;font-stretch:normal;font-size:25.5338px;font-family:'Avenir Next';-inkscape-font-specification:'Avenir Next';stroke-width:3.19173"
     id="path977" /><path
     d="m 206.07705,789.79371 q 0.0511,0.48514 0.0766,1.07242 0.0255,0.58728 0.0255,0.97029 h 0.0511 q 0.51067,-1.04689 1.65969,-1.68523 1.14903,-0.66388 2.42572,-0.66388 2.2725,0 3.39599,1.35329 1.14902,1.35329 1.14902,3.57473 v 7.3282 h -1.7363 v -6.61325 q 0,-0.94475 -0.1532,-1.71077 -0.1532,-0.76601 -0.53621,-1.30222 -0.35747,-0.56175 -0.99582,-0.86815 -0.61281,-0.30641 -1.55756,-0.30641 -0.68941,0 -1.35329,0.28087 -0.63835,0.28088 -1.14902,0.86815 -0.51068,0.56175 -0.81708,1.45543 -0.30641,0.86815 -0.30641,2.06824 v 6.12811 h -1.7363 v -9.31984 q 0,-0.48514 -0.0255,-1.25115 -0.0255,-0.76602 -0.0766,-1.37883 z"
     style="font-style:normal;font-variant:normal;font-weight:normal;font-stretch:normal;font-size:25.5338px;font-family:'Avenir Next';-inkscape-font-specification:'Avenir Next';stroke-width:3.19173"
     id="path979" /></g><g
   aria-label="dry      wet"
   transform="matrix(1.010765,0,0,0.98934965,0,6.3154731)"
   id="text933"
   style="font-style:normal;font-weight:normal;font-size:25.5338px;line-height:1.25;font-family:sans-serif;fill:#000000;fill-opacity:1;stroke:none;stroke-width:3.19173"><path
     d="m 133.25247,984.84666 q -0.76601,1.14902 -1.99163,1.7363 -1.22563,0.58728 -2.52785,0.58728 -1.40436,0 -2.55338,-0.48515 -1.12349,-0.48514 -1.94057,-1.32775 -0.79155,-0.84262 -1.25116,-1.99164 -0.43407,-1.14902 -0.43407,-2.47678 0,-1.32776 0.43407,-2.47678 0.45961,-1.14902 1.25116,-1.99163 0.81708,-0.84262 1.94057,-1.32776 1.14902,-0.48514 2.55338,-0.48514 1.30222,0 2.52785,0.61281 1.22562,0.58728 1.99163,1.76183 h 0.0511 v -9.42197 h 1.7363 v 19.30355 h -1.7363 v -2.01717 z m -8.86023,-3.95774 q 0,0.99582 0.30641,1.8895 0.3064,0.86815 0.86815,1.53203 0.58728,0.63835 1.42989,1.02135 0.84262,0.35748 1.91504,0.35748 0.99581,0 1.83843,-0.35748 0.84261,-0.383 1.45543,-1.02135 0.61281,-0.63834 0.94475,-1.50649 0.35747,-0.89369 0.35747,-1.91504 0,-1.02135 -0.35747,-1.8895 -0.33194,-0.89368 -0.94475,-1.53203 -0.61282,-0.66388 -1.45543,-1.02135 -0.84262,-0.38301 -1.83843,-0.38301 -1.07242,0 -1.91504,0.38301 -0.84261,0.38301 -1.42989,1.04689 -0.56175,0.63834 -0.86815,1.53202 -0.30641,0.86815 -0.30641,1.86397 z"
     style="font-style:normal;font-variant:normal;font-weight:normal;font-stretch:normal;font-size:25.5338px;font-family:'Avenir Next';-inkscape-font-specification:'Avenir Next';stroke-width:3.19173"
     id="path982" /><path
     d="m 139.67981,977.54399 q 0,-0.48514 -0.0255,-1.25115 -0.0255,-0.76602 -0.0766,-1.37883 h 1.6597 q 0.0511,0.48514 0.0766,1.07242 0.0255,0.58728 0.0255,0.97029 h 0.0511 q 0.51068,-1.04689 1.53203,-1.68523 1.02135,-0.66388 2.29804,-0.66388 0.33194,0 0.58728,0.0255 0.28087,0.0255 0.56174,0.10214 l -0.2298,1.63416 q -0.1532,-0.0511 -0.51068,-0.10214 -0.35747,-0.0511 -0.71494,-0.0511 -0.68942,0 -1.32776,0.25533 -0.63835,0.25534 -1.12349,0.81709 -0.45961,0.53621 -0.76601,1.40435 -0.28087,0.84262 -0.28087,2.04271 v 6.12811 h -1.7363 v -9.31984 z"
     style="font-style:normal;font-variant:normal;font-weight:normal;font-stretch:normal;font-size:25.5338px;font-family:'Avenir Next';-inkscape-font-specification:'Avenir Next';stroke-width:3.19173"
     id="path984" /><path
     d="m 152.96696,984.99986 h 0.0511 l 3.7024,-10.08585 h 1.8895 l -5.94938,15.03941 q -0.53621,1.37883 -1.37882,2.19591 -0.81708,0.84261 -2.37464,0.84261 -0.79155,0 -1.55757,-0.1532 l 0.17874,-1.5831 q 0.61281,0.20427 1.27669,0.20427 0.89368,0 1.40436,-0.56174 0.51068,-0.53621 0.89368,-1.55756 l 0.97029,-2.50231 -5.10676,-11.92429 h 1.94057 z"
     style="font-style:normal;font-variant:normal;font-weight:normal;font-stretch:normal;font-size:25.5338px;font-family:'Avenir Next';-inkscape-font-specification:'Avenir Next';stroke-width:3.19173"
     id="path986" /><path
     d="m 199.8542,974.91401 2.88532,9.70285 h 0.0511 l 3.21726,-9.70285 h 1.68523 l 3.26832,9.70285 h 0.0511 l 2.85979,-9.70285 h 1.83843 l -3.779,11.94982 h -1.8895 l -3.19173,-9.67731 h -0.0511 l -3.14065,9.67731 h -1.8895 l -3.77901,-11.94982 z"
     style="font-style:normal;font-variant:normal;font-weight:normal;font-stretch:normal;font-size:25.5338px;font-family:'Avenir Next';-inkscape-font-specification:'Avenir Next';stroke-width:3.19173"
     id="path988" /><path
     d="m 227.79057,979.9697 q -0.0766,-1.68523 -1.09795,-2.78318 -0.99582,-1.12349 -2.85979,-1.12349 -0.86815,0 -1.60863,0.33194 -0.74048,0.30641 -1.30222,0.86815 -0.56175,0.53621 -0.89369,1.25116 -0.33194,0.68941 -0.383,1.45542 z m 1.76183,0.56175 q 0,0.17873 0,0.38301 0,0.20427 -0.0255,0.43407 h -9.90712 q 0.0255,0.89368 0.35748,1.68523 0.33194,0.79155 0.91921,1.37883 0.58728,0.58727 1.37883,0.94475 0.79155,0.33194 1.71076,0.33194 1.35329,0 2.32358,-0.61282 0.99582,-0.63834 1.50649,-1.45542 l 1.30223,1.02135 q -1.07242,1.35329 -2.37465,1.94057 -1.27669,0.58728 -2.75765,0.58728 -1.32775,0 -2.47678,-0.45961 -1.12348,-0.48514 -1.94056,-1.32776 -0.81709,-0.84262 -1.30223,-1.99164 -0.45961,-1.14902 -0.45961,-2.50231 0,-1.35329 0.45961,-2.50231 0.45961,-1.14902 1.27669,-1.99164 0.81708,-0.84261 1.91504,-1.30222 1.09795,-0.48514 2.37464,-0.48514 1.40436,0 2.47678,0.48514 1.07242,0.45961 1.78737,1.27669 0.71494,0.79155 1.07241,1.86397 0.38301,1.07242 0.38301,2.29804 z"
     style="font-style:normal;font-variant:normal;font-weight:normal;font-stretch:normal;font-size:25.5338px;font-family:'Avenir Next';-inkscape-font-specification:'Avenir Next';stroke-width:3.19173"
     id="path990" /><path
     d="m 238.67475,976.36944 h -3.37046 v 6.97073 q 0,0.66387 0.12767,1.09795 0.12766,0.43407 0.35747,0.68941 0.25534,0.22981 0.58728,0.33194 0.33194,0.0766 0.71494,0.0766 0.35748,0 0.74048,-0.10213 0.40854,-0.10214 0.76602,-0.28087 l 0.0766,1.50649 q -0.45961,0.17874 -0.97029,0.25534 -0.48514,0.10213 -1.07242,0.10213 -0.48514,0 -1.02135,-0.12767 -0.53621,-0.12766 -0.99582,-0.48514 -0.4596,-0.35747 -0.76601,-0.97028 -0.28087,-0.61281 -0.28087,-1.60863 v -7.45587 h -2.47678 v -1.45543 h 2.47678 v -3.37046 h 1.7363 v 3.37046 h 3.37046 z"
     style="font-style:normal;font-variant:normal;font-weight:normal;font-stretch:normal;font-size:25.5338px;font-family:'Avenir Next';-inkscape-font-specification:'Avenir Next';stroke-width:3.19173"
     id="path992" /></g></g><g
     id="path81"
     transform="matrix(0.13118076,0,0,0.13402028,-10.290764,-61.810363)"
     style="clip-rule:evenodd;display:inline;fill-rule:evenodd;stroke-linecap:round;stroke-linejoin:round;stroke-miterlimit:1.5">
                <path
   d="m 280.541,1249.07 c 0,-2.55 -2.072,-4.62 -4.623,-4.62 h -64.707 c -2.552,0 -4.623,2.07 -4.623,4.62 v 86.81 c 0,2.55 2.071,4.62 4.623,4.62 h 64.707 c 2.551,0 4.623,-2.07 4.623,-4.62 z"
   style="stroke:#000000;stroke-width:2.08px"
   id="path876" />
            </g><g
     id="path104"
     transform="matrix(0.13118076,0,0,0.13402028,-10.290764,-56.518696)"
     style="clip-rule:evenodd;display:inline;fill-rule:evenodd;stroke-linecap:round;stroke-linejoin:round;stroke-miterlimit:1.5">
                <path
   d="m 280.541,1082.46 c 0,-2.58 -2.097,-4.68 -4.68,-4.68 H 210.35 c -2.583,0 -4.68,2.1 -4.68,4.68 v 86.69 c 0,2.59 2.097,4.68 4.68,4.68 h 65.511 c 2.583,0 4.68,-2.09 4.68,-4.68 z"
   style="stroke:#000000;stroke-width:2.08px"
   id="path879" />
            </g><path
     id="path83"
     d="m 17.499693,107.0457 c 0,-0.3511 0.09201,-0.62434 0.27618,-0.82255 0.184305,-0.1982 0.421962,-0.29872 0.713386,-0.29872 0.19068,0 0.362652,0.0467 0.515916,0.14016 0.153126,0.0934 0.269944,0.22369 0.350318,0.38933 0.08037,0.16706 0.120561,0.35535 0.120561,0.56772 0,0.21377 -0.0424,0.4049 -0.126935,0.57479 -0.08453,0.16847 -0.204399,0.29589 -0.359465,0.38367 -0.155065,0.0864 -0.322326,0.13025 -0.501781,0.13025 -0.19456,0 -0.368472,-0.0481 -0.521597,-0.14441 -0.153265,-0.0963 -0.269252,-0.22652 -0.34824,-0.39358 -0.07899,-0.16564 -0.118343,-0.34119 -0.118343,-0.52666 z m 0.281862,0.004 c 0,0.25484 0.06693,0.45446 0.200934,0.60169 0.133864,0.14583 0.301817,0.21945 0.50386,0.21945 0.205923,0 0.375262,-0.0736 0.508294,-0.22228 0.132894,-0.14723 0.19941,-0.35677 0.19941,-0.62859 0,-0.17272 -0.02841,-0.32279 -0.08522,-0.45021 -0.05695,-0.12883 -0.1401,-0.22793 -0.249574,-0.29872 -0.109474,-0.0708 -0.232391,-0.10618 -0.36861,-0.10618 -0.19359,0 -0.360157,0.0679 -0.499703,0.20387 -0.139545,0.13591 -0.209387,0.36384 -0.209387,0.68097 z"
     style="clip-rule:evenodd;display:inline;fill:#e6e6e6;fill-rule:nonzero;stroke-width:0.140067;stroke-linecap:round;stroke-linejoin:round;stroke-miterlimit:1.5" /><path
     id="path85"
     d="m 21.184549,105.96266 h 0.273409 v 1.22037 c 0,0.21236 -0.02342,0.38084 -0.07053,0.50542 -0.04698,0.12459 -0.131785,0.22511 -0.254424,0.30439 -0.12264,0.0779 -0.283526,0.11751 -0.482797,0.11751 -0.19359,0 -0.351981,-0.034 -0.475036,-0.10194 -0.123055,-0.0694 -0.210912,-0.16705 -0.26357,-0.29589 -0.05266,-0.13025 -0.07899,-0.3058 -0.07899,-0.52949 v -1.22037 h 0.273548 v 1.21896 c 0,0.18263 0.01663,0.31854 0.05003,0.4049 0.0334,0.0864 0.09063,0.15432 0.171972,0.20104 0.08121,0.0467 0.180702,0.0708 0.298076,0.0708 0.201211,0 0.344498,-0.0467 0.429999,-0.14016 0.0855,-0.0934 0.128321,-0.27182 0.128321,-0.53656 z"
     style="clip-rule:evenodd;display:inline;fill:#e6e6e6;fill-rule:nonzero;stroke-width:0.140067;stroke-linecap:round;stroke-linejoin:round;stroke-miterlimit:1.5" /><path
     id="path87"
     d="m 22.439071,108.07354 v -1.86171 H 21.75825 v -0.24917 h 1.63796 v 0.24917 h -0.683592 v 1.86171 z"
     style="clip-rule:evenodd;display:inline;fill:#e6e6e6;fill-rule:nonzero;stroke-width:0.140067;stroke-linecap:round;stroke-linejoin:round;stroke-miterlimit:1.5" /><path
     id="path89"
     d="m 25.657343,107.82437 v 0.24917 h -1.365936 c -0.0019,-0.0623 0.008,-0.12176 0.02952,-0.1798 0.03478,-0.0949 0.09049,-0.1883 0.167122,-0.28032 0.07663,-0.0934 0.187215,-0.19962 0.332027,-0.31996 0.224492,-0.18829 0.37637,-0.33836 0.455219,-0.44738 0.07899,-0.11042 0.118482,-0.21377 0.118482,-0.31288 0,-0.10193 -0.03603,-0.18829 -0.107811,-0.25908 -0.07192,-0.0708 -0.165736,-0.10618 -0.281308,-0.10618 -0.122085,0 -0.219919,0.0382 -0.293225,0.11184 -0.07331,0.075 -0.110445,0.1798 -0.111276,0.31147 l -0.260799,-0.0269 c 0.01788,-0.19821 0.08495,-0.35111 0.201488,-0.45446 0.116542,-0.10476 0.272994,-0.15573 0.469493,-0.15573 0.198302,0 0.355169,0.0552 0.470741,0.16848 0.11571,0.11184 0.173496,0.25058 0.173496,0.41764 0,0.0835 -0.01691,0.16706 -0.05086,0.24917 -0.03381,0.0807 -0.08994,0.16706 -0.168369,0.25767 -0.07843,0.0892 -0.208833,0.21378 -0.391198,0.37093 -0.152294,0.13025 -0.24999,0.21944 -0.293226,0.26616 -0.04323,0.0467 -0.07899,0.0934 -0.107118,0.14016 z"
     style="clip-rule:evenodd;display:inline;fill:#e6e6e6;fill-rule:nonzero;stroke-width:0.140067;stroke-linecap:round;stroke-linejoin:round;stroke-miterlimit:1.5" /><g
     id="g114"
     transform="matrix(0.1385753,0,0,0.14157488,-12.322959,-65.257003)"
     style="clip-rule:evenodd;display:inline;fill-rule:evenodd;stroke-linecap:round;stroke-linejoin:round;stroke-miterlimit:1.5">
            <rect
   id="rect108"
   x="226.561"
   y="1086.26"
   width="1.973"
   height="14.913"
   style="fill:#e6e6e6" />
            <path
   id="path110"
   d="m 231.993,1101.17 v -14.91 h 2.025 l 7.832,11.71 v -11.71 h 1.893 v 14.91 h -2.025 l -7.833,-11.72 v 11.72 z"
   style="fill:#e6e6e6;fill-rule:nonzero" />
            <path
   id="path112"
   d="m 261.728,1099.41 v 1.76 h -9.858 c -0.013,-0.44 0.058,-0.86 0.214,-1.27 0.251,-0.67 0.653,-1.33 1.205,-1.99 0.553,-0.65 1.352,-1.4 2.396,-2.25 1.621,-1.33 2.716,-2.38 3.286,-3.16 0.57,-0.78 0.854,-1.51 0.854,-2.2 0,-0.73 -0.259,-1.34 -0.778,-1.84 -0.519,-0.5 -1.195,-0.75 -2.029,-0.75 -0.882,0 -1.587,0.27 -2.116,0.8 -0.529,0.52 -0.797,1.26 -0.804,2.19 l -1.882,-0.19 c 0.129,-1.4 0.614,-2.47 1.455,-3.21 0.841,-0.74 1.97,-1.1 3.387,-1.1 1.431,0 2.564,0.39 3.398,1.19 0.834,0.79 1.251,1.77 1.251,2.95 0,0.59 -0.122,1.18 -0.366,1.76 -0.244,0.57 -0.649,1.18 -1.216,1.82 -0.566,0.64 -1.507,1.51 -2.822,2.62 -1.099,0.92 -1.804,1.55 -2.116,1.88 -0.312,0.33 -0.57,0.66 -0.773,0.99 z"
   style="fill:#e6e6e6;fill-rule:nonzero" />
        </g><g
     id="path79"
     transform="matrix(0.13118076,0,0,0.13402028,-6.423356,-61.810363)"
     style="clip-rule:evenodd;display:inline;fill-rule:evenodd;stroke-linecap:round;stroke-linejoin:round;stroke-miterlimit:1.5">
                <path
   d="m 153.746,1249.09 c 0,-2.56 -2.081,-4.64 -4.644,-4.64 H 84.103 c -2.563,0 -4.644,2.08 -4.644,4.64 v 86.77 c 0,2.56 2.081,4.64 4.644,4.64 h 64.999 c 2.563,0 4.644,-2.08 4.644,-4.64 z"
   style="stroke:#000000;stroke-width:2.08px"
   id="path873" />
            </g><g
     id="path106"
     transform="matrix(0.13118076,0,0,0.13402028,-6.423356,-56.518696)"
     style="clip-rule:evenodd;display:inline;fill-rule:evenodd;stroke-linecap:round;stroke-linejoin:round;stroke-miterlimit:1.5">
                <path
   d="m 154.163,1082.45 c 0,-2.58 -2.092,-4.67 -4.669,-4.67 H 84.129 c -2.577,0 -4.67,2.09 -4.67,4.67 v 86.71 c 0,2.58 2.093,4.67 4.67,4.67 h 65.365 c 2.577,0 4.669,-2.09 4.669,-4.67 z"
   style="stroke:#000000;stroke-width:2.08px"
   id="path882" />
            </g><path
     id="path93"
     d="m 4.8526955,107.0457 c 0,-0.3511 0.092153,-0.62434 0.2763192,-0.82255 0.1841665,-0.1982 0.4219617,-0.29872 0.713247,-0.29872 0.1908182,0 0.3627902,0.0467 0.5160544,0.14016 0.1531258,0.0934 0.2699447,0.22369 0.3501798,0.38933 0.080374,0.16706 0.1205605,0.35535 0.1205605,0.56772 0,0.21377 -0.042265,0.4049 -0.1267964,0.57479 -0.08467,0.16847 -0.2043985,0.29589 -0.3594643,0.38367 -0.1550657,0.0864 -0.3223261,0.13025 -0.5019197,0.13025 -0.1945597,0 -0.3683332,-0.0481 -0.5215975,-0.14441 -0.1531257,-0.0963 -0.2692518,-0.22652 -0.3481011,-0.39358 -0.078988,-0.16564 -0.1184819,-0.34119 -0.1184819,-0.52666 z m 0.2820007,0.004 c 0,0.25484 0.066932,0.45446 0.2007957,0.60169 0.1340023,0.14583 0.3019555,0.21945 0.5039983,0.21945 0.2057843,0 0.3752619,-0.0736 0.5081556,-0.22228 0.1330323,-0.14723 0.1995485,-0.35677 0.1995485,-0.62859 0,-0.17272 -0.028408,-0.32279 -0.085362,-0.45021 -0.056816,-0.12883 -0.1399611,-0.22793 -0.2494355,-0.29872 -0.1094745,-0.0708 -0.2323908,-0.10618 -0.3686103,-0.10618 -0.1935897,0 -0.3601572,0.0679 -0.4998411,0.20387 -0.1395454,0.13591 -0.2092488,0.36384 -0.2092492,0.68097 z"
     style="clip-rule:evenodd;display:inline;fill:#e6e6e6;fill-rule:nonzero;stroke-width:0.140067;stroke-linecap:round;stroke-linejoin:round;stroke-miterlimit:1.5" /><path
     id="path95"
     d="M 8.5375513,105.96266 H 8.811099 v 1.22037 c 0,0.21236 -0.023558,0.38084 -0.070535,0.50542 -0.046977,0.12459 -0.1317851,0.22511 -0.2544242,0.30439 -0.1226392,0.0779 -0.2835251,0.11751 -0.4827964,0.11751 -0.1935897,0 -0.3519812,-0.034 -0.4750361,-0.10194 -0.1231934,-0.0694 -0.2110502,-0.16705 -0.2637088,-0.29589 -0.05252,-0.13025 -0.078849,-0.3058 -0.078849,-0.52949 v -1.22037 h 0.273409 v 1.21896 c 0,0.18263 0.016768,0.31854 0.050026,0.4049 0.033397,0.0864 0.090767,0.15432 0.171972,0.20104 0.081344,0.0467 0.1807022,0.0708 0.298214,0.0708 0.2010728,0 0.3443596,-0.0467 0.4299992,-0.14016 0.085501,-0.0934 0.1281821,-0.27182 0.1281821,-0.53656 z"
     style="clip-rule:evenodd;display:inline;fill:#e6e6e6;fill-rule:nonzero;stroke-width:0.140067;stroke-linecap:round;stroke-linejoin:round;stroke-miterlimit:1.5" /><path
     id="path97"
     d="m 9.7922121,108.07354 v -1.86171 H 9.1113916 v -0.24917 h 1.6379604 v 0.24917 h -0.683731 v 1.86171 z"
     style="clip-rule:evenodd;display:inline;fill:#e6e6e6;fill-rule:nonzero;stroke-width:0.140067;stroke-linecap:round;stroke-linejoin:round;stroke-miterlimit:1.5" /><path
     id="path99"
     d="m 12.63259,108.07354 h -0.253732 v -1.65218 c -0.06097,0.0595 -0.141208,0.11892 -0.240289,0.17838 -0.09908,0.0595 -0.188185,0.10477 -0.267173,0.1345 v -0.25059 c 0.141901,-0.0679 0.266064,-0.15007 0.372213,-0.24775 0.106149,-0.0977 0.181395,-0.19113 0.225462,-0.28174 h 0.163519 z"
     style="clip-rule:evenodd;display:inline;fill:#e6e6e6;fill-rule:nonzero;stroke-width:0.140067;stroke-linecap:round;stroke-linejoin:round;stroke-miterlimit:1.5" /><g
     id="g122"
     transform="matrix(0.1385753,0,0,0.14157488,-7.3592529,-65.257003)"
     style="clip-rule:evenodd;display:inline;fill-rule:evenodd;stroke-linecap:round;stroke-linejoin:round;stroke-miterlimit:1.5">
            <rect
   id="rect116"
   x="99.477997"
   y="1086.26"
   width="1.973"
   height="14.913"
   style="fill:#e6e6e6" />
            <path
   id="path118"
   d="m 104.91,1101.17 v -14.91 h 2.024 l 7.833,11.71 v -11.71 h 1.892 v 14.91 h -2.024 l -7.833,-11.72 v 11.72 z"
   style="fill:#e6e6e6;fill-rule:nonzero" />
            <path
   id="path120"
   d="m 131.918,1101.17 h -1.831 v -11.67 c -0.441,0.42 -1.019,0.84 -1.734,1.26 -0.716,0.42 -1.358,0.74 -1.928,0.95 v -1.77 c 1.024,-0.48 1.919,-1.06 2.685,-1.75 0.767,-0.68 1.309,-1.35 1.628,-1.99 h 1.18 z"
   style="fill:#e6e6e6;fill-rule:nonzero" />
        </g></g>
    
    
    
    
    
    
    
    
    
    
<g
   inkscape:groupmode="layer"
   id="layer1"
   inkscape:label="components"
   style="display:none"><circle
     style="clip-rule:evenodd;display:inline;fill:#00ff00;fill-opacity:1;fill-rule:evenodd;stroke-width:0.353099;stroke-linecap:round;stroke-linejoin:round;stroke-miterlimit:1.5"
     id="input_2"
     cx="21.63966"
     cy="96.346321"
     r="3.5800402"
     inkscape:label="input_2" /><circle
     style="clip-rule:evenodd;display:inline;fill:#0000ff;fill-opacity:1;fill-rule:evenodd;stroke-width:0.353099;stroke-linecap:round;stroke-linejoin:round;stroke-miterlimit:1.5"
     id="output_2"
     cx="21.682001"
     cy="113.21371"
     r="3.5800402"
     inkscape:label="output_2" /><circle
     style="clip-rule:evenodd;display:inline;fill:#0000ff;fill-opacity:1;fill-rule:evenodd;stroke-width:0.353099;stroke-linecap:round;stroke-linejoin:round;stroke-miterlimit:1.5"
     id="output_1"
     cx="8.8457088"
     cy="113.33265"
     r="3.5800402"
     inkscape:label="output_1" /><circle
     style="clip-rule:evenodd;display:inline;fill:#00ff00;fill-opacity:1;fill-rule:evenodd;stroke-width:0.353099;stroke-linecap:round;stroke-linejoin:round;stroke-miterlimit:1.5"
     id="input_1"
     cx="8.8193293"
     cy="96.346321"
     r="3.5800402"
     inkscape:label="input_1" /><circle
     style="clip-rule:evenodd;display:inline;fill:#ff0000;fill-opacity:1;fill-rule:evenodd;stroke-width:0.3531;stroke-linecap:round;stroke-linejoin:round;stroke-miterlimit:1.5"
     id="drywet"
     cx="15.25"
     cy="76.421371"
     r="3.5800402"
     inkscape:label="drywet"><title
       id="title997">drywet</title></circle><circle
     style="clip-rule:evenodd;display:inline;fill:#ff0000;fill-opacity:1;fill-rule:evenodd;stroke-width:0.3531;stroke-linecap:round;stroke-linejoin:round;stroke-miterlimit:1.5"
     id="nonlin"
     cx="15.25"
     cy="60.507389"
     r="3.5800402"
     inkscape:label="nonlin"><title
       id="title995">nonlin</title></circle><circle
     style="clip-rule:evenodd;display:inline;fill:#ff0000;fill-opacity:1;fill-rule:evenodd;stroke-width:0.3531;stroke-linecap:round;stroke-linejoin:round;stroke-miterlimit:1.5"
     id="highpass"
     cx="15.25"
     cy="45.080067"
     inkscape:label="highpass"
     r="3.5800402"><title
       id="title907">highpass</title></circle><circle
     style="clip-rule:evenodd;display:inline;fill:#ff0000;fill-opacity:1;fill-rule:evenodd;stroke-width:0.353;stroke-linecap:round;stroke-linejoin:round;stroke-miterlimit:4;stroke-dasharray:none"
     id="lowpass"
     cx="15.25"
     cy="29.742279"
     r="3.5800402"
     inkscape:label="lowpass"><title
       id="title993">lowpass</title></circle></g><g
   id="g1029"
   transform="matrix(0.30997287,0,0,0.31668253,38.133742,73.591238)">
        
        
    </g></svg>
