<?xml version="1.0" encoding="UTF-8" standalone="no"?>
<svg
   xmlns:serif="http://www.serif.com/"
   xmlns:dc="http://purl.org/dc/elements/1.1/"
   xmlns:cc="http://creativecommons.org/ns#"
   xmlns:rdf="http://www.w3.org/1999/02/22-rdf-syntax-ns#"
   xmlns:svg="http://www.w3.org/2000/svg"
   xmlns="http://www.w3.org/2000/svg"
   xmlns:sodipodi="http://sodipodi.sourceforge.net/DTD/sodipodi-0.dtd"
   xmlns:inkscape="http://www.inkscape.org/namespaces/inkscape"
   width="100%"
   height="100%"
   viewBox="0 0 360 1518"
   version="1.1"
   xml:space="preserve"
   style="fill-rule:evenodd;clip-rule:evenodd;stroke-linecap:round;stroke-linejoin:round;stroke-miterlimit:1.5;"
   id="svg154"
   sodipodi:docname="rawGlitters.svg"
   inkscape:version="1.0.1 (c497b03c, 2020-09-10)"><metadata
     id="metadata160"><rdf:RDF><cc:Work
         rdf:about=""><dc:format>image/svg+xml</dc:format><dc:type
           rdf:resource="http://purl.org/dc/dcmitype/StillImage" /></cc:Work></rdf:RDF></metadata><defs
     id="defs158" /><sodipodi:namedview
     pagecolor="#ffffff"
     bordercolor="#666666"
     borderopacity="1"
     objecttolerance="10"
     gridtolerance="10"
     guidetolerance="10"
     inkscape:pageopacity="0"
     inkscape:pageshadow="2"
     inkscape:window-width="1980"
     inkscape:window-height="1329"
     id="namedview156"
     showgrid="false"
     inkscape:zoom="0.66403162"
     inkscape:cx="82.113099"
     inkscape:cy="759"
     inkscape:window-x="0"
     inkscape:window-y="25"
     inkscape:window-maximized="0"
     inkscape:current-layer="layer1"
     inkscape:document-rotation="0" /><rect
     id="Background"
     x="0"
     y="0.257"
     width="359.746"
     height="1517.36"
     style="fill:#e6e6e6;" /><g
     id="Logo---Copyright"
     serif:id="Logo &amp; Copyright"><g
       id="inspired-by-airwindows"
       serif:id="inspired by airwindows"><path
         d="M97.041,1446.58l0,-1.684l1.465,-0l-0,1.684l-1.465,0Zm0,10.246l0,-8.643l1.465,0l-0,8.643l-1.465,-0Z"
         style="fill-rule:nonzero;"
         id="path11" /><path
         d="M100.736,1456.83l-0,-8.643l1.318,0l0,1.229c0.635,-0.949 1.552,-1.424 2.751,-1.424c0.521,0 0.999,0.094 1.436,0.281c0.437,0.187 0.764,0.433 0.981,0.736c0.217,0.304 0.369,0.665 0.455,1.083c0.055,0.271 0.082,0.746 0.082,1.424l-0,5.314l-1.465,-0l-0,-5.257c-0,-0.597 -0.057,-1.043 -0.171,-1.339c-0.114,-0.296 -0.316,-0.532 -0.606,-0.708c-0.29,-0.176 -0.631,-0.264 -1.022,-0.264c-0.623,-0 -1.162,0.198 -1.615,0.594c-0.453,0.396 -0.679,1.147 -0.679,2.254l-0,4.72l-1.465,-0Z"
         style="fill-rule:nonzero;"
         id="path13" /><path
         d="M109.419,1454.25l1.449,-0.228c0.081,0.581 0.307,1.026 0.679,1.335c0.372,0.309 0.891,0.464 1.558,0.464c0.673,-0 1.172,-0.137 1.498,-0.411c0.325,-0.274 0.488,-0.596 0.488,-0.964c0,-0.331 -0.144,-0.592 -0.431,-0.782c-0.201,-0.13 -0.7,-0.295 -1.498,-0.496c-1.074,-0.271 -1.818,-0.506 -2.233,-0.704c-0.415,-0.198 -0.73,-0.472 -0.944,-0.822c-0.215,-0.35 -0.322,-0.736 -0.322,-1.16c0,-0.385 0.088,-0.742 0.265,-1.07c0.176,-0.328 0.416,-0.601 0.72,-0.818c0.228,-0.168 0.538,-0.31 0.932,-0.427c0.393,-0.117 0.815,-0.175 1.265,-0.175c0.678,0 1.274,0.098 1.786,0.293c0.513,0.195 0.891,0.46 1.136,0.794c0.244,0.333 0.412,0.779 0.504,1.338l-1.432,0.196c-0.065,-0.445 -0.254,-0.793 -0.566,-1.042c-0.312,-0.25 -0.752,-0.374 -1.322,-0.374c-0.673,-0 -1.153,0.111 -1.441,0.333c-0.287,0.223 -0.431,0.483 -0.431,0.781c0,0.19 0.06,0.361 0.179,0.513c0.119,0.157 0.307,0.288 0.562,0.391c0.146,0.054 0.577,0.179 1.294,0.374c1.036,0.277 1.759,0.503 2.168,0.68c0.41,0.176 0.731,0.432 0.965,0.769c0.233,0.336 0.35,0.754 0.35,1.253c-0,0.488 -0.143,0.948 -0.428,1.379c-0.284,0.432 -0.695,0.765 -1.232,1.001c-0.538,0.236 -1.145,0.354 -1.823,0.354c-1.123,0 -1.979,-0.233 -2.568,-0.7c-0.589,-0.466 -0.964,-1.158 -1.127,-2.075Z"
         style="fill-rule:nonzero;"
         id="path15" /><path
         d="M118.338,1460.14l0,-11.955l1.335,0l-0,1.123c0.315,-0.439 0.67,-0.769 1.066,-0.988c0.396,-0.22 0.876,-0.33 1.44,-0.33c0.738,0 1.389,0.19 1.953,0.57c0.565,0.38 0.991,0.915 1.278,1.607c0.288,0.692 0.431,1.45 0.431,2.275c0,0.884 -0.158,1.68 -0.476,2.388c-0.317,0.708 -0.778,1.251 -1.383,1.628c-0.605,0.377 -1.241,0.565 -1.908,0.565c-0.489,0 -0.927,-0.103 -1.315,-0.309c-0.388,-0.206 -0.706,-0.467 -0.956,-0.781l0,4.207l-1.465,0Zm1.327,-7.584c-0,1.112 0.225,1.934 0.675,2.465c0.45,0.532 0.996,0.798 1.636,0.798c0.651,-0 1.208,-0.275 1.672,-0.826c0.464,-0.551 0.696,-1.404 0.696,-2.56c0,-1.101 -0.226,-1.926 -0.679,-2.473c-0.453,-0.548 -0.995,-0.822 -1.624,-0.822c-0.624,-0 -1.176,0.291 -1.656,0.874c-0.48,0.584 -0.72,1.431 -0.72,2.544Z"
         style="fill-rule:nonzero;"
         id="path17" /><path
         d="M127.616,1446.58l-0,-1.684l1.464,-0l0,1.684l-1.464,0Zm-0,10.246l-0,-8.643l1.464,0l0,8.643l-1.464,-0Z"
         style="fill-rule:nonzero;"
         id="path19" /><path
         d="M131.294,1456.83l-0,-8.643l1.318,0l0,1.311c0.337,-0.613 0.647,-1.018 0.932,-1.213c0.285,-0.195 0.598,-0.293 0.94,-0.293c0.494,0 0.996,0.157 1.506,0.472l-0.505,1.359c-0.358,-0.211 -0.716,-0.317 -1.074,-0.317c-0.32,-0 -0.608,0.096 -0.863,0.289c-0.255,0.192 -0.437,0.459 -0.545,0.801c-0.163,0.521 -0.244,1.091 -0.244,1.709l-0,4.525l-1.465,-0Z"
         style="fill-rule:nonzero;"
         id="path21" /><path
         d="M142.777,1454.04l1.513,0.187c-0.238,0.884 -0.681,1.571 -1.326,2.059c-0.646,0.488 -1.47,0.732 -2.474,0.732c-1.264,0 -2.267,-0.389 -3.007,-1.167c-0.741,-0.779 -1.111,-1.871 -1.111,-3.276c0,-1.454 0.374,-2.583 1.123,-3.385c0.749,-0.803 1.72,-1.205 2.914,-1.205c1.155,0 2.099,0.393 2.832,1.18c0.732,0.787 1.098,1.894 1.098,3.32c0,0.087 -0.003,0.217 -0.008,0.391l-6.445,0c0.054,0.949 0.323,1.676 0.805,2.181c0.483,0.505 1.085,0.757 1.807,0.757c0.537,-0 0.996,-0.141 1.375,-0.423c0.38,-0.282 0.681,-0.733 0.904,-1.351Zm-4.81,-2.368l4.826,-0c-0.065,-0.727 -0.25,-1.273 -0.553,-1.636c-0.467,-0.564 -1.072,-0.846 -1.815,-0.846c-0.673,-0 -1.239,0.225 -1.697,0.675c-0.458,0.45 -0.712,1.053 -0.761,1.807Z"
         style="fill-rule:nonzero;"
         id="path23" /><path
         d="M151.737,1456.83l-0,-1.09c-0.548,0.857 -1.354,1.285 -2.417,1.285c-0.689,0 -1.323,-0.19 -1.901,-0.569c-0.577,-0.38 -1.025,-0.91 -1.342,-1.591c-0.318,-0.681 -0.476,-1.464 -0.476,-2.348c-0,-0.863 0.143,-1.645 0.431,-2.348c0.287,-0.703 0.719,-1.241 1.294,-1.615c0.575,-0.375 1.218,-0.562 1.929,-0.562c0.52,0 0.984,0.11 1.391,0.33c0.407,0.219 0.738,0.506 0.993,0.858l-0,-4.28l1.457,-0l-0,11.93l-1.359,-0Zm-4.631,-4.313c0,1.107 0.233,1.934 0.7,2.482c0.467,0.548 1.017,0.822 1.652,0.822c0.64,-0 1.184,-0.262 1.632,-0.785c0.447,-0.524 0.671,-1.323 0.671,-2.397c0,-1.183 -0.228,-2.051 -0.684,-2.604c-0.455,-0.554 -1.017,-0.83 -1.684,-0.83c-0.651,-0 -1.195,0.266 -1.632,0.797c-0.437,0.532 -0.655,1.37 -0.655,2.515Z"
         style="fill-rule:nonzero;"
         id="path25" /><path
         d="M161.38,1456.83l-1.359,-0l0,-11.93l1.465,-0l0,4.256c0.618,-0.776 1.408,-1.164 2.368,-1.164c0.532,0 1.035,0.107 1.51,0.322c0.474,0.214 0.865,0.515 1.172,0.903c0.306,0.388 0.546,0.856 0.72,1.404c0.173,0.548 0.26,1.134 0.26,1.757c0,1.482 -0.366,2.626 -1.098,3.435c-0.733,0.808 -1.612,1.212 -2.637,1.212c-1.02,0 -1.82,-0.426 -2.401,-1.277l0,1.082Zm-0.016,-4.386c-0,1.036 0.141,1.785 0.423,2.246c0.461,0.754 1.085,1.131 1.872,1.131c0.64,-0 1.193,-0.278 1.66,-0.834c0.467,-0.556 0.7,-1.385 0.7,-2.486c-0,-1.129 -0.224,-1.962 -0.672,-2.499c-0.447,-0.537 -0.988,-0.805 -1.623,-0.805c-0.64,-0 -1.194,0.278 -1.66,0.834c-0.467,0.556 -0.7,1.36 -0.7,2.413Z"
         style="fill-rule:nonzero;"
         id="path27" /><path
         d="M169.233,1460.15l-0.162,-1.375c0.32,0.087 0.599,0.13 0.838,0.13c0.325,0 0.586,-0.054 0.781,-0.162c0.195,-0.109 0.355,-0.261 0.48,-0.456c0.092,-0.147 0.242,-0.51 0.448,-1.091c0.027,-0.081 0.07,-0.2 0.13,-0.358l-3.28,-8.659l1.579,0l1.799,5.005c0.233,0.635 0.442,1.302 0.626,2.002c0.169,-0.672 0.369,-1.329 0.603,-1.969l1.847,-5.038l1.465,0l-3.288,8.789c-0.353,0.95 -0.627,1.604 -0.822,1.962c-0.26,0.483 -0.559,0.837 -0.895,1.062c-0.337,0.225 -0.738,0.337 -1.205,0.337c-0.282,0 -0.596,-0.059 -0.944,-0.179Z"
         style="fill-rule:nonzero;"
         id="path29" /><path
         d="M187.902,1455.76c-0.543,0.461 -1.065,0.787 -1.567,0.976c-0.501,0.19 -1.04,0.285 -1.615,0.285c-0.949,0 -1.679,-0.232 -2.189,-0.695c-0.51,-0.464 -0.765,-1.057 -0.765,-1.779c-0,-0.423 0.096,-0.809 0.289,-1.159c0.192,-0.35 0.445,-0.631 0.757,-0.843c0.312,-0.211 0.663,-0.371 1.054,-0.48c0.287,-0.076 0.721,-0.149 1.302,-0.219c1.182,-0.142 2.053,-0.31 2.612,-0.505c0.005,-0.201 0.008,-0.328 0.008,-0.383c0,-0.596 -0.138,-1.017 -0.415,-1.261c-0.374,-0.331 -0.93,-0.496 -1.668,-0.496c-0.689,-0 -1.198,0.12 -1.526,0.362c-0.328,0.241 -0.571,0.668 -0.728,1.282l-1.433,-0.196c0.13,-0.613 0.345,-1.108 0.643,-1.485c0.299,-0.377 0.73,-0.667 1.294,-0.871c0.564,-0.203 1.218,-0.305 1.961,-0.305c0.738,0 1.338,0.087 1.799,0.261c0.461,0.173 0.8,0.392 1.017,0.655c0.217,0.263 0.369,0.595 0.456,0.997c0.049,0.249 0.073,0.699 0.073,1.35l0,1.954c0,1.361 0.031,2.223 0.094,2.583c0.062,0.361 0.185,0.707 0.37,1.038l-1.53,-0c-0.152,-0.304 -0.25,-0.659 -0.293,-1.066Zm-0.122,-3.272c-0.532,0.217 -1.329,0.402 -2.393,0.554c-0.602,0.087 -1.028,0.184 -1.277,0.293c-0.25,0.108 -0.442,0.267 -0.578,0.476c-0.136,0.209 -0.204,0.441 -0.204,0.696c0,0.39 0.148,0.716 0.444,0.976c0.296,0.261 0.728,0.391 1.298,0.391c0.564,-0 1.066,-0.124 1.506,-0.37c0.439,-0.247 0.762,-0.585 0.968,-1.014c0.157,-0.331 0.236,-0.819 0.236,-1.464l-0,-0.538Z"
         style="fill-rule:nonzero;"
         id="path31" /><path
         d="M191.54,1446.58l-0,-1.684l1.465,-0l-0,1.684l-1.465,0Zm-0,10.246l-0,-8.643l1.465,0l-0,8.643l-1.465,-0Z"
         style="fill-rule:nonzero;"
         id="path33" /><path
         d="M195.218,1456.83l0,-8.643l1.318,0l0,1.311c0.337,-0.613 0.647,-1.018 0.932,-1.213c0.285,-0.195 0.598,-0.293 0.94,-0.293c0.494,0 0.996,0.157 1.506,0.472l-0.505,1.359c-0.358,-0.211 -0.716,-0.317 -1.074,-0.317c-0.32,-0 -0.608,0.096 -0.863,0.289c-0.255,0.192 -0.436,0.459 -0.545,0.801c-0.163,0.521 -0.244,1.091 -0.244,1.709l-0,4.525l-1.465,-0Z"
         style="fill-rule:nonzero;"
         id="path35" /><path
         d="M202.38,1456.83l-2.645,-8.643l1.513,0l1.376,4.989l0.512,1.855c0.022,-0.092 0.171,-0.686 0.448,-1.782l1.375,-5.062l1.506,0l1.294,5.013l0.431,1.652l0.497,-1.668l1.481,-4.997l1.424,0l-2.702,8.643l-1.522,-0l-1.375,-5.176l-0.334,-1.473l-1.749,6.649l-1.53,-0Z"
         style="fill-rule:nonzero;"
         id="path37" /><path
         d="M212.829,1446.58l-0,-1.684l1.465,-0l-0,1.684l-1.465,0Zm-0,10.246l-0,-8.643l1.465,0l-0,8.643l-1.465,-0Z"
         style="fill-rule:nonzero;"
         id="path39" /><path
         d="M216.523,1456.83l0,-8.643l1.319,0l-0,1.229c0.635,-0.949 1.551,-1.424 2.75,-1.424c0.521,0 1,0.094 1.437,0.281c0.437,0.187 0.763,0.433 0.98,0.736c0.217,0.304 0.369,0.665 0.456,1.083c0.054,0.271 0.082,0.746 0.082,1.424l-0,5.314l-1.465,-0l-0,-5.257c-0,-0.597 -0.057,-1.043 -0.171,-1.339c-0.114,-0.296 -0.316,-0.532 -0.606,-0.708c-0.291,-0.176 -0.631,-0.264 -1.022,-0.264c-0.624,-0 -1.162,0.198 -1.615,0.594c-0.453,0.396 -0.68,1.147 -0.68,2.254l0,4.72l-1.465,-0Z"
         style="fill-rule:nonzero;"
         id="path41" /><path
         d="M231.4,1456.83l-0,-1.09c-0.548,0.857 -1.354,1.285 -2.417,1.285c-0.689,0 -1.323,-0.19 -1.9,-0.569c-0.578,-0.38 -1.026,-0.91 -1.343,-1.591c-0.318,-0.681 -0.476,-1.464 -0.476,-2.348c-0,-0.863 0.143,-1.645 0.431,-2.348c0.288,-0.703 0.719,-1.241 1.294,-1.615c0.575,-0.375 1.218,-0.562 1.929,-0.562c0.52,0 0.984,0.11 1.391,0.33c0.407,0.219 0.738,0.506 0.993,0.858l0,-4.28l1.457,-0l-0,11.93l-1.359,-0Zm-4.631,-4.313c0,1.107 0.233,1.934 0.7,2.482c0.467,0.548 1.017,0.822 1.652,0.822c0.64,-0 1.184,-0.262 1.632,-0.785c0.447,-0.524 0.671,-1.323 0.671,-2.397c0,-1.183 -0.228,-2.051 -0.683,-2.604c-0.456,-0.554 -1.018,-0.83 -1.685,-0.83c-0.651,-0 -1.195,0.266 -1.632,0.797c-0.436,0.532 -0.655,1.37 -0.655,2.515Z"
         style="fill-rule:nonzero;"
         id="path43" /><path
         d="M234.517,1452.5c-0,-1.601 0.444,-2.786 1.334,-3.557c0.744,-0.64 1.65,-0.96 2.718,-0.96c1.188,0 2.16,0.389 2.914,1.168c0.754,0.778 1.131,1.854 1.131,3.227c-0,1.112 -0.167,1.987 -0.501,2.624c-0.333,0.638 -0.819,1.133 -1.456,1.485c-0.638,0.353 -1.334,0.529 -2.088,0.529c-1.21,0 -2.187,-0.388 -2.933,-1.163c-0.746,-0.776 -1.119,-1.894 -1.119,-3.353Zm1.505,-0c0,1.106 0.242,1.935 0.724,2.486c0.483,0.551 1.091,0.826 1.823,0.826c0.727,-0 1.332,-0.277 1.815,-0.83c0.483,-0.554 0.724,-1.397 0.724,-2.531c0,-1.069 -0.242,-1.879 -0.728,-2.429c-0.486,-0.551 -1.089,-0.826 -1.811,-0.826c-0.732,-0 -1.34,0.274 -1.823,0.822c-0.482,0.548 -0.724,1.375 -0.724,2.482Z"
         style="fill-rule:nonzero;"
         id="path45" /><path
         d="M245.926,1456.83l-2.645,-8.643l1.514,0l1.375,4.989l0.513,1.855c0.022,-0.092 0.171,-0.686 0.448,-1.782l1.375,-5.062l1.505,0l1.294,5.013l0.432,1.652l0.496,-1.668l1.481,-4.997l1.424,0l-2.701,8.643l-1.522,-0l-1.376,-5.176l-0.333,-1.473l-1.75,6.649l-1.53,-0Z"
         style="fill-rule:nonzero;"
         id="path47" /><path
         d="M255.781,1454.25l1.449,-0.228c0.081,0.581 0.308,1.026 0.679,1.335c0.372,0.309 0.891,0.464 1.559,0.464c0.673,-0 1.172,-0.137 1.497,-0.411c0.326,-0.274 0.488,-0.596 0.488,-0.964c0,-0.331 -0.143,-0.592 -0.431,-0.782c-0.201,-0.13 -0.7,-0.295 -1.497,-0.496c-1.074,-0.271 -1.819,-0.506 -2.234,-0.704c-0.415,-0.198 -0.73,-0.472 -0.944,-0.822c-0.214,-0.35 -0.322,-0.736 -0.322,-1.16c0,-0.385 0.089,-0.742 0.265,-1.07c0.176,-0.328 0.416,-0.601 0.72,-0.818c0.228,-0.168 0.539,-0.31 0.932,-0.427c0.393,-0.117 0.815,-0.175 1.265,-0.175c0.679,0 1.274,0.098 1.787,0.293c0.512,0.195 0.891,0.46 1.135,0.794c0.244,0.333 0.412,0.779 0.504,1.338l-1.432,0.196c-0.065,-0.445 -0.253,-0.793 -0.565,-1.042c-0.312,-0.25 -0.753,-0.374 -1.323,-0.374c-0.673,-0 -1.153,0.111 -1.44,0.333c-0.288,0.223 -0.432,0.483 -0.432,0.781c0,0.19 0.06,0.361 0.179,0.513c0.12,0.157 0.307,0.288 0.562,0.391c0.146,0.054 0.578,0.179 1.294,0.374c1.036,0.277 1.759,0.503 2.169,0.68c0.409,0.176 0.731,0.432 0.964,0.769c0.233,0.336 0.35,0.754 0.35,1.253c-0,0.488 -0.142,0.948 -0.427,1.379c-0.285,0.432 -0.696,0.765 -1.233,1.001c-0.537,0.236 -1.145,0.354 -1.823,0.354c-1.123,0 -1.979,-0.233 -2.568,-0.7c-0.588,-0.466 -0.964,-1.158 -1.127,-2.075Z"
         style="fill-rule:nonzero;"
         id="path49" /></g><g
       id="g74"><path
         d="M137.446,117.683c-0,-0.739 -0.02,-1.692 -0.058,-2.859c-0.039,-1.166 -0.098,-2.216 -0.175,-3.15l3.791,0c0.078,0.739 0.136,1.556 0.175,2.45c0.039,0.895 0.059,1.634 0.059,2.217l0.116,-0c0.778,-1.595 1.945,-2.888 3.5,-3.879c1.556,-0.992 3.306,-1.488 5.25,-1.488c0.506,0 0.963,0.02 1.371,0.059c0.408,0.038 0.826,0.116 1.254,0.233l-0.525,3.733c-0.233,-0.078 -0.622,-0.155 -1.166,-0.233c-0.545,-0.078 -1.089,-0.117 -1.634,-0.117c-1.05,0 -2.061,0.195 -3.033,0.584c-0.972,0.388 -1.818,1.001 -2.538,1.837c-0.719,0.836 -1.302,1.906 -1.75,3.208c-0.447,1.303 -0.67,2.868 -0.67,4.696l-0,14l-3.967,0l-0,-21.291Z"
         style="fill-rule:nonzero;"
         id="path52" /><path
         d="M174.954,121.358c0,-2.373 -0.622,-4.142 -1.866,-5.309c-1.245,-1.166 -3.053,-1.75 -5.425,-1.75c-1.634,0 -3.15,0.292 -4.55,0.875c-1.4,0.584 -2.587,1.361 -3.559,2.334l-2.216,-2.625c1.127,-1.128 2.615,-2.062 4.462,-2.8c1.847,-0.739 3.938,-1.109 6.271,-1.109c1.478,0 2.858,0.204 4.142,0.613c1.283,0.408 2.411,1.021 3.383,1.837c0.972,0.817 1.73,1.847 2.275,3.092c0.544,1.244 0.817,2.703 0.817,4.375l-0,11.958c-0,1.05 0.038,2.139 0.116,3.267c0.078,1.128 0.195,2.08 0.35,2.858l-3.558,0c-0.117,-0.661 -0.214,-1.38 -0.292,-2.158c-0.078,-0.778 -0.116,-1.536 -0.116,-2.275l-0.117,-0c-1.245,1.828 -2.654,3.14 -4.229,3.937c-1.575,0.798 -3.471,1.196 -5.688,1.196c-1.05,0 -2.129,-0.146 -3.237,-0.437c-1.109,-0.292 -2.12,-0.768 -3.034,-1.429c-0.914,-0.662 -1.672,-1.517 -2.275,-2.567c-0.602,-1.05 -0.904,-2.333 -0.904,-3.85c0,-2.1 0.535,-3.763 1.604,-4.988c1.07,-1.225 2.499,-2.138 4.288,-2.741c1.789,-0.603 3.84,-0.992 6.154,-1.167c2.314,-0.175 4.715,-0.262 7.204,-0.262l0,-0.875Zm-1.166,3.966c-1.634,0 -3.277,0.068 -4.93,0.204c-1.652,0.137 -3.15,0.409 -4.491,0.817c-1.342,0.408 -2.441,1.001 -3.296,1.779c-0.856,0.778 -1.284,1.809 -1.284,3.092c0,0.972 0.185,1.789 0.555,2.45c0.369,0.661 0.865,1.196 1.487,1.604c0.622,0.408 1.313,0.7 2.071,0.875c0.758,0.175 1.526,0.263 2.304,0.263c1.4,-0 2.645,-0.243 3.733,-0.73c1.089,-0.486 2.003,-1.147 2.742,-1.983c0.739,-0.836 1.303,-1.799 1.692,-2.887c0.389,-1.089 0.583,-2.237 0.583,-3.442l0,-2.042l-1.167,0Z"
         style="fill-rule:nonzero;"
         id="path54" /><path
         d="M189.421,111.674l6.592,22.167l0.116,-0l7.35,-22.167l3.85,0l7.467,22.167l0.117,-0l6.533,-22.167l4.2,0l-8.633,27.3l-4.317,0l-7.292,-22.108l-0.116,-0l-7.175,22.108l-4.317,0l-8.633,-27.3l4.258,0Z"
         style="fill-rule:nonzero;"
         id="path56" /><path
         d="M120.85,163.416c-1.439,-1.517 -3.15,-2.693 -5.133,-3.529c-1.984,-0.836 -4.259,-1.254 -6.825,-1.254c-2.645,-0 -5.027,0.486 -7.146,1.458c-2.12,0.972 -3.918,2.285 -5.396,3.937c-1.478,1.653 -2.615,3.568 -3.412,5.746c-0.798,2.178 -1.196,4.472 -1.196,6.884c-0,2.411 0.398,4.705 1.196,6.883c0.797,2.178 1.934,4.083 3.412,5.717c1.478,1.633 3.276,2.936 5.396,3.908c2.119,0.972 4.501,1.458 7.146,1.458c2.333,0 4.472,-0.253 6.416,-0.758c1.945,-0.506 3.52,-1.147 4.725,-1.925l0,-12.542l-9.625,0l0,-3.675l13.825,0l0,18.609c-2.255,1.361 -4.686,2.372 -7.291,3.033c-2.606,0.661 -5.309,0.992 -8.109,0.992c-3.111,-0 -5.989,-0.545 -8.633,-1.634c-2.644,-1.089 -4.919,-2.596 -6.825,-4.521c-1.906,-1.925 -3.393,-4.209 -4.462,-6.854c-1.07,-2.644 -1.605,-5.541 -1.605,-8.691c0,-3.15 0.545,-6.048 1.634,-8.692c1.089,-2.645 2.596,-4.929 4.521,-6.854c1.925,-1.925 4.2,-3.432 6.825,-4.521c2.625,-1.089 5.473,-1.633 8.545,-1.633c3.306,-0 6.184,0.486 8.634,1.458c2.45,0.972 4.55,2.333 6.3,4.083l-2.917,2.917Z"
         style="fill-rule:nonzero;"
         id="path58" /><rect
         x="134.85"
         y="153.208"
         width="3.967"
         height="44.1"
         style="fill-rule:nonzero;"
         id="rect60" /><path
         d="M153.458,197.308l-3.966,-0l-0,-27.3l3.966,-0l0,27.3Zm0.817,-37.8c0,0.816 -0.292,1.487 -0.875,2.012c-0.583,0.525 -1.225,0.788 -1.925,0.788c-0.7,-0 -1.342,-0.263 -1.925,-0.788c-0.583,-0.525 -0.875,-1.196 -0.875,-2.012c0,-0.817 0.292,-1.488 0.875,-2.013c0.583,-0.525 1.225,-0.787 1.925,-0.787c0.7,-0 1.342,0.262 1.925,0.787c0.583,0.525 0.875,1.196 0.875,2.013Z"
         style="fill-rule:nonzero;"
         id="path62" /><path
         d="M176.325,173.333l-7.7,-0l0,15.925c0,1.011 0.097,1.847 0.292,2.508c0.194,0.661 0.476,1.176 0.846,1.546c0.369,0.369 0.806,0.622 1.312,0.758c0.506,0.136 1.05,0.204 1.633,0.204c0.545,0 1.118,-0.078 1.721,-0.233c0.603,-0.156 1.177,-0.37 1.721,-0.642l0.175,3.442c-0.7,0.272 -1.429,0.476 -2.188,0.612c-0.758,0.137 -1.584,0.205 -2.479,0.205c-0.739,-0 -1.516,-0.098 -2.333,-0.292c-0.817,-0.195 -1.575,-0.564 -2.275,-1.108c-0.7,-0.545 -1.274,-1.284 -1.721,-2.217c-0.447,-0.933 -0.671,-2.158 -0.671,-3.675l0,-17.033l-5.658,-0l-0,-3.325l5.658,-0l0,-7.7l3.967,-0l-0,7.7l7.7,-0l-0,3.325Z"
         style="fill-rule:nonzero;"
         id="path64" /><path
         d="M194.117,173.333l-7.7,-0l-0,15.925c-0,1.011 0.097,1.847 0.291,2.508c0.195,0.661 0.477,1.176 0.846,1.546c0.37,0.369 0.807,0.622 1.313,0.758c0.505,0.136 1.05,0.204 1.633,0.204c0.544,0 1.118,-0.078 1.721,-0.233c0.603,-0.156 1.176,-0.37 1.721,-0.642l0.175,3.442c-0.7,0.272 -1.429,0.476 -2.188,0.612c-0.758,0.137 -1.585,0.205 -2.479,0.205c-0.739,-0 -1.517,-0.098 -2.333,-0.292c-0.817,-0.195 -1.575,-0.564 -2.275,-1.108c-0.7,-0.545 -1.274,-1.284 -1.721,-2.217c-0.447,-0.933 -0.671,-2.158 -0.671,-3.675l0,-17.033l-5.658,-0l-0,-3.325l5.658,-0l0,-7.7l3.967,-0l-0,7.7l7.7,-0l-0,3.325Z"
         style="fill-rule:nonzero;"
         id="path66" /><path
         d="M221.125,181.558c-0.117,-2.567 -0.943,-4.696 -2.479,-6.388c-1.536,-1.692 -3.724,-2.537 -6.563,-2.537c-1.322,-0 -2.547,0.243 -3.675,0.729c-1.127,0.486 -2.119,1.147 -2.975,1.983c-0.855,0.836 -1.536,1.789 -2.041,2.858c-0.506,1.07 -0.798,2.188 -0.875,3.355l18.608,-0Zm4.025,1.283l0,0.875c0,0.311 -0.019,0.642 -0.058,0.992l-22.634,-0c0.039,1.361 0.311,2.644 0.817,3.85c0.506,1.205 1.206,2.255 2.1,3.15c0.894,0.894 1.944,1.604 3.15,2.129c1.206,0.525 2.508,0.787 3.908,0.787c2.061,0 3.841,-0.476 5.338,-1.429c1.497,-0.953 2.635,-2.051 3.412,-3.296l2.975,2.334c-1.633,2.061 -3.432,3.538 -5.395,4.433c-1.964,0.894 -4.074,1.342 -6.33,1.342c-2.022,-0 -3.898,-0.36 -5.629,-1.08c-1.73,-0.719 -3.218,-1.72 -4.462,-3.004c-1.245,-1.283 -2.227,-2.8 -2.946,-4.55c-0.72,-1.75 -1.079,-3.655 -1.079,-5.716c-0,-2.062 0.35,-3.967 1.05,-5.717c0.7,-1.75 1.672,-3.267 2.916,-4.55c1.245,-1.283 2.703,-2.285 4.375,-3.004c1.673,-0.72 3.481,-1.079 5.425,-1.079c2.139,-0 4.025,0.359 5.659,1.079c1.633,0.719 2.994,1.691 4.083,2.916c1.089,1.225 1.915,2.655 2.479,4.288c0.564,1.633 0.846,3.383 0.846,5.25Z"
         style="fill-rule:nonzero;"
         id="path68" /><path
         d="M233.667,176.016c-0,-0.739 -0.02,-1.692 -0.059,-2.858c-0.039,-1.167 -0.097,-2.217 -0.175,-3.15l3.792,-0c0.078,0.738 0.136,1.555 0.175,2.45c0.039,0.894 0.058,1.633 0.058,2.216l0.117,0c0.778,-1.594 1.944,-2.887 3.5,-3.879c1.556,-0.992 3.306,-1.487 5.25,-1.487c0.506,-0 0.963,0.019 1.371,0.058c0.408,0.039 0.826,0.117 1.254,0.233l-0.525,3.734c-0.233,-0.078 -0.622,-0.156 -1.167,-0.234c-0.544,-0.078 -1.089,-0.116 -1.633,-0.116c-1.05,-0 -2.061,0.194 -3.033,0.583c-0.973,0.389 -1.818,1.001 -2.538,1.837c-0.719,0.837 -1.303,1.906 -1.75,3.209c-0.447,1.303 -0.671,2.868 -0.671,4.696l0,14l-3.966,-0l-0,-21.292Z"
         style="fill-rule:nonzero;"
         id="path70" /><path
         d="M269.192,176.483c-0.584,-1.128 -1.468,-2.052 -2.654,-2.771c-1.187,-0.72 -2.538,-1.079 -4.055,-1.079c-0.7,-0 -1.4,0.077 -2.1,0.233c-0.7,0.155 -1.322,0.408 -1.866,0.758c-0.545,0.35 -0.982,0.797 -1.313,1.342c-0.33,0.544 -0.496,1.186 -0.496,1.925c0,1.283 0.525,2.265 1.575,2.946c1.05,0.68 2.703,1.254 4.959,1.721c3.227,0.661 5.609,1.623 7.146,2.887c1.536,1.264 2.304,2.965 2.304,5.104c-0,1.556 -0.302,2.868 -0.904,3.938c-0.603,1.069 -1.391,1.944 -2.363,2.625c-0.972,0.68 -2.071,1.166 -3.296,1.458c-1.225,0.292 -2.46,0.438 -3.704,0.438c-2.061,-0 -4.064,-0.428 -6.008,-1.284c-1.945,-0.855 -3.539,-2.197 -4.784,-4.025l3.15,-2.333c0.7,1.205 1.731,2.217 3.092,3.033c1.361,0.817 2.858,1.225 4.492,1.225c0.855,0 1.672,-0.078 2.45,-0.233c0.777,-0.156 1.458,-0.428 2.041,-0.817c0.584,-0.389 1.05,-0.884 1.4,-1.487c0.35,-0.603 0.525,-1.352 0.525,-2.246c0,-1.439 -0.69,-2.518 -2.07,-3.238c-1.381,-0.719 -3.374,-1.39 -5.98,-2.012c-0.816,-0.195 -1.682,-0.438 -2.595,-0.729c-0.914,-0.292 -1.76,-0.72 -2.538,-1.284c-0.778,-0.563 -1.419,-1.273 -1.925,-2.129c-0.506,-0.855 -0.758,-1.925 -0.758,-3.208c-0,-1.4 0.272,-2.596 0.816,-3.588c0.545,-0.991 1.274,-1.808 2.188,-2.45c0.914,-0.641 1.954,-1.118 3.121,-1.429c1.166,-0.311 2.372,-0.466 3.616,-0.466c1.906,-0 3.753,0.427 5.542,1.283c1.789,0.855 3.131,2.061 4.025,3.617l-3.033,2.275Z"
         style="fill-rule:nonzero;"
         id="path72" /></g><rect
       x="70.118"
       y="90.127"
       width="219.764"
       height="134.258"
       style="fill:none;stroke:#000;stroke-width:2.08px;"
       id="rect76" /></g><g
     id="Outputs"><path
       d="M153.746,1249.09c-0,-2.563 -2.081,-4.644 -4.644,-4.644l-64.999,0c-2.563,0 -4.644,2.081 -4.644,4.644l0,86.766c0,2.562 2.081,4.643 4.644,4.643l64.999,0c2.563,0 4.644,-2.081 4.644,-4.643l-0,-86.766Z"
       style="stroke:#000;stroke-width:2.08px;"
       id="path79" /><path
       d="M280.541,1249.07c-0,-2.551 -2.072,-4.623 -4.623,-4.623l-64.707,0c-2.552,0 -4.623,2.072 -4.623,4.623l0,86.808c0,2.551 2.071,4.622 4.623,4.622l64.707,0c2.551,0 4.623,-2.071 4.623,-4.622l-0,-86.808Z"
       style="stroke:#000;stroke-width:2.08px;"
       id="path81" /><g
       id="g91"><path
         d="M215.209,1260.58c-0,-2.476 0.664,-4.413 1.993,-5.814c1.33,-1.4 3.045,-2.101 5.148,-2.101c1.376,0 2.617,0.329 3.723,0.987c1.105,0.658 1.948,1.575 2.528,2.752c0.58,1.177 0.87,2.511 0.87,4.003c-0,1.512 -0.306,2.865 -0.916,4.059c-0.61,1.193 -1.475,2.097 -2.594,2.711c-1.119,0.613 -2.326,0.92 -3.621,0.92c-1.404,0 -2.659,-0.339 -3.764,-1.017c-1.106,-0.678 -1.943,-1.604 -2.513,-2.777c-0.57,-1.173 -0.854,-2.414 -0.854,-3.723Zm2.034,0.03c0,1.797 0.483,3.213 1.45,4.247c0.966,1.034 2.178,1.552 3.636,1.552c1.486,-0 2.708,-0.523 3.668,-1.567c0.959,-1.044 1.439,-2.526 1.439,-4.445c0,-1.214 -0.205,-2.274 -0.615,-3.179c-0.411,-0.906 -1.011,-1.608 -1.801,-2.106c-0.79,-0.498 -1.677,-0.748 -2.66,-0.748c-1.397,0 -2.599,0.48 -3.606,1.44c-1.007,0.959 -1.511,2.562 -1.511,4.806Z"
         style="fill:#e6e6e6;fill-rule:nonzero;"
         id="path83" /><path
         d="M241.8,1252.93l1.973,-0l0,8.616c0,1.499 -0.169,2.689 -0.509,3.571c-0.339,0.881 -0.951,1.598 -1.836,2.151c-0.885,0.553 -2.046,0.829 -3.484,0.829c-1.397,0 -2.54,-0.241 -3.428,-0.722c-0.888,-0.482 -1.522,-1.178 -1.902,-2.09c-0.38,-0.913 -0.57,-2.159 -0.57,-3.739l0,-8.616l1.974,-0l-0,8.606c-0,1.295 0.12,2.25 0.361,2.864c0.241,0.613 0.654,1.086 1.241,1.419c0.586,0.332 1.304,0.498 2.151,0.498c1.452,0 2.486,-0.329 3.103,-0.987c0.617,-0.658 0.926,-1.922 0.926,-3.794l-0,-8.606Z"
         style="fill:#e6e6e6;fill-rule:nonzero;"
         id="path85" /><path
         d="M250.853,1267.84l0,-13.153l-4.913,-0l-0,-1.76l11.82,-0l0,1.76l-4.933,-0l-0,13.153l-1.974,-0Z"
         style="fill:#e6e6e6;fill-rule:nonzero;"
         id="path87" /><path
         d="M274.077,1266.08l0,1.76l-9.857,-0c-0.014,-0.441 0.058,-0.865 0.213,-1.272c0.251,-0.671 0.653,-1.332 1.206,-1.983c0.553,-0.651 1.351,-1.404 2.396,-2.259c1.62,-1.329 2.716,-2.382 3.285,-3.158c0.57,-0.777 0.855,-1.511 0.855,-2.203c-0,-0.725 -0.26,-1.337 -0.778,-1.836c-0.519,-0.498 -1.196,-0.747 -2.03,-0.747c-0.881,-0 -1.587,0.264 -2.116,0.793c-0.529,0.529 -0.797,1.262 -0.803,2.197l-1.882,-0.193c0.129,-1.404 0.613,-2.474 1.454,-3.209c0.841,-0.736 1.97,-1.104 3.388,-1.104c1.431,-0 2.563,0.397 3.397,1.19c0.835,0.794 1.252,1.777 1.252,2.95c-0,0.597 -0.122,1.184 -0.367,1.76c-0.244,0.576 -0.649,1.183 -1.215,1.821c-0.566,0.637 -1.507,1.512 -2.823,2.624c-1.099,0.923 -1.804,1.548 -2.116,1.877c-0.312,0.329 -0.57,0.66 -0.773,0.992l7.314,0Z"
         style="fill:#e6e6e6;fill-rule:nonzero;"
         id="path89" /></g><g
       id="g101"><path
         d="M88.125,1260.58c0,-2.476 0.665,-4.413 1.994,-5.814c1.329,-1.4 3.045,-2.101 5.147,-2.101c1.377,0 2.618,0.329 3.724,0.987c1.105,0.658 1.948,1.575 2.527,2.752c0.58,1.177 0.87,2.511 0.87,4.003c0,1.512 -0.305,2.865 -0.915,4.059c-0.611,1.193 -1.475,2.097 -2.594,2.711c-1.119,0.613 -2.326,0.92 -3.622,0.92c-1.404,0 -2.658,-0.339 -3.764,-1.017c-1.105,-0.678 -1.943,-1.604 -2.512,-2.777c-0.57,-1.173 -0.855,-2.414 -0.855,-3.723Zm2.035,0.03c-0,1.797 0.483,3.213 1.449,4.247c0.967,1.034 2.179,1.552 3.637,1.552c1.485,-0 2.708,-0.523 3.667,-1.567c0.96,-1.044 1.44,-2.526 1.44,-4.445c-0,-1.214 -0.205,-2.274 -0.616,-3.179c-0.41,-0.906 -1.01,-1.608 -1.8,-2.106c-0.79,-0.498 -1.677,-0.748 -2.66,-0.748c-1.397,0 -2.599,0.48 -3.607,1.44c-1.007,0.959 -1.51,2.562 -1.51,4.806Z"
         style="fill:#e6e6e6;fill-rule:nonzero;"
         id="path93" /><path
         d="M114.716,1252.93l1.974,-0l-0,8.616c-0,1.499 -0.17,2.689 -0.509,3.571c-0.339,0.881 -0.951,1.598 -1.836,2.151c-0.885,0.553 -2.046,0.829 -3.484,0.829c-1.397,0 -2.54,-0.241 -3.428,-0.722c-0.889,-0.482 -1.523,-1.178 -1.903,-2.09c-0.379,-0.913 -0.569,-2.159 -0.569,-3.739l-0,-8.616l1.973,-0l0,8.606c0,1.295 0.121,2.25 0.361,2.864c0.241,0.613 0.655,1.086 1.241,1.419c0.587,0.332 1.304,0.498 2.152,0.498c1.451,0 2.485,-0.329 3.103,-0.987c0.617,-0.658 0.925,-1.922 0.925,-3.794l0,-8.606Z"
         style="fill:#e6e6e6;fill-rule:nonzero;"
         id="path95" /><path
         d="M123.77,1267.84l-0,-13.153l-4.913,-0l-0,-1.76l11.82,-0l-0,1.76l-4.934,-0l0,13.153l-1.973,-0Z"
         style="fill:#e6e6e6;fill-rule:nonzero;"
         id="path97" /><path
         d="M144.267,1267.84l-1.831,-0l0,-11.668c-0.44,0.42 -1.019,0.841 -1.734,1.261c-0.715,0.421 -1.358,0.736 -1.928,0.946l0,-1.77c1.024,-0.481 1.92,-1.064 2.686,-1.749c0.766,-0.685 1.309,-1.35 1.627,-1.994l1.18,-0l0,14.974Z"
         style="fill:#e6e6e6;fill-rule:nonzero;"
         id="path99" /></g></g><g
     id="Inputs"><path
       d="M280.541,1082.46c-0,-2.582 -2.097,-4.679 -4.68,-4.679l-65.511,-0c-2.583,-0 -4.68,2.097 -4.68,4.679l-0,86.694c-0,2.582 2.097,4.679 4.68,4.679l65.511,0c2.583,0 4.68,-2.097 4.68,-4.679l-0,-86.694Z"
       style="stroke:#000;stroke-width:2.08px;"
       id="path104" /><path
       d="M154.163,1082.45c0,-2.577 -2.092,-4.669 -4.669,-4.669l-65.365,-0c-2.577,-0 -4.67,2.092 -4.67,4.669l0,86.714c0,2.577 2.093,4.669 4.67,4.669l65.365,0c2.577,0 4.669,-2.092 4.669,-4.669l0,-86.714Z"
       style="stroke:#000;stroke-width:2.08px;"
       id="path106" /><g
       id="g114"><rect
         x="226.561"
         y="1086.26"
         width="1.973"
         height="14.913"
         style="fill:#e6e6e6;fill-rule:nonzero;"
         id="rect108" /><path
         d="M231.993,1101.17l0,-14.913l2.025,0l7.832,11.709l0,-11.709l1.893,0l-0,14.913l-2.025,0l-7.833,-11.719l0,11.719l-1.892,0Z"
         style="fill:#e6e6e6;fill-rule:nonzero;"
         id="path110" /><path
         d="M261.728,1099.41l-0,1.76l-9.858,0c-0.013,-0.441 0.058,-0.864 0.214,-1.271c0.251,-0.672 0.653,-1.333 1.205,-1.984c0.553,-0.651 1.352,-1.404 2.396,-2.258c1.621,-1.329 2.716,-2.382 3.286,-3.159c0.57,-0.776 0.854,-1.51 0.854,-2.202c0,-0.726 -0.259,-1.338 -0.778,-1.836c-0.519,-0.499 -1.195,-0.748 -2.029,-0.748c-0.882,-0 -1.587,0.264 -2.116,0.793c-0.529,0.529 -0.797,1.262 -0.804,2.198l-1.882,-0.194c0.129,-1.403 0.614,-2.473 1.455,-3.209c0.841,-0.736 1.97,-1.104 3.387,-1.104c1.431,0 2.564,0.397 3.398,1.19c0.834,0.794 1.251,1.777 1.251,2.951c0,0.596 -0.122,1.183 -0.366,1.759c-0.244,0.577 -0.649,1.184 -1.216,1.821c-0.566,0.638 -1.507,1.513 -2.822,2.625c-1.099,0.922 -1.804,1.548 -2.116,1.877c-0.312,0.328 -0.57,0.659 -0.773,0.991l7.314,0Z"
         style="fill:#e6e6e6;fill-rule:nonzero;"
         id="path112" /></g><g
       id="g122"><rect
         x="99.478"
         y="1086.26"
         width="1.973"
         height="14.913"
         style="fill:#e6e6e6;fill-rule:nonzero;"
         id="rect116" /><path
         d="M104.91,1101.17l-0,-14.913l2.024,0l7.833,11.709l0,-11.709l1.892,0l0,14.913l-2.024,0l-7.833,-11.719l0,11.719l-1.892,0Z"
         style="fill:#e6e6e6;fill-rule:nonzero;"
         id="path118" /><path
         d="M131.918,1101.17l-1.831,0l-0,-11.668c-0.441,0.421 -1.019,0.841 -1.734,1.262c-0.716,0.42 -1.358,0.736 -1.928,0.946l-0,-1.77c1.024,-0.482 1.919,-1.065 2.685,-1.75c0.767,-0.685 1.309,-1.349 1.628,-1.994l1.18,0l0,14.974Z"
         style="fill:#e6e6e6;fill-rule:nonzero;"
         id="path120" /></g></g><g
     id="DeRez"><path
       d="M180,795.95c42.516,0 77.034,34.518 77.034,77.035c0,42.516 -34.518,77.034 -77.034,77.034c-5.931,0 -11.707,-0.672 -17.255,-1.943c-3.238,-0.742 -6.398,-1.689 -9.466,-2.825c-29.362,-10.874 -50.313,-39.143 -50.313,-72.266c-0,-42.517 34.518,-77.035 77.034,-77.035Z"
       style="fill:none;stroke:#000;stroke-width:4.17px;stroke-linejoin:miter;stroke-miterlimit:1;stroke-dasharray:0,8.33,0,0;stroke-dashoffset:4.17;"
       id="path125" /><rect
       x="100.066"
       y="923.076"
       width="159.867"
       height="47.739"
       style="fill:#e6e6e6;"
       id="rect127" /><g
       id="g139"><path
         d="M130.7,741.388l-0,-23.861l8.219,0c1.856,0 3.272,0.114 4.248,0.342c1.368,0.315 2.534,0.885 3.5,1.709c1.258,1.064 2.2,2.423 2.824,4.077c0.623,1.655 0.935,3.546 0.935,5.673c0,1.812 -0.211,3.418 -0.634,4.817c-0.424,1.4 -0.966,2.558 -1.628,3.475c-0.662,0.917 -1.386,1.639 -2.173,2.165c-0.786,0.526 -1.736,0.925 -2.848,1.196c-1.112,0.272 -2.39,0.407 -3.833,0.407l-8.61,0Zm3.157,-2.816l5.095,0c1.573,0 2.807,-0.146 3.703,-0.439c0.895,-0.293 1.608,-0.705 2.14,-1.237c0.749,-0.749 1.332,-1.755 1.75,-3.019c0.417,-1.264 0.626,-2.797 0.626,-4.598c0,-2.496 -0.409,-4.414 -1.229,-5.754c-0.819,-1.34 -1.814,-2.238 -2.986,-2.693c-0.847,-0.326 -2.208,-0.489 -4.086,-0.489l-5.013,0l0,18.229Z"
         style="fill-rule:nonzero;"
         id="path129" /><path
         d="M166.23,735.822l3.028,0.374c-0.478,1.769 -1.362,3.141 -2.653,4.118c-1.291,0.977 -2.941,1.465 -4.948,1.465c-2.528,-0 -4.533,-0.779 -6.014,-2.336c-1.481,-1.557 -2.222,-3.741 -2.222,-6.551c0,-2.908 0.749,-5.165 2.246,-6.771c1.498,-1.606 3.44,-2.409 5.827,-2.409c2.311,0 4.199,0.787 5.664,2.36c1.465,1.574 2.197,3.787 2.197,6.641c0,0.174 -0.005,0.434 -0.016,0.781l-12.89,0c0.108,1.899 0.645,3.353 1.611,4.362c0.966,1.009 2.17,1.514 3.613,1.514c1.074,-0 1.991,-0.282 2.751,-0.846c0.759,-0.565 1.362,-1.465 1.806,-2.702Zm-9.619,-4.737l9.652,0c-0.13,-1.454 -0.499,-2.544 -1.107,-3.271c-0.933,-1.129 -2.143,-1.693 -3.629,-1.693c-1.346,0 -2.477,0.451 -3.394,1.351c-0.917,0.901 -1.424,2.105 -1.522,3.613Z"
         style="fill-rule:nonzero;"
         id="path131" /><path
         d="M173.359,741.388l0,-23.861l10.58,0c2.127,0 3.743,0.215 4.85,0.643c1.107,0.429 1.991,1.186 2.653,2.271c0.662,1.085 0.993,2.284 0.993,3.597c-0,1.693 -0.548,3.119 -1.644,4.281c-1.096,1.161 -2.789,1.898 -5.078,2.213c0.835,0.402 1.47,0.798 1.904,1.188c0.922,0.847 1.796,1.904 2.621,3.174l4.15,6.494l-3.971,0l-3.158,-4.964c-0.922,-1.432 -1.682,-2.528 -2.279,-3.288c-0.596,-0.759 -1.131,-1.291 -1.603,-1.595c-0.472,-0.304 -0.952,-0.515 -1.44,-0.635c-0.358,-0.076 -0.944,-0.114 -1.758,-0.114l-3.662,0l-0,10.596l-3.158,0Zm3.158,-13.33l6.787,0c1.443,0 2.572,-0.149 3.385,-0.448c0.814,-0.298 1.433,-0.775 1.856,-1.432c0.423,-0.656 0.635,-1.37 0.635,-2.14c-0,-1.129 -0.41,-2.056 -1.229,-2.783c-0.819,-0.727 -2.113,-1.091 -3.882,-1.091l-7.552,0l-0,7.894Z"
         style="fill-rule:nonzero;"
         id="path133" /><path
         d="M208.841,735.822l3.027,0.374c-0.477,1.769 -1.361,3.141 -2.653,4.118c-1.291,0.977 -2.94,1.465 -4.947,1.465c-2.529,-0 -4.533,-0.779 -6.014,-2.336c-1.482,-1.557 -2.222,-3.741 -2.222,-6.551c-0,-2.908 0.749,-5.165 2.246,-6.771c1.497,-1.606 3.44,-2.409 5.827,-2.409c2.311,0 4.199,0.787 5.664,2.36c1.465,1.574 2.197,3.787 2.197,6.641c0,0.174 -0.005,0.434 -0.016,0.781l-12.891,0c0.109,1.899 0.646,3.353 1.612,4.362c0.965,1.009 2.17,1.514 3.613,1.514c1.074,-0 1.991,-0.282 2.751,-0.846c0.759,-0.565 1.361,-1.465 1.806,-2.702Zm-9.619,-4.737l9.652,0c-0.131,-1.454 -0.499,-2.544 -1.107,-3.271c-0.933,-1.129 -2.143,-1.693 -3.63,-1.693c-1.345,0 -2.476,0.451 -3.393,1.351c-0.917,0.901 -1.424,2.105 -1.522,3.613Z"
         style="fill-rule:nonzero;"
         id="path135" /><path
         d="M214.001,741.388l-0,-2.376l11.002,-12.63c-1.248,0.065 -2.349,0.097 -3.304,0.097l-7.047,0l-0,-2.376l14.127,0l0,1.937l-9.358,10.97l-1.807,2.002c1.313,-0.098 2.544,-0.147 3.695,-0.147l7.991,0l0,2.523l-15.299,0Z"
         style="fill-rule:nonzero;"
         id="path137" /></g></g><g
     id="On-Off-Switch"><path
       d="M172.22,529.452c0,-2.822 0.29,-5.092 0.871,-6.812c0.58,-1.72 1.443,-3.046 2.588,-3.979c1.144,-0.934 2.585,-1.4 4.321,-1.4c1.28,-0 2.403,0.258 3.369,0.773c0.966,0.515 1.763,1.259 2.393,2.23c0.629,0.971 1.123,2.154 1.481,3.548c0.358,1.394 0.537,3.274 0.537,5.64c-0,2.799 -0.288,5.059 -0.863,6.779c-0.575,1.719 -1.435,3.049 -2.579,3.987c-1.145,0.939 -2.591,1.408 -4.338,1.408c-2.3,0 -4.107,-0.825 -5.42,-2.474c-1.573,-1.985 -2.36,-5.219 -2.36,-9.7Zm3.011,-0c0,3.917 0.459,6.524 1.375,7.82c0.917,1.297 2.049,1.945 3.394,1.945c1.345,0 2.477,-0.651 3.394,-1.953c0.916,-1.302 1.375,-3.906 1.375,-7.812c-0,-3.928 -0.459,-6.538 -1.375,-7.829c-0.917,-1.291 -2.059,-1.937 -3.427,-1.937c-1.345,0 -2.419,0.57 -3.222,1.709c-1.009,1.454 -1.514,4.14 -1.514,8.057Z"
       style="fill-rule:nonzero;"
       id="path142" /><rect
       x="178.421"
       y="374.726"
       width="3.158"
       height="23.861"
       style="fill-rule:nonzero;"
       id="rect144" /></g><g
     inkscape:groupmode="layer"
     id="layer1"
     inkscape:label="components"
     style="display:none"><g
       id="components"
       style="clip-rule:evenodd;display:inline;fill-rule:evenodd;stroke-linecap:round;stroke-linejoin:round;stroke-miterlimit:1.5" /><circle
       id="enabled"
       cx="180"
       cy="457.35001"
       r="36.138"
       style="clip-rule:evenodd;display:inline;fill:#ff0000;fill-rule:evenodd;stroke-linecap:round;stroke-linejoin:round;stroke-miterlimit:1.5"
       inkscape:label="enabled"><title
         id="title930">enabled</title></circle><circle
       id="derez"
       cx="180"
       cy="873.07501"
       style="clip-rule:evenodd;display:inline;fill:#ff0000;fill-rule:evenodd;stroke-linecap:round;stroke-linejoin:round;stroke-miterlimit:1.5"
       r="68.949997"
       inkscape:label="derez"><title
         id="title932">derez</title></circle><circle
       id="input_2"
       cx="243.76801"
       cy="1142.1801"
       r="28.207001"
       style="clip-rule:evenodd;display:inline;fill:#00ff00;fill-rule:evenodd;stroke-linecap:round;stroke-linejoin:round;stroke-miterlimit:1.5"
       inkscape:label="input_2"><title
         id="title936">input_2</title></circle><circle
       id="input_1"
       cx="116.685"
       cy="1142.1801"
       r="28.207001"
       style="clip-rule:evenodd;display:inline;fill:#00ff00;fill-rule:evenodd;stroke-linecap:round;stroke-linejoin:round;stroke-miterlimit:1.5"
       inkscape:label="input_1"><title
         id="title934">input_1</title></circle><circle
       id="output_2"
       cx="243.76801"
       cy="1308.85"
       r="28.207001"
       style="clip-rule:evenodd;display:inline;fill:#0000ff;fill-rule:evenodd;stroke-linecap:round;stroke-linejoin:round;stroke-miterlimit:1.5"
       inkscape:label="output_2"><title
         id="title940">output_2</title></circle><circle
       id="output_1"
       cx="116.685"
       cy="1308.85"
       r="28.207001"
       style="clip-rule:evenodd;display:inline;fill:#0000ff;fill-rule:evenodd;stroke-linecap:round;stroke-linejoin:round;stroke-miterlimit:1.5"
       inkscape:label="output_1"><title
         id="title938">output_1</title></circle></g></svg>
