<?xml version="1.0" encoding="UTF-8" standalone="no"?>
<svg
   xmlns:serif="http://www.serif.com/"
   xmlns:dc="http://purl.org/dc/elements/1.1/"
   xmlns:cc="http://creativecommons.org/ns#"
   xmlns:rdf="http://www.w3.org/1999/02/22-rdf-syntax-ns#"
   xmlns:svg="http://www.w3.org/2000/svg"
   xmlns="http://www.w3.org/2000/svg"
   xmlns:sodipodi="http://sodipodi.sourceforge.net/DTD/sodipodi-0.dtd"
   xmlns:inkscape="http://www.inkscape.org/namespaces/inkscape"
   width="30.5mm"
   height="128.5mm"
   viewBox="0 0 57.949999 244.14999"
   version="1.1"
   xml:space="preserve"
   style="clip-rule:evenodd;fill-rule:evenodd;stroke-linecap:round;stroke-linejoin:round;stroke-miterlimit:1.5"
   id="svg941"
   sodipodi:docname="rawGlitters.svg"
   inkscape:version="1.0.1 (c497b03c, 2020-09-10)"><metadata
   id="metadata947"><rdf:RDF><cc:Work
       rdf:about=""><dc:format>image/svg+xml</dc:format><dc:type
         rdf:resource="http://purl.org/dc/dcmitype/StillImage" /><dc:title></dc:title></cc:Work></rdf:RDF></metadata><defs
   id="defs945" /><sodipodi:namedview
   pagecolor="#ffffff"
   bordercolor="#666666"
   borderopacity="1"
   objecttolerance="10"
   gridtolerance="10"
   guidetolerance="10"
   inkscape:pageopacity="0"
   inkscape:pageshadow="2"
   inkscape:window-width="2268"
   inkscape:window-height="1387"
   id="namedview943"
   showgrid="false"
   inkscape:zoom="4.1048924"
   inkscape:cx="71.472652"
   inkscape:cy="300.10293"
   inkscape:window-x="3"
   inkscape:window-y="25"
   inkscape:window-maximized="0"
   inkscape:current-layer="layer1"
   inkscape:document-rotation="0"
   units="mm"
   inkscape:document-units="mm"
   inkscape:pagecheckerboard="true"
   scale-x="1.9"
   borderlayer="true"
   showborder="true" />
    
    <g
   inkscape:groupmode="layer"
   id="layer2"
   inkscape:label="bg"><g
     id="Background"
     transform="matrix(0.16108588,0,0,0.16090446,0,-0.04135244)"
     style="clip-rule:evenodd;fill-rule:evenodd;stroke-linecap:round;stroke-linejoin:round;stroke-miterlimit:1.5">
        <path
   id="rect833"
   style="fill:#e6e6e6"
   d="m 0,0.257 c 119.91533,0 239.83067,0 359.746,0 0,505.78667 0,1011.5733 0,1517.36 -119.91533,0 -239.83067,0 -359.746,0 C 0,1011.8303 0,506.04367 0,0.257 Z" />
    </g><g
     id="Logo---Copyright"
     serif:id="Logo &amp; Copyright"
     transform="matrix(0.15582594,0,0,0.15919895,0.52763366,0.93079107)"
     style="clip-rule:evenodd;fill-rule:evenodd;stroke-linecap:round;stroke-linejoin:round;stroke-miterlimit:1.5">
        <g
   id="inspired-by-airwindows"
   serif:id="inspired by airwindows">
            <path
   id="path11"
   d="m 97.041,1446.58 v -1.68 h 1.465 v 1.68 z m 0,10.25 v -8.65 h 1.465 v 8.65 z"
   style="fill-rule:nonzero" />
            <path
   id="path13"
   d="m 100.736,1456.83 v -8.64 h 1.318 v 1.23 c 0.635,-0.95 1.552,-1.43 2.751,-1.43 0.521,0 0.999,0.1 1.436,0.28 0.437,0.19 0.764,0.44 0.981,0.74 0.217,0.3 0.369,0.66 0.455,1.08 0.055,0.27 0.082,0.75 0.082,1.43 v 5.31 h -1.465 v -5.26 c 0,-0.59 -0.057,-1.04 -0.171,-1.34 -0.114,-0.29 -0.316,-0.53 -0.606,-0.7 -0.29,-0.18 -0.631,-0.27 -1.022,-0.27 -0.623,0 -1.162,0.2 -1.615,0.6 -0.453,0.39 -0.679,1.14 -0.679,2.25 v 4.72 z"
   style="fill-rule:nonzero" />
            <path
   id="path15"
   d="m 109.419,1454.25 1.449,-0.23 c 0.081,0.58 0.307,1.03 0.679,1.34 0.372,0.31 0.891,0.46 1.558,0.46 0.673,0 1.172,-0.14 1.498,-0.41 0.325,-0.27 0.488,-0.6 0.488,-0.96 0,-0.33 -0.144,-0.6 -0.431,-0.79 -0.201,-0.13 -0.7,-0.29 -1.498,-0.49 -1.074,-0.27 -1.818,-0.51 -2.233,-0.71 -0.415,-0.19 -0.73,-0.47 -0.944,-0.82 -0.215,-0.35 -0.322,-0.73 -0.322,-1.16 0,-0.38 0.088,-0.74 0.265,-1.07 0.176,-0.33 0.416,-0.6 0.72,-0.82 0.228,-0.16 0.538,-0.31 0.932,-0.42 0.393,-0.12 0.815,-0.18 1.265,-0.18 0.678,0 1.274,0.1 1.786,0.3 0.513,0.19 0.891,0.46 1.136,0.79 0.244,0.33 0.412,0.78 0.504,1.34 l -1.432,0.19 c -0.065,-0.44 -0.254,-0.79 -0.566,-1.04 -0.312,-0.25 -0.752,-0.37 -1.322,-0.37 -0.673,0 -1.153,0.11 -1.441,0.33 -0.287,0.22 -0.431,0.48 -0.431,0.78 0,0.19 0.06,0.36 0.179,0.51 0.119,0.16 0.307,0.29 0.562,0.39 0.146,0.06 0.577,0.18 1.294,0.38 1.036,0.28 1.759,0.5 2.168,0.68 0.41,0.17 0.731,0.43 0.965,0.77 0.233,0.33 0.35,0.75 0.35,1.25 0,0.49 -0.143,0.95 -0.428,1.38 -0.284,0.43 -0.695,0.76 -1.232,1 -0.538,0.24 -1.145,0.36 -1.823,0.36 -1.123,0 -1.979,-0.24 -2.568,-0.7 -0.589,-0.47 -0.964,-1.16 -1.127,-2.08 z"
   style="fill-rule:nonzero" />
            <path
   id="path17"
   d="m 118.338,1460.14 v -11.96 h 1.335 v 1.13 c 0.315,-0.44 0.67,-0.77 1.066,-0.99 0.396,-0.22 0.876,-0.33 1.44,-0.33 0.738,0 1.389,0.19 1.953,0.57 0.565,0.38 0.991,0.92 1.278,1.61 0.288,0.69 0.431,1.45 0.431,2.27 0,0.89 -0.158,1.68 -0.476,2.39 -0.317,0.71 -0.778,1.25 -1.383,1.63 -0.605,0.38 -1.241,0.56 -1.908,0.56 -0.489,0 -0.927,-0.1 -1.315,-0.31 -0.388,-0.2 -0.706,-0.46 -0.956,-0.78 v 4.21 z m 1.327,-7.58 c 0,1.11 0.225,1.93 0.675,2.46 0.45,0.53 0.996,0.8 1.636,0.8 0.651,0 1.208,-0.28 1.672,-0.83 0.464,-0.55 0.696,-1.4 0.696,-2.56 0,-1.1 -0.226,-1.92 -0.679,-2.47 -0.453,-0.55 -0.995,-0.82 -1.624,-0.82 -0.624,0 -1.176,0.29 -1.656,0.87 -0.48,0.59 -0.72,1.43 -0.72,2.55 z"
   style="fill-rule:nonzero" />
            <path
   id="path19"
   d="m 127.616,1446.58 v -1.68 h 1.464 v 1.68 z m 0,10.25 v -8.65 h 1.464 v 8.65 z"
   style="fill-rule:nonzero" />
            <path
   id="path21"
   d="m 131.294,1456.83 v -8.64 h 1.318 v 1.31 c 0.337,-0.62 0.647,-1.02 0.932,-1.21 0.285,-0.2 0.598,-0.3 0.94,-0.3 0.494,0 0.996,0.16 1.506,0.47 l -0.505,1.36 c -0.358,-0.21 -0.716,-0.31 -1.074,-0.31 -0.32,0 -0.608,0.09 -0.863,0.29 -0.255,0.19 -0.437,0.45 -0.545,0.8 -0.163,0.52 -0.244,1.09 -0.244,1.71 v 4.52 z"
   style="fill-rule:nonzero" />
            <path
   id="path23"
   d="m 142.777,1454.04 1.513,0.19 c -0.238,0.88 -0.681,1.57 -1.326,2.06 -0.646,0.48 -1.47,0.73 -2.474,0.73 -1.264,0 -2.267,-0.39 -3.007,-1.17 -0.741,-0.78 -1.111,-1.87 -1.111,-3.27 0,-1.46 0.374,-2.59 1.123,-3.39 0.749,-0.8 1.72,-1.2 2.914,-1.2 1.155,0 2.099,0.39 2.832,1.17 0.732,0.79 1.098,1.9 1.098,3.33 0,0.08 -0.003,0.21 -0.008,0.39 h -6.445 c 0.054,0.95 0.323,1.67 0.805,2.18 0.483,0.5 1.085,0.75 1.807,0.75 0.537,0 0.996,-0.14 1.375,-0.42 0.38,-0.28 0.681,-0.73 0.904,-1.35 z m -4.81,-2.37 h 4.826 c -0.065,-0.73 -0.25,-1.27 -0.553,-1.63 -0.467,-0.57 -1.072,-0.85 -1.815,-0.85 -0.673,0 -1.239,0.22 -1.697,0.68 -0.458,0.45 -0.712,1.05 -0.761,1.8 z"
   style="fill-rule:nonzero" />
            <path
   id="path25"
   d="m 151.737,1456.83 v -1.09 c -0.548,0.86 -1.354,1.29 -2.417,1.29 -0.689,0 -1.323,-0.19 -1.901,-0.57 -0.577,-0.38 -1.025,-0.91 -1.342,-1.59 -0.318,-0.69 -0.476,-1.47 -0.476,-2.35 0,-0.87 0.143,-1.65 0.431,-2.35 0.287,-0.7 0.719,-1.24 1.294,-1.62 0.575,-0.37 1.218,-0.56 1.929,-0.56 0.52,0 0.984,0.11 1.391,0.33 0.407,0.22 0.738,0.51 0.993,0.86 v -4.28 h 1.457 v 11.93 z m -4.631,-4.31 c 0,1.1 0.233,1.93 0.7,2.48 0.467,0.55 1.017,0.82 1.652,0.82 0.64,0 1.184,-0.26 1.632,-0.78 0.447,-0.53 0.671,-1.33 0.671,-2.4 0,-1.18 -0.228,-2.05 -0.684,-2.6 -0.455,-0.56 -1.017,-0.84 -1.684,-0.84 -0.651,0 -1.195,0.27 -1.632,0.8 -0.437,0.53 -0.655,1.37 -0.655,2.52 z"
   style="fill-rule:nonzero" />
            <path
   id="path27"
   d="m 161.38,1456.83 h -1.359 v -11.93 h 1.465 v 4.26 c 0.618,-0.78 1.408,-1.17 2.368,-1.17 0.532,0 1.035,0.11 1.51,0.32 0.474,0.22 0.865,0.52 1.172,0.91 0.306,0.39 0.546,0.85 0.72,1.4 0.173,0.55 0.26,1.14 0.26,1.76 0,1.48 -0.366,2.62 -1.098,3.43 -0.733,0.81 -1.612,1.22 -2.637,1.22 -1.02,0 -1.82,-0.43 -2.401,-1.28 z m -0.016,-4.39 c 0,1.04 0.141,1.79 0.423,2.25 0.461,0.75 1.085,1.13 1.872,1.13 0.64,0 1.193,-0.28 1.66,-0.83 0.467,-0.56 0.7,-1.39 0.7,-2.49 0,-1.13 -0.224,-1.96 -0.672,-2.5 -0.447,-0.54 -0.988,-0.8 -1.623,-0.8 -0.64,0 -1.194,0.28 -1.66,0.83 -0.467,0.56 -0.7,1.36 -0.7,2.41 z"
   style="fill-rule:nonzero" />
            <path
   id="path29"
   d="m 169.233,1460.15 -0.162,-1.37 c 0.32,0.08 0.599,0.12 0.838,0.12 0.325,0 0.586,-0.05 0.781,-0.16 0.195,-0.11 0.355,-0.26 0.48,-0.45 0.092,-0.15 0.242,-0.51 0.448,-1.09 0.027,-0.08 0.07,-0.2 0.13,-0.36 l -3.28,-8.66 h 1.579 l 1.799,5 c 0.233,0.64 0.442,1.31 0.626,2.01 0.169,-0.68 0.369,-1.33 0.603,-1.97 l 1.847,-5.04 h 1.465 l -3.288,8.79 c -0.353,0.95 -0.627,1.6 -0.822,1.96 -0.26,0.48 -0.559,0.84 -0.895,1.06 -0.337,0.23 -0.738,0.34 -1.205,0.34 -0.282,0 -0.596,-0.06 -0.944,-0.18 z"
   style="fill-rule:nonzero" />
            <path
   id="path31"
   d="m 187.902,1455.76 c -0.543,0.46 -1.065,0.79 -1.567,0.98 -0.501,0.19 -1.04,0.28 -1.615,0.28 -0.949,0 -1.679,-0.23 -2.189,-0.69 -0.51,-0.47 -0.765,-1.06 -0.765,-1.78 0,-0.43 0.096,-0.81 0.289,-1.16 0.192,-0.35 0.445,-0.63 0.757,-0.84 0.312,-0.22 0.663,-0.38 1.054,-0.48 0.287,-0.08 0.721,-0.15 1.302,-0.22 1.182,-0.15 2.053,-0.31 2.612,-0.51 0.005,-0.2 0.008,-0.33 0.008,-0.38 0,-0.6 -0.138,-1.02 -0.415,-1.26 -0.374,-0.33 -0.93,-0.5 -1.668,-0.5 -0.689,0 -1.198,0.12 -1.526,0.36 -0.328,0.24 -0.571,0.67 -0.728,1.29 l -1.433,-0.2 c 0.13,-0.61 0.345,-1.11 0.643,-1.49 0.299,-0.37 0.73,-0.66 1.294,-0.87 0.564,-0.2 1.218,-0.3 1.961,-0.3 0.738,0 1.338,0.09 1.799,0.26 0.461,0.17 0.8,0.39 1.017,0.65 0.217,0.27 0.369,0.6 0.456,1 0.049,0.25 0.073,0.7 0.073,1.35 v 1.95 c 0,1.37 0.031,2.23 0.094,2.59 0.062,0.36 0.185,0.71 0.37,1.04 h -1.53 c -0.152,-0.31 -0.25,-0.66 -0.293,-1.07 z m -0.122,-3.27 c -0.532,0.21 -1.329,0.4 -2.393,0.55 -0.602,0.09 -1.028,0.19 -1.277,0.3 -0.25,0.1 -0.442,0.26 -0.578,0.47 -0.136,0.21 -0.204,0.44 -0.204,0.7 0,0.39 0.148,0.71 0.444,0.97 0.296,0.26 0.728,0.39 1.298,0.39 0.564,0 1.066,-0.12 1.506,-0.37 0.439,-0.24 0.762,-0.58 0.968,-1.01 0.157,-0.33 0.236,-0.82 0.236,-1.46 z"
   style="fill-rule:nonzero" />
            <path
   id="path33"
   d="m 191.54,1446.58 v -1.68 h 1.465 v 1.68 z m 0,10.25 v -8.65 h 1.465 v 8.65 z"
   style="fill-rule:nonzero" />
            <path
   id="path35"
   d="m 195.218,1456.83 v -8.64 h 1.318 v 1.31 c 0.337,-0.62 0.647,-1.02 0.932,-1.21 0.285,-0.2 0.598,-0.3 0.94,-0.3 0.494,0 0.996,0.16 1.506,0.47 l -0.505,1.36 c -0.358,-0.21 -0.716,-0.31 -1.074,-0.31 -0.32,0 -0.608,0.09 -0.863,0.29 -0.255,0.19 -0.436,0.45 -0.545,0.8 -0.163,0.52 -0.244,1.09 -0.244,1.71 v 4.52 z"
   style="fill-rule:nonzero" />
            <path
   id="path37"
   d="m 202.38,1456.83 -2.645,-8.64 h 1.513 l 1.376,4.99 0.512,1.85 c 0.022,-0.09 0.171,-0.68 0.448,-1.78 l 1.375,-5.06 h 1.506 l 1.294,5.01 0.431,1.65 0.497,-1.67 1.481,-4.99 h 1.424 l -2.702,8.64 h -1.522 l -1.375,-5.18 -0.334,-1.47 -1.749,6.65 z"
   style="fill-rule:nonzero" />
            <path
   id="path39"
   d="m 212.829,1446.58 v -1.68 h 1.465 v 1.68 z m 0,10.25 v -8.65 h 1.465 v 8.65 z"
   style="fill-rule:nonzero" />
            <path
   id="path41"
   d="m 216.523,1456.83 v -8.64 h 1.319 v 1.23 c 0.635,-0.95 1.551,-1.43 2.75,-1.43 0.521,0 1,0.1 1.437,0.28 0.437,0.19 0.763,0.44 0.98,0.74 0.217,0.3 0.369,0.66 0.456,1.08 0.054,0.27 0.082,0.75 0.082,1.43 v 5.31 h -1.465 v -5.26 c 0,-0.59 -0.057,-1.04 -0.171,-1.34 -0.114,-0.29 -0.316,-0.53 -0.606,-0.7 -0.291,-0.18 -0.631,-0.27 -1.022,-0.27 -0.624,0 -1.162,0.2 -1.615,0.6 -0.453,0.39 -0.68,1.14 -0.68,2.25 v 4.72 z"
   style="fill-rule:nonzero" />
            <path
   id="path43"
   d="m 231.4,1456.83 v -1.09 c -0.548,0.86 -1.354,1.29 -2.417,1.29 -0.689,0 -1.323,-0.19 -1.9,-0.57 -0.578,-0.38 -1.026,-0.91 -1.343,-1.59 -0.318,-0.69 -0.476,-1.47 -0.476,-2.35 0,-0.87 0.143,-1.65 0.431,-2.35 0.288,-0.7 0.719,-1.24 1.294,-1.62 0.575,-0.37 1.218,-0.56 1.929,-0.56 0.52,0 0.984,0.11 1.391,0.33 0.407,0.22 0.738,0.51 0.993,0.86 v -4.28 h 1.457 v 11.93 z m -4.631,-4.31 c 0,1.1 0.233,1.93 0.7,2.48 0.467,0.55 1.017,0.82 1.652,0.82 0.64,0 1.184,-0.26 1.632,-0.78 0.447,-0.53 0.671,-1.33 0.671,-2.4 0,-1.18 -0.228,-2.05 -0.683,-2.6 -0.456,-0.56 -1.018,-0.84 -1.685,-0.84 -0.651,0 -1.195,0.27 -1.632,0.8 -0.436,0.53 -0.655,1.37 -0.655,2.52 z"
   style="fill-rule:nonzero" />
            <path
   id="path45"
   d="m 234.517,1452.5 c 0,-1.6 0.444,-2.79 1.334,-3.56 0.744,-0.64 1.65,-0.96 2.718,-0.96 1.188,0 2.16,0.39 2.914,1.17 0.754,0.78 1.131,1.86 1.131,3.23 0,1.11 -0.167,1.99 -0.501,2.62 -0.333,0.64 -0.819,1.13 -1.456,1.49 -0.638,0.35 -1.334,0.53 -2.088,0.53 -1.21,0 -2.187,-0.39 -2.933,-1.17 -0.746,-0.77 -1.119,-1.89 -1.119,-3.35 z m 1.505,0 c 0,1.11 0.242,1.93 0.724,2.49 0.483,0.55 1.091,0.82 1.823,0.82 0.727,0 1.332,-0.27 1.815,-0.83 0.483,-0.55 0.724,-1.39 0.724,-2.53 0,-1.07 -0.242,-1.88 -0.728,-2.43 -0.486,-0.55 -1.089,-0.82 -1.811,-0.82 -0.732,0 -1.34,0.27 -1.823,0.82 -0.482,0.55 -0.724,1.37 -0.724,2.48 z"
   style="fill-rule:nonzero" />
            <path
   id="path47"
   d="m 245.926,1456.83 -2.645,-8.64 h 1.514 l 1.375,4.99 0.513,1.85 c 0.022,-0.09 0.171,-0.68 0.448,-1.78 l 1.375,-5.06 h 1.505 l 1.294,5.01 0.432,1.65 0.496,-1.67 1.481,-4.99 h 1.424 l -2.701,8.64 h -1.522 l -1.376,-5.18 -0.333,-1.47 -1.75,6.65 z"
   style="fill-rule:nonzero" />
            <path
   id="path49"
   d="m 255.781,1454.25 1.449,-0.23 c 0.081,0.58 0.308,1.03 0.679,1.34 0.372,0.31 0.891,0.46 1.559,0.46 0.673,0 1.172,-0.14 1.497,-0.41 0.326,-0.27 0.488,-0.6 0.488,-0.96 0,-0.33 -0.143,-0.6 -0.431,-0.79 -0.201,-0.13 -0.7,-0.29 -1.497,-0.49 -1.074,-0.27 -1.819,-0.51 -2.234,-0.71 -0.415,-0.19 -0.73,-0.47 -0.944,-0.82 -0.214,-0.35 -0.322,-0.73 -0.322,-1.16 0,-0.38 0.089,-0.74 0.265,-1.07 0.176,-0.33 0.416,-0.6 0.72,-0.82 0.228,-0.16 0.539,-0.31 0.932,-0.42 0.393,-0.12 0.815,-0.18 1.265,-0.18 0.679,0 1.274,0.1 1.787,0.3 0.512,0.19 0.891,0.46 1.135,0.79 0.244,0.33 0.412,0.78 0.504,1.34 l -1.432,0.19 c -0.065,-0.44 -0.253,-0.79 -0.565,-1.04 -0.312,-0.25 -0.753,-0.37 -1.323,-0.37 -0.673,0 -1.153,0.11 -1.44,0.33 -0.288,0.22 -0.432,0.48 -0.432,0.78 0,0.19 0.06,0.36 0.179,0.51 0.12,0.16 0.307,0.29 0.562,0.39 0.146,0.06 0.578,0.18 1.294,0.38 1.036,0.28 1.759,0.5 2.169,0.68 0.409,0.17 0.731,0.43 0.964,0.77 0.233,0.33 0.35,0.75 0.35,1.25 0,0.49 -0.142,0.95 -0.427,1.38 -0.285,0.43 -0.696,0.76 -1.233,1 -0.537,0.24 -1.145,0.36 -1.823,0.36 -1.123,0 -1.979,-0.24 -2.568,-0.7 -0.588,-0.47 -0.964,-1.16 -1.127,-2.08 z"
   style="fill-rule:nonzero" />
        </g>
        <g
   id="g74"
   transform="matrix(1.28877,0,0,1.30682,-49.42,-27.6528)">
            <path
   id="path52"
   d="m 137.446,117.683 c 0,-0.739 -0.02,-1.692 -0.058,-2.859 -0.039,-1.166 -0.098,-2.216 -0.175,-3.15 h 3.791 c 0.078,0.739 0.136,1.556 0.175,2.45 0.039,0.895 0.059,1.634 0.059,2.217 h 0.116 c 0.778,-1.595 1.945,-2.888 3.5,-3.879 1.556,-0.992 3.306,-1.488 5.25,-1.488 0.506,0 0.963,0.02 1.371,0.059 0.408,0.038 0.826,0.116 1.254,0.233 l -0.525,3.733 c -0.233,-0.078 -0.622,-0.155 -1.166,-0.233 -0.545,-0.078 -1.089,-0.117 -1.634,-0.117 -1.05,0 -2.061,0.195 -3.033,0.584 -0.972,0.388 -1.818,1.001 -2.538,1.837 -0.719,0.836 -1.302,1.906 -1.75,3.208 -0.447,1.303 -0.67,2.868 -0.67,4.696 v 14 h -3.967 z"
   style="fill-rule:nonzero" />
            <path
   id="path54"
   d="m 174.954,121.358 c 0,-2.373 -0.622,-4.142 -1.866,-5.309 -1.245,-1.166 -3.053,-1.75 -5.425,-1.75 -1.634,0 -3.15,0.292 -4.55,0.875 -1.4,0.584 -2.587,1.361 -3.559,2.334 l -2.216,-2.625 c 1.127,-1.128 2.615,-2.062 4.462,-2.8 1.847,-0.739 3.938,-1.109 6.271,-1.109 1.478,0 2.858,0.204 4.142,0.613 1.283,0.408 2.411,1.021 3.383,1.837 0.972,0.817 1.73,1.847 2.275,3.092 0.544,1.244 0.817,2.703 0.817,4.375 v 11.958 c 0,1.05 0.038,2.139 0.116,3.267 0.078,1.128 0.195,2.08 0.35,2.858 h -3.558 c -0.117,-0.661 -0.214,-1.38 -0.292,-2.158 -0.078,-0.778 -0.116,-1.536 -0.116,-2.275 h -0.117 c -1.245,1.828 -2.654,3.14 -4.229,3.937 -1.575,0.798 -3.471,1.196 -5.688,1.196 -1.05,0 -2.129,-0.146 -3.237,-0.437 -1.109,-0.292 -2.12,-0.768 -3.034,-1.429 -0.914,-0.662 -1.672,-1.517 -2.275,-2.567 -0.602,-1.05 -0.904,-2.333 -0.904,-3.85 0,-2.1 0.535,-3.763 1.604,-4.988 1.07,-1.225 2.499,-2.138 4.288,-2.741 1.789,-0.603 3.84,-0.992 6.154,-1.167 2.314,-0.175 4.715,-0.262 7.204,-0.262 z m -1.166,3.966 c -1.634,0 -3.277,0.068 -4.93,0.204 -1.652,0.137 -3.15,0.409 -4.491,0.817 -1.342,0.408 -2.441,1.001 -3.296,1.779 -0.856,0.778 -1.284,1.809 -1.284,3.092 0,0.972 0.185,1.789 0.555,2.45 0.369,0.661 0.865,1.196 1.487,1.604 0.622,0.408 1.313,0.7 2.071,0.875 0.758,0.175 1.526,0.263 2.304,0.263 1.4,0 2.645,-0.243 3.733,-0.73 1.089,-0.486 2.003,-1.147 2.742,-1.983 0.739,-0.836 1.303,-1.799 1.692,-2.887 0.389,-1.089 0.583,-2.237 0.583,-3.442 v -2.042 h -1.167 z"
   style="fill-rule:nonzero" />
            <path
   id="path56"
   d="m 189.421,111.674 6.592,22.167 h 0.116 l 7.35,-22.167 h 3.85 l 7.467,22.167 h 0.117 l 6.533,-22.167 h 4.2 l -8.633,27.3 h -4.317 l -7.292,-22.108 h -0.116 l -7.175,22.108 h -4.317 l -8.633,-27.3 z"
   style="fill-rule:nonzero" />
            <path
   id="path58"
   d="m 120.85,163.416 c -1.439,-1.517 -3.15,-2.693 -5.133,-3.529 -1.984,-0.836 -4.259,-1.254 -6.825,-1.254 -2.645,0 -5.027,0.486 -7.146,1.458 -2.12,0.972 -3.918,2.285 -5.396,3.937 -1.478,1.653 -2.615,3.568 -3.412,5.746 -0.798,2.178 -1.196,4.472 -1.196,6.884 0,2.411 0.398,4.705 1.196,6.883 0.797,2.178 1.934,4.083 3.412,5.717 1.478,1.633 3.276,2.936 5.396,3.908 2.119,0.972 4.501,1.458 7.146,1.458 2.333,0 4.472,-0.253 6.416,-0.758 1.945,-0.506 3.52,-1.147 4.725,-1.925 v -12.542 h -9.625 v -3.675 h 13.825 v 18.609 c -2.255,1.361 -4.686,2.372 -7.291,3.033 -2.606,0.661 -5.309,0.992 -8.109,0.992 -3.111,0 -5.989,-0.545 -8.633,-1.634 -2.644,-1.089 -4.919,-2.596 -6.825,-4.521 -1.906,-1.925 -3.393,-4.209 -4.462,-6.854 -1.07,-2.644 -1.605,-5.541 -1.605,-8.691 0,-3.15 0.545,-6.048 1.634,-8.692 1.089,-2.645 2.596,-4.929 4.521,-6.854 1.925,-1.925 4.2,-3.432 6.825,-4.521 2.625,-1.089 5.473,-1.633 8.545,-1.633 3.306,0 6.184,0.486 8.634,1.458 2.45,0.972 4.55,2.333 6.3,4.083 z"
   style="fill-rule:nonzero" />
            <rect
   id="rect60"
   x="134.85001"
   y="153.20799"
   width="3.967"
   height="44.099998" />
            <path
   id="path62"
   d="m 153.458,197.308 h -3.966 v -27.3 h 3.966 z m 0.817,-37.8 c 0,0.816 -0.292,1.487 -0.875,2.012 -0.583,0.525 -1.225,0.788 -1.925,0.788 -0.7,0 -1.342,-0.263 -1.925,-0.788 -0.583,-0.525 -0.875,-1.196 -0.875,-2.012 0,-0.817 0.292,-1.488 0.875,-2.013 0.583,-0.525 1.225,-0.787 1.925,-0.787 0.7,0 1.342,0.262 1.925,0.787 0.583,0.525 0.875,1.196 0.875,2.013 z"
   style="fill-rule:nonzero" />
            <path
   id="path64"
   d="m 176.325,173.333 h -7.7 v 15.925 c 0,1.011 0.097,1.847 0.292,2.508 0.194,0.661 0.476,1.176 0.846,1.546 0.369,0.369 0.806,0.622 1.312,0.758 0.506,0.136 1.05,0.204 1.633,0.204 0.545,0 1.118,-0.078 1.721,-0.233 0.603,-0.156 1.177,-0.37 1.721,-0.642 l 0.175,3.442 c -0.7,0.272 -1.429,0.476 -2.188,0.612 -0.758,0.137 -1.584,0.205 -2.479,0.205 -0.739,0 -1.516,-0.098 -2.333,-0.292 -0.817,-0.195 -1.575,-0.564 -2.275,-1.108 -0.7,-0.545 -1.274,-1.284 -1.721,-2.217 -0.447,-0.933 -0.671,-2.158 -0.671,-3.675 V 173.333 H 159 v -3.325 h 5.658 v -7.7 h 3.967 v 7.7 h 7.7 z"
   style="fill-rule:nonzero" />
            <path
   id="path66"
   d="m 194.117,173.333 h -7.7 v 15.925 c 0,1.011 0.097,1.847 0.291,2.508 0.195,0.661 0.477,1.176 0.846,1.546 0.37,0.369 0.807,0.622 1.313,0.758 0.505,0.136 1.05,0.204 1.633,0.204 0.544,0 1.118,-0.078 1.721,-0.233 0.603,-0.156 1.176,-0.37 1.721,-0.642 l 0.175,3.442 c -0.7,0.272 -1.429,0.476 -2.188,0.612 -0.758,0.137 -1.585,0.205 -2.479,0.205 -0.739,0 -1.517,-0.098 -2.333,-0.292 -0.817,-0.195 -1.575,-0.564 -2.275,-1.108 -0.7,-0.545 -1.274,-1.284 -1.721,-2.217 -0.447,-0.933 -0.671,-2.158 -0.671,-3.675 v -17.033 h -5.658 v -3.325 h 5.658 v -7.7 h 3.967 v 7.7 h 7.7 z"
   style="fill-rule:nonzero" />
            <path
   id="path68"
   d="m 221.125,181.558 c -0.117,-2.567 -0.943,-4.696 -2.479,-6.388 -1.536,-1.692 -3.724,-2.537 -6.563,-2.537 -1.322,0 -2.547,0.243 -3.675,0.729 -1.127,0.486 -2.119,1.147 -2.975,1.983 -0.855,0.836 -1.536,1.789 -2.041,2.858 -0.506,1.07 -0.798,2.188 -0.875,3.355 z m 4.025,1.283 v 0.875 c 0,0.311 -0.019,0.642 -0.058,0.992 h -22.634 c 0.039,1.361 0.311,2.644 0.817,3.85 0.506,1.205 1.206,2.255 2.1,3.15 0.894,0.894 1.944,1.604 3.15,2.129 1.206,0.525 2.508,0.787 3.908,0.787 2.061,0 3.841,-0.476 5.338,-1.429 1.497,-0.953 2.635,-2.051 3.412,-3.296 l 2.975,2.334 c -1.633,2.061 -3.432,3.538 -5.395,4.433 -1.964,0.894 -4.074,1.342 -6.33,1.342 -2.022,0 -3.898,-0.36 -5.629,-1.08 -1.73,-0.719 -3.218,-1.72 -4.462,-3.004 -1.245,-1.283 -2.227,-2.8 -2.946,-4.55 -0.72,-1.75 -1.079,-3.655 -1.079,-5.716 0,-2.062 0.35,-3.967 1.05,-5.717 0.7,-1.75 1.672,-3.267 2.916,-4.55 1.245,-1.283 2.703,-2.285 4.375,-3.004 1.673,-0.72 3.481,-1.079 5.425,-1.079 2.139,0 4.025,0.359 5.659,1.079 1.633,0.719 2.994,1.691 4.083,2.916 1.089,1.225 1.915,2.655 2.479,4.288 0.564,1.633 0.846,3.383 0.846,5.25 z"
   style="fill-rule:nonzero" />
            <path
   id="path70"
   d="m 233.667,176.016 c 0,-0.739 -0.02,-1.692 -0.059,-2.858 -0.039,-1.167 -0.097,-2.217 -0.175,-3.15 h 3.792 c 0.078,0.738 0.136,1.555 0.175,2.45 0.039,0.894 0.058,1.633 0.058,2.216 h 0.117 c 0.778,-1.594 1.944,-2.887 3.5,-3.879 1.556,-0.992 3.306,-1.487 5.25,-1.487 0.506,0 0.963,0.019 1.371,0.058 0.408,0.039 0.826,0.117 1.254,0.233 l -0.525,3.734 c -0.233,-0.078 -0.622,-0.156 -1.167,-0.234 -0.544,-0.078 -1.089,-0.116 -1.633,-0.116 -1.05,0 -2.061,0.194 -3.033,0.583 -0.973,0.389 -1.818,1.001 -2.538,1.837 -0.719,0.837 -1.303,1.906 -1.75,3.209 -0.447,1.303 -0.671,2.868 -0.671,4.696 v 14 h -3.966 z"
   style="fill-rule:nonzero" />
            <path
   id="path72"
   d="m 269.192,176.483 c -0.584,-1.128 -1.468,-2.052 -2.654,-2.771 -1.187,-0.72 -2.538,-1.079 -4.055,-1.079 -0.7,0 -1.4,0.077 -2.1,0.233 -0.7,0.155 -1.322,0.408 -1.866,0.758 -0.545,0.35 -0.982,0.797 -1.313,1.342 -0.33,0.544 -0.496,1.186 -0.496,1.925 0,1.283 0.525,2.265 1.575,2.946 1.05,0.68 2.703,1.254 4.959,1.721 3.227,0.661 5.609,1.623 7.146,2.887 1.536,1.264 2.304,2.965 2.304,5.104 0,1.556 -0.302,2.868 -0.904,3.938 -0.603,1.069 -1.391,1.944 -2.363,2.625 -0.972,0.68 -2.071,1.166 -3.296,1.458 -1.225,0.292 -2.46,0.438 -3.704,0.438 -2.061,0 -4.064,-0.428 -6.008,-1.284 -1.945,-0.855 -3.539,-2.197 -4.784,-4.025 l 3.15,-2.333 c 0.7,1.205 1.731,2.217 3.092,3.033 1.361,0.817 2.858,1.225 4.492,1.225 0.855,0 1.672,-0.078 2.45,-0.233 0.777,-0.156 1.458,-0.428 2.041,-0.817 0.584,-0.389 1.05,-0.884 1.4,-1.487 0.35,-0.603 0.525,-1.352 0.525,-2.246 0,-1.439 -0.69,-2.518 -2.07,-3.238 -1.381,-0.719 -3.374,-1.39 -5.98,-2.012 -0.816,-0.195 -1.682,-0.438 -2.595,-0.729 -0.914,-0.292 -1.76,-0.72 -2.538,-1.284 -0.778,-0.563 -1.419,-1.273 -1.925,-2.129 -0.506,-0.855 -0.758,-1.925 -0.758,-3.208 0,-1.4 0.272,-2.596 0.816,-3.588 0.545,-0.991 1.274,-1.808 2.188,-2.45 0.914,-0.641 1.954,-1.118 3.121,-1.429 1.166,-0.311 2.372,-0.466 3.616,-0.466 1.906,0 3.753,0.427 5.542,1.283 1.789,0.855 3.131,2.061 4.025,3.617 z"
   style="fill-rule:nonzero" />
        </g>
        <g
   id="rect76"
   transform="matrix(1.28877,0,0,1.30682,-49.42,-27.6528)">
            <rect
   x="70.117996"
   y="90.126999"
   width="219.76401"
   height="134.258"
   style="fill:none;stroke:#000000;stroke-width:2.08px"
   id="rect869" />
        </g>
    </g></g>
    <g
   id="Outputs"
   transform="matrix(0.15582594,0,0,0.15919895,0.23241713,0.93079107)">
        <g
   transform="translate(19.9605,16.6698)"
   id="g885">
            <g
   id="path79"
   transform="matrix(1.19853,0,0,1.19853,-55.6961,-240.052)">
                <path
   d="m 153.746,1249.09 c 0,-2.56 -2.081,-4.64 -4.644,-4.64 H 84.103 c -2.563,0 -4.644,2.08 -4.644,4.64 v 86.77 c 0,2.56 2.081,4.64 4.644,4.64 h 64.999 c 2.563,0 4.644,-2.08 4.644,-4.64 z"
   style="stroke:#000000;stroke-width:2.08px"
   id="path873" />
            </g>
            <g
   id="path81"
   transform="matrix(1.19853,0,0,1.19853,-55.6961,-240.052)">
                <path
   d="m 280.541,1249.07 c 0,-2.55 -2.072,-4.62 -4.623,-4.62 h -64.707 c -2.552,0 -4.623,2.07 -4.623,4.62 v 86.81 c 0,2.55 2.071,4.62 4.623,4.62 h 64.707 c 2.551,0 4.623,-2.07 4.623,-4.62 z"
   style="stroke:#000000;stroke-width:2.08px"
   id="path876" />
            </g>
            <g
   id="path104"
   transform="matrix(1.19853,0,0,1.19853,-55.6961,-240.052)">
                <path
   d="m 280.541,1082.46 c 0,-2.58 -2.097,-4.68 -4.68,-4.68 H 210.35 c -2.583,0 -4.68,2.1 -4.68,4.68 v 86.69 c 0,2.59 2.097,4.68 4.68,4.68 h 65.511 c 2.583,0 4.68,-2.09 4.68,-4.68 z"
   style="stroke:#000000;stroke-width:2.08px"
   id="path879" />
            </g>
            <g
   id="path106"
   transform="matrix(1.19853,0,0,1.19853,-55.6961,-240.052)">
                <path
   d="m 154.163,1082.45 c 0,-2.58 -2.092,-4.67 -4.669,-4.67 H 84.129 c -2.577,0 -4.67,2.09 -4.67,4.67 v 86.71 c 0,2.58 2.093,4.67 4.67,4.67 h 65.365 c 2.577,0 4.669,-2.09 4.669,-4.67 z"
   style="stroke:#000000;stroke-width:2.08px"
   id="path882" />
            </g>
        </g>
        <g
   id="g91"
   transform="matrix(1.26609,0,0,1.26609,-54.3027,-309.327)">
            <path
   id="path83"
   d="m 215.209,1260.58 c 0,-2.48 0.664,-4.41 1.993,-5.81 1.33,-1.4 3.045,-2.11 5.148,-2.11 1.376,0 2.617,0.33 3.723,0.99 1.105,0.66 1.948,1.58 2.528,2.75 0.58,1.18 0.87,2.51 0.87,4.01 0,1.51 -0.306,2.86 -0.916,4.06 -0.61,1.19 -1.475,2.09 -2.594,2.71 -1.119,0.61 -2.326,0.92 -3.621,0.92 -1.404,0 -2.659,-0.34 -3.764,-1.02 -1.106,-0.68 -1.943,-1.6 -2.513,-2.78 -0.57,-1.17 -0.854,-2.41 -0.854,-3.72 z m 2.034,0.03 c 0,1.8 0.483,3.21 1.45,4.25 0.966,1.03 2.178,1.55 3.636,1.55 1.486,0 2.708,-0.52 3.668,-1.57 0.959,-1.04 1.439,-2.52 1.439,-4.44 0,-1.22 -0.205,-2.28 -0.615,-3.18 -0.411,-0.91 -1.011,-1.61 -1.801,-2.11 -0.79,-0.5 -1.677,-0.75 -2.66,-0.75 -1.397,0 -2.599,0.48 -3.606,1.44 -1.007,0.96 -1.511,2.57 -1.511,4.81 z"
   style="fill:#e6e6e6;fill-rule:nonzero" />
            <path
   id="path85"
   d="m 241.8,1252.93 h 1.973 v 8.62 c 0,1.5 -0.169,2.69 -0.509,3.57 -0.339,0.88 -0.951,1.59 -1.836,2.15 -0.885,0.55 -2.046,0.83 -3.484,0.83 -1.397,0 -2.54,-0.24 -3.428,-0.72 -0.888,-0.49 -1.522,-1.18 -1.902,-2.09 -0.38,-0.92 -0.57,-2.16 -0.57,-3.74 v -8.62 h 1.974 v 8.61 c 0,1.29 0.12,2.25 0.361,2.86 0.241,0.61 0.654,1.09 1.241,1.42 0.586,0.33 1.304,0.5 2.151,0.5 1.452,0 2.486,-0.33 3.103,-0.99 0.617,-0.66 0.926,-1.92 0.926,-3.79 z"
   style="fill:#e6e6e6;fill-rule:nonzero" />
            <path
   id="path87"
   d="m 250.853,1267.84 v -13.15 h -4.913 v -1.76 h 11.82 v 1.76 h -4.933 v 13.15 z"
   style="fill:#e6e6e6;fill-rule:nonzero" />
            <path
   id="path89"
   d="m 274.077,1266.08 v 1.76 h -9.857 c -0.014,-0.44 0.058,-0.86 0.213,-1.27 0.251,-0.67 0.653,-1.33 1.206,-1.98 0.553,-0.66 1.351,-1.41 2.396,-2.26 1.62,-1.33 2.716,-2.39 3.285,-3.16 0.57,-0.78 0.855,-1.51 0.855,-2.21 0,-0.72 -0.26,-1.33 -0.778,-1.83 -0.519,-0.5 -1.196,-0.75 -2.03,-0.75 -0.881,0 -1.587,0.27 -2.116,0.79 -0.529,0.53 -0.797,1.27 -0.803,2.2 l -1.882,-0.19 c 0.129,-1.4 0.613,-2.48 1.454,-3.21 0.841,-0.74 1.97,-1.1 3.388,-1.1 1.431,0 2.563,0.39 3.397,1.19 0.835,0.79 1.252,1.77 1.252,2.95 0,0.59 -0.122,1.18 -0.367,1.76 -0.244,0.57 -0.649,1.18 -1.215,1.82 -0.566,0.63 -1.507,1.51 -2.823,2.62 -1.099,0.92 -1.804,1.55 -2.116,1.88 -0.312,0.33 -0.57,0.66 -0.773,0.99 z"
   style="fill:#e6e6e6;fill-rule:nonzero" />
        </g>
        <g
   id="g101"
   transform="matrix(1.26609,0,0,1.26609,-44.2864,-309.327)">
            <path
   id="path93"
   d="m 88.125,1260.58 c 0,-2.48 0.665,-4.41 1.994,-5.81 1.329,-1.4 3.045,-2.11 5.147,-2.11 1.377,0 2.618,0.33 3.724,0.99 1.105,0.66 1.948,1.58 2.527,2.75 0.58,1.18 0.87,2.51 0.87,4.01 0,1.51 -0.305,2.86 -0.915,4.06 -0.611,1.19 -1.475,2.09 -2.594,2.71 -1.119,0.61 -2.326,0.92 -3.622,0.92 -1.404,0 -2.658,-0.34 -3.764,-1.02 -1.105,-0.68 -1.943,-1.6 -2.512,-2.78 -0.57,-1.17 -0.855,-2.41 -0.855,-3.72 z m 2.035,0.03 c 0,1.8 0.483,3.21 1.449,4.25 0.967,1.03 2.179,1.55 3.637,1.55 1.485,0 2.708,-0.52 3.667,-1.57 0.96,-1.04 1.44,-2.52 1.44,-4.44 0,-1.22 -0.205,-2.28 -0.616,-3.18 -0.41,-0.91 -1.01,-1.61 -1.8,-2.11 -0.79,-0.5 -1.677,-0.75 -2.66,-0.75 -1.397,0 -2.599,0.48 -3.607,1.44 -1.007,0.96 -1.51,2.57 -1.51,4.81 z"
   style="fill:#e6e6e6;fill-rule:nonzero" />
            <path
   id="path95"
   d="m 114.716,1252.93 h 1.974 v 8.62 c 0,1.5 -0.17,2.69 -0.509,3.57 -0.339,0.88 -0.951,1.59 -1.836,2.15 -0.885,0.55 -2.046,0.83 -3.484,0.83 -1.397,0 -2.54,-0.24 -3.428,-0.72 -0.889,-0.49 -1.523,-1.18 -1.903,-2.09 -0.379,-0.92 -0.569,-2.16 -0.569,-3.74 v -8.62 h 1.973 v 8.61 c 0,1.29 0.121,2.25 0.361,2.86 0.241,0.61 0.655,1.09 1.241,1.42 0.587,0.33 1.304,0.5 2.152,0.5 1.451,0 2.485,-0.33 3.103,-0.99 0.617,-0.66 0.925,-1.92 0.925,-3.79 z"
   style="fill:#e6e6e6;fill-rule:nonzero" />
            <path
   id="path97"
   d="m 123.77,1267.84 v -13.15 h -4.913 v -1.76 h 11.82 v 1.76 h -4.934 v 13.15 z"
   style="fill:#e6e6e6;fill-rule:nonzero" />
            <path
   id="path99"
   d="m 144.267,1267.84 h -1.831 v -11.67 c -0.44,0.42 -1.019,0.84 -1.734,1.26 -0.715,0.42 -1.358,0.74 -1.928,0.95 v -1.77 c 1.024,-0.48 1.92,-1.06 2.686,-1.75 0.766,-0.69 1.309,-1.35 1.627,-1.99 h 1.18 z"
   style="fill:#e6e6e6;fill-rule:nonzero" />
        </g>
    </g>
    <g
   id="Inputs"
   transform="matrix(0.15582594,0,0,0.15919895,0.23241713,0.93079107)">
        <g
   id="g114"
   transform="matrix(1.26609,0,0,1.26609,-54.3027,-301.528)">
            <rect
   id="rect108"
   x="226.561"
   y="1086.26"
   width="1.973"
   height="14.913"
   style="fill:#e6e6e6" />
            <path
   id="path110"
   d="m 231.993,1101.17 v -14.91 h 2.025 l 7.832,11.71 v -11.71 h 1.893 v 14.91 h -2.025 l -7.833,-11.72 v 11.72 z"
   style="fill:#e6e6e6;fill-rule:nonzero" />
            <path
   id="path112"
   d="m 261.728,1099.41 v 1.76 h -9.858 c -0.013,-0.44 0.058,-0.86 0.214,-1.27 0.251,-0.67 0.653,-1.33 1.205,-1.99 0.553,-0.65 1.352,-1.4 2.396,-2.25 1.621,-1.33 2.716,-2.38 3.286,-3.16 0.57,-0.78 0.854,-1.51 0.854,-2.2 0,-0.73 -0.259,-1.34 -0.778,-1.84 -0.519,-0.5 -1.195,-0.75 -2.029,-0.75 -0.882,0 -1.587,0.27 -2.116,0.8 -0.529,0.52 -0.797,1.26 -0.804,2.19 l -1.882,-0.19 c 0.129,-1.4 0.614,-2.47 1.455,-3.21 0.841,-0.74 1.97,-1.1 3.387,-1.1 1.431,0 2.564,0.39 3.398,1.19 0.834,0.79 1.251,1.77 1.251,2.95 0,0.59 -0.122,1.18 -0.366,1.76 -0.244,0.57 -0.649,1.18 -1.216,1.82 -0.566,0.64 -1.507,1.51 -2.822,2.62 -1.099,0.92 -1.804,1.55 -2.116,1.88 -0.312,0.33 -0.57,0.66 -0.773,0.99 z"
   style="fill:#e6e6e6;fill-rule:nonzero" />
        </g>
        <g
   id="g122"
   transform="matrix(1.26609,0,0,1.26609,-44.2864,-301.528)">
            <rect
   id="rect116"
   x="99.477997"
   y="1086.26"
   width="1.973"
   height="14.913"
   style="fill:#e6e6e6" />
            <path
   id="path118"
   d="m 104.91,1101.17 v -14.91 h 2.024 l 7.833,11.71 v -11.71 h 1.892 v 14.91 h -2.024 l -7.833,-11.72 v 11.72 z"
   style="fill:#e6e6e6;fill-rule:nonzero" />
            <path
   id="path120"
   d="m 131.918,1101.17 h -1.831 v -11.67 c -0.441,0.42 -1.019,0.84 -1.734,1.26 -0.716,0.42 -1.358,0.74 -1.928,0.95 v -1.77 c 1.024,-0.48 1.919,-1.06 2.685,-1.75 0.767,-0.68 1.309,-1.35 1.628,-1.99 h 1.18 z"
   style="fill:#e6e6e6;fill-rule:nonzero" />
        </g>
    </g>
    <g
   id="DeRez"
   transform="matrix(0.15582594,0,0,0.15919895,0.92629876,6.9632911)">
        <path
   id="path125"
   d="m 180,795.95 c 42.516,0 77.034,34.518 77.034,77.035 0,42.516 -34.518,77.034 -77.034,77.034 -5.931,0 -11.707,-0.672 -17.255,-1.943 -3.238,-0.742 -6.398,-1.689 -9.466,-2.825 -29.362,-10.874 -50.313,-39.143 -50.313,-72.266 0,-42.517 34.518,-77.035 77.034,-77.035 z"
   style="fill:none;stroke:#000000;stroke-width:4.17px;stroke-linejoin:miter;stroke-miterlimit:1;stroke-dasharray:0, 8.33, 0, 0;stroke-dashoffset:4.17" />
        <rect
   id="rect127"
   x="100.066"
   y="923.07599"
   width="159.867"
   height="47.738998"
   style="fill:#e6e6e6" />
        <g
   id="g139"
   transform="matrix(1.69794,0,0,1.69794,-125.629,-500.789)">
            <path
   id="path129"
   d="m 130.7,741.388 v -23.861 h 8.219 c 1.856,0 3.272,0.114 4.248,0.342 1.368,0.315 2.534,0.885 3.5,1.709 1.258,1.064 2.2,2.423 2.824,4.077 0.623,1.655 0.935,3.546 0.935,5.673 0,1.812 -0.211,3.418 -0.634,4.817 -0.424,1.4 -0.966,2.558 -1.628,3.475 -0.662,0.917 -1.386,1.639 -2.173,2.165 -0.786,0.526 -1.736,0.925 -2.848,1.196 -1.112,0.272 -2.39,0.407 -3.833,0.407 z m 3.157,-2.816 h 5.095 c 1.573,0 2.807,-0.146 3.703,-0.439 0.895,-0.293 1.608,-0.705 2.14,-1.237 0.749,-0.749 1.332,-1.755 1.75,-3.019 0.417,-1.264 0.626,-2.797 0.626,-4.598 0,-2.496 -0.409,-4.414 -1.229,-5.754 -0.819,-1.34 -1.814,-2.238 -2.986,-2.693 -0.847,-0.326 -2.208,-0.489 -4.086,-0.489 h -5.013 z"
   style="fill-rule:nonzero" />
            <path
   id="path131"
   d="m 166.23,735.822 3.028,0.374 c -0.478,1.769 -1.362,3.141 -2.653,4.118 -1.291,0.977 -2.941,1.465 -4.948,1.465 -2.528,0 -4.533,-0.779 -6.014,-2.336 -1.481,-1.557 -2.222,-3.741 -2.222,-6.551 0,-2.908 0.749,-5.165 2.246,-6.771 1.498,-1.606 3.44,-2.409 5.827,-2.409 2.311,0 4.199,0.787 5.664,2.36 1.465,1.574 2.197,3.787 2.197,6.641 0,0.174 -0.005,0.434 -0.016,0.781 h -12.89 c 0.108,1.899 0.645,3.353 1.611,4.362 0.966,1.009 2.17,1.514 3.613,1.514 1.074,0 1.991,-0.282 2.751,-0.846 0.759,-0.565 1.362,-1.465 1.806,-2.702 z m -9.619,-4.737 h 9.652 c -0.13,-1.454 -0.499,-2.544 -1.107,-3.271 -0.933,-1.129 -2.143,-1.693 -3.629,-1.693 -1.346,0 -2.477,0.451 -3.394,1.351 -0.917,0.901 -1.424,2.105 -1.522,3.613 z"
   style="fill-rule:nonzero" />
            <path
   id="path133"
   d="m 173.359,741.388 v -23.861 h 10.58 c 2.127,0 3.743,0.215 4.85,0.643 1.107,0.429 1.991,1.186 2.653,2.271 0.662,1.085 0.993,2.284 0.993,3.597 0,1.693 -0.548,3.119 -1.644,4.281 -1.096,1.161 -2.789,1.898 -5.078,2.213 0.835,0.402 1.47,0.798 1.904,1.188 0.922,0.847 1.796,1.904 2.621,3.174 l 4.15,6.494 h -3.971 l -3.158,-4.964 c -0.922,-1.432 -1.682,-2.528 -2.279,-3.288 -0.596,-0.759 -1.131,-1.291 -1.603,-1.595 -0.472,-0.304 -0.952,-0.515 -1.44,-0.635 -0.358,-0.076 -0.944,-0.114 -1.758,-0.114 h -3.662 v 10.596 z m 3.158,-13.33 h 6.787 c 1.443,0 2.572,-0.149 3.385,-0.448 0.814,-0.298 1.433,-0.775 1.856,-1.432 0.423,-0.656 0.635,-1.37 0.635,-2.14 0,-1.129 -0.41,-2.056 -1.229,-2.783 -0.819,-0.727 -2.113,-1.091 -3.882,-1.091 h -7.552 z"
   style="fill-rule:nonzero" />
            <path
   id="path135"
   d="m 208.841,735.822 3.027,0.374 c -0.477,1.769 -1.361,3.141 -2.653,4.118 -1.291,0.977 -2.94,1.465 -4.947,1.465 -2.529,0 -4.533,-0.779 -6.014,-2.336 -1.482,-1.557 -2.222,-3.741 -2.222,-6.551 0,-2.908 0.749,-5.165 2.246,-6.771 1.497,-1.606 3.44,-2.409 5.827,-2.409 2.311,0 4.199,0.787 5.664,2.36 1.465,1.574 2.197,3.787 2.197,6.641 0,0.174 -0.005,0.434 -0.016,0.781 h -12.891 c 0.109,1.899 0.646,3.353 1.612,4.362 0.965,1.009 2.17,1.514 3.613,1.514 1.074,0 1.991,-0.282 2.751,-0.846 0.759,-0.565 1.361,-1.465 1.806,-2.702 z m -9.619,-4.737 h 9.652 c -0.131,-1.454 -0.499,-2.544 -1.107,-3.271 -0.933,-1.129 -2.143,-1.693 -3.63,-1.693 -1.345,0 -2.476,0.451 -3.393,1.351 -0.917,0.901 -1.424,2.105 -1.522,3.613 z"
   style="fill-rule:nonzero" />
            <path
   id="path137"
   d="m 214.001,741.388 v -2.376 l 11.002,-12.63 c -1.248,0.065 -2.349,0.097 -3.304,0.097 h -7.047 v -2.376 h 14.127 v 1.937 l -9.358,10.97 -1.807,2.002 c 1.313,-0.098 2.544,-0.147 3.695,-0.147 h 7.991 v 2.523 z"
   style="fill-rule:nonzero" />
        </g>
    </g>
    <g
   id="On-Off-Switch"
   transform="matrix(0.15582594,0,0,0.15919895,0.92632993,-4.0962922)">
        <g
   id="path142"
   transform="translate(0,16.6698)">
            <path
   d="m 172.22,529.452 c 0,-2.822 0.29,-5.092 0.871,-6.812 0.58,-1.72 1.443,-3.046 2.588,-3.979 1.144,-0.934 2.585,-1.4 4.321,-1.4 1.28,0 2.403,0.258 3.369,0.773 0.966,0.515 1.763,1.259 2.393,2.23 0.629,0.971 1.123,2.154 1.481,3.548 0.358,1.394 0.537,3.274 0.537,5.64 0,2.799 -0.288,5.059 -0.863,6.779 -0.575,1.719 -1.435,3.049 -2.579,3.987 -1.145,0.939 -2.591,1.408 -4.338,1.408 -2.3,0 -4.107,-0.825 -5.42,-2.474 -1.573,-1.985 -2.36,-5.219 -2.36,-9.7 z m 3.011,0 c 0,3.917 0.459,6.524 1.375,7.82 0.917,1.297 2.049,1.945 3.394,1.945 1.345,0 2.477,-0.651 3.394,-1.953 0.916,-1.302 1.375,-3.906 1.375,-7.812 0,-3.928 -0.459,-6.538 -1.375,-7.829 -0.917,-1.291 -2.059,-1.937 -3.427,-1.937 -1.345,0 -2.419,0.57 -3.222,1.709 -1.009,1.454 -1.514,4.14 -1.514,8.057 z"
   style="fill-rule:nonzero"
   id="path916" />
        </g>
        <g
   id="rect144"
   transform="translate(0,-4.16744)">
            <rect
   x="178.42101"
   y="374.72601"
   width="3.158"
   height="23.861"
   id="rect919" />
        </g>
    </g>
    
    
    
    
    
    
<g
   inkscape:groupmode="layer"
   id="layer1"
   inkscape:label="components"
   style="display:none"><circle
     style="clip-rule:evenodd;display:inline;fill:#00ff00;fill-opacity:1;fill-rule:evenodd;stroke-width:0.502708;stroke-linecap:round;stroke-linejoin:round;stroke-miterlimit:1.5"
     id="input_2"
     cx="40.123234"
     cy="183.00255"
     r="5.0969043"
     inkscape:label="input_2" /><circle
     style="clip-rule:evenodd;display:inline;fill:#0000ff;fill-opacity:1;fill-rule:evenodd;stroke-width:0.502708;stroke-linecap:round;stroke-linejoin:round;stroke-miterlimit:1.5"
     id="output_2"
     cx="40.183517"
     cy="214.55038"
     r="5.0969043"
     inkscape:label="output_2" /><circle
     style="clip-rule:evenodd;display:inline;fill:#0000ff;fill-opacity:1;fill-rule:evenodd;stroke-width:0.502708;stroke-linecap:round;stroke-linejoin:round;stroke-miterlimit:1.5"
     id="output_1"
     cx="16.402454"
     cy="214.71971"
     r="5.0969043"
     inkscape:label="output_1" /><circle
     style="clip-rule:evenodd;display:inline;fill:#ff0000;fill-rule:evenodd;stroke-width:0.502708;stroke-linecap:round;stroke-linejoin:round;stroke-miterlimit:1.5"
     id="enabled"
     cx="28.974998"
     cy="69.543991"
     r="5.0969043"
     inkscape:label="enabled" /><circle
     style="clip-rule:evenodd;display:inline;fill:#ff0000;fill-rule:evenodd;stroke-width:0.502708;stroke-linecap:round;stroke-linejoin:round;stroke-miterlimit:1.5"
     id="derez"
     cx="28.975"
     cy="145.75883"
     r="5.0969043"
     inkscape:label="derez" /><circle
     style="clip-rule:evenodd;display:inline;fill:#00ff00;fill-opacity:1;fill-rule:evenodd;stroke-width:0.502708;stroke-linecap:round;stroke-linejoin:round;stroke-miterlimit:1.5"
     id="input_1"
     cx="16.364897"
     cy="183.00255"
     r="5.0969043"
     inkscape:label="input_1" /></g><g
   id="g1029"
   transform="matrix(0.30997287,0,0,0.31668253,38.133742,73.591238)">
        
        
    </g></svg>
