<?xml version="1.0" encoding="UTF-8" standalone="no"?>
<svg
   xmlns:serif="http://www.serif.com/"
   xmlns:dc="http://purl.org/dc/elements/1.1/"
   xmlns:cc="http://creativecommons.org/ns#"
   xmlns:rdf="http://www.w3.org/1999/02/22-rdf-syntax-ns#"
   xmlns:svg="http://www.w3.org/2000/svg"
   xmlns="http://www.w3.org/2000/svg"
   xmlns:sodipodi="http://sodipodi.sourceforge.net/DTD/sodipodi-0.dtd"
   xmlns:inkscape="http://www.inkscape.org/namespaces/inkscape"
   width="100%"
   height="100%"
   viewBox="0 0 87 365"
   version="1.1"
   xml:space="preserve"
   style="fill-rule:evenodd;clip-rule:evenodd;stroke-linecap:round;stroke-linejoin:round;stroke-miterlimit:1.5;"
   id="svg914"
   sodipodi:docname="rawGlitters.svg"
   inkscape:version="1.0.1 (c497b03c, 2020-09-10)"><metadata
   id="metadata920"><rdf:RDF><cc:Work
       rdf:about=""><dc:format>image/svg+xml</dc:format><dc:type
         rdf:resource="http://purl.org/dc/dcmitype/StillImage" /></cc:Work></rdf:RDF></metadata><defs
   id="defs918" /><sodipodi:namedview
   pagecolor="#ffffff"
   bordercolor="#666666"
   borderopacity="1"
   objecttolerance="10"
   gridtolerance="10"
   guidetolerance="10"
   inkscape:pageopacity="0"
   inkscape:pageshadow="2"
   inkscape:window-width="2292"
   inkscape:window-height="1387"
   id="namedview916"
   showgrid="false"
   inkscape:zoom="2.7616438"
   inkscape:cx="43.5"
   inkscape:cy="182.5"
   inkscape:window-x="0"
   inkscape:window-y="25"
   inkscape:window-maximized="0"
   inkscape:current-layer="svg914"
   inkscape:document-rotation="0" />
    <g
   id="Background"
   transform="matrix(0.239955,0,0,0.239955,0,0)">
        <rect
   x="0"
   y="0.257"
   width="359.746"
   height="1517.36"
   style="fill:rgb(230,230,230);"
   id="rect833" />
    </g>
    <g
   id="Logo---Copyright"
   serif:id="Logo &amp; Copyright"
   transform="matrix(0.239955,0,0,0.239955,0,0)">
        <g
   id="inspired-by-airwindows"
   serif:id="inspired by airwindows">
            <path
   id="path11"
   d="M97.041,1446.58L97.041,1444.9L98.506,1444.9L98.506,1446.58L97.041,1446.58ZM97.041,1456.83L97.041,1448.18L98.506,1448.18L98.506,1456.83L97.041,1456.83Z"
   style="fill-rule:nonzero;" />
            <path
   id="path13"
   d="M100.736,1456.83L100.736,1448.19L102.054,1448.19L102.054,1449.42C102.689,1448.47 103.606,1447.99 104.805,1447.99C105.326,1447.99 105.804,1448.09 106.241,1448.27C106.678,1448.46 107.005,1448.71 107.222,1449.01C107.439,1449.31 107.591,1449.67 107.677,1450.09C107.732,1450.36 107.759,1450.84 107.759,1451.52L107.759,1456.83L106.294,1456.83L106.294,1451.57C106.294,1450.98 106.237,1450.53 106.123,1450.23C106.009,1449.94 105.807,1449.7 105.517,1449.53C105.227,1449.35 104.886,1449.26 104.495,1449.26C103.872,1449.26 103.333,1449.46 102.88,1449.86C102.427,1450.25 102.201,1451 102.201,1452.11L102.201,1456.83L100.736,1456.83Z"
   style="fill-rule:nonzero;" />
            <path
   id="path15"
   d="M109.419,1454.25L110.868,1454.02C110.949,1454.6 111.175,1455.05 111.547,1455.36C111.919,1455.67 112.438,1455.82 113.105,1455.82C113.778,1455.82 114.277,1455.68 114.603,1455.41C114.928,1455.14 115.091,1454.81 115.091,1454.45C115.091,1454.12 114.947,1453.85 114.66,1453.66C114.459,1453.53 113.96,1453.37 113.162,1453.17C112.088,1452.9 111.344,1452.66 110.929,1452.46C110.514,1452.27 110.199,1451.99 109.985,1451.64C109.77,1451.29 109.663,1450.91 109.663,1450.48C109.663,1450.1 109.751,1449.74 109.928,1449.41C110.104,1449.08 110.344,1448.81 110.648,1448.59C110.876,1448.43 111.186,1448.28 111.58,1448.17C111.973,1448.05 112.395,1447.99 112.845,1447.99C113.523,1447.99 114.119,1448.09 114.631,1448.29C115.144,1448.48 115.522,1448.75 115.767,1449.08C116.011,1449.41 116.179,1449.86 116.271,1450.42L114.839,1450.61C114.774,1450.17 114.585,1449.82 114.273,1449.57C113.961,1449.32 113.521,1449.2 112.951,1449.2C112.278,1449.2 111.798,1449.31 111.51,1449.53C111.223,1449.75 111.079,1450.01 111.079,1450.31C111.079,1450.5 111.139,1450.67 111.258,1450.82C111.377,1450.98 111.565,1451.11 111.82,1451.21C111.966,1451.27 112.397,1451.39 113.114,1451.59C114.15,1451.87 114.873,1452.09 115.282,1452.27C115.692,1452.44 116.013,1452.7 116.247,1453.04C116.48,1453.37 116.597,1453.79 116.597,1454.29C116.597,1454.78 116.454,1455.24 116.169,1455.67C115.885,1456.1 115.474,1456.43 114.937,1456.67C114.399,1456.91 113.792,1457.03 113.114,1457.03C111.991,1457.03 111.135,1456.79 110.546,1456.33C109.957,1455.86 109.582,1455.17 109.419,1454.25Z"
   style="fill-rule:nonzero;" />
            <path
   id="path17"
   d="M118.338,1460.14L118.338,1448.18L119.673,1448.18L119.673,1449.31C119.988,1448.87 120.343,1448.54 120.739,1448.32C121.135,1448.1 121.615,1447.99 122.179,1447.99C122.917,1447.99 123.568,1448.18 124.132,1448.56C124.697,1448.94 125.123,1449.48 125.41,1450.17C125.698,1450.86 125.841,1451.62 125.841,1452.44C125.841,1453.33 125.683,1454.12 125.365,1454.83C125.048,1455.54 124.587,1456.08 123.982,1456.46C123.377,1456.84 122.741,1457.02 122.074,1457.02C121.585,1457.02 121.147,1456.92 120.759,1456.71C120.371,1456.51 120.053,1456.25 119.803,1455.93L119.803,1460.14L118.338,1460.14ZM119.665,1452.56C119.665,1453.67 119.89,1454.49 120.34,1455.02C120.79,1455.55 121.336,1455.82 121.976,1455.82C122.627,1455.82 123.184,1455.54 123.648,1454.99C124.112,1454.44 124.344,1453.59 124.344,1452.43C124.344,1451.33 124.118,1450.51 123.665,1449.96C123.212,1449.41 122.67,1449.14 122.041,1449.14C121.417,1449.14 120.865,1449.43 120.385,1450.01C119.905,1450.6 119.665,1451.44 119.665,1452.56Z"
   style="fill-rule:nonzero;" />
            <path
   id="path19"
   d="M127.616,1446.58L127.616,1444.9L129.08,1444.9L129.08,1446.58L127.616,1446.58ZM127.616,1456.83L127.616,1448.18L129.08,1448.18L129.08,1456.83L127.616,1456.83Z"
   style="fill-rule:nonzero;" />
            <path
   id="path21"
   d="M131.294,1456.83L131.294,1448.19L132.612,1448.19L132.612,1449.5C132.949,1448.88 133.259,1448.48 133.544,1448.29C133.829,1448.09 134.142,1447.99 134.484,1447.99C134.978,1447.99 135.48,1448.15 135.99,1448.46L135.485,1449.82C135.127,1449.61 134.769,1449.51 134.411,1449.51C134.091,1449.51 133.803,1449.6 133.548,1449.8C133.293,1449.99 133.111,1450.25 133.003,1450.6C132.84,1451.12 132.759,1451.69 132.759,1452.31L132.759,1456.83L131.294,1456.83Z"
   style="fill-rule:nonzero;" />
            <path
   id="path23"
   d="M142.777,1454.04L144.29,1454.23C144.052,1455.11 143.609,1455.8 142.964,1456.29C142.318,1456.77 141.494,1457.02 140.49,1457.02C139.226,1457.02 138.223,1456.63 137.483,1455.85C136.742,1455.07 136.372,1453.98 136.372,1452.58C136.372,1451.12 136.746,1449.99 137.495,1449.19C138.244,1448.39 139.215,1447.99 140.409,1447.99C141.564,1447.99 142.508,1448.38 143.241,1449.16C143.973,1449.95 144.339,1451.06 144.339,1452.49C144.339,1452.57 144.336,1452.7 144.331,1452.88L137.886,1452.88C137.94,1453.83 138.209,1454.55 138.691,1455.06C139.174,1455.56 139.776,1455.81 140.498,1455.81C141.035,1455.81 141.494,1455.67 141.873,1455.39C142.253,1455.11 142.554,1454.66 142.777,1454.04ZM137.967,1451.67L142.793,1451.67C142.728,1450.94 142.543,1450.4 142.24,1450.04C141.773,1449.47 141.168,1449.19 140.425,1449.19C139.752,1449.19 139.186,1449.41 138.728,1449.87C138.27,1450.32 138.016,1450.92 137.967,1451.67Z"
   style="fill-rule:nonzero;" />
            <path
   id="path25"
   d="M151.737,1456.83L151.737,1455.74C151.189,1456.6 150.383,1457.03 149.32,1457.03C148.631,1457.03 147.997,1456.84 147.419,1456.46C146.842,1456.08 146.394,1455.55 146.077,1454.87C145.759,1454.18 145.601,1453.4 145.601,1452.52C145.601,1451.65 145.744,1450.87 146.032,1450.17C146.319,1449.47 146.751,1448.93 147.326,1448.55C147.901,1448.18 148.544,1447.99 149.255,1447.99C149.775,1447.99 150.239,1448.1 150.646,1448.32C151.053,1448.54 151.384,1448.83 151.639,1449.18L151.639,1444.9L153.096,1444.9L153.096,1456.83L151.737,1456.83ZM147.106,1452.52C147.106,1453.62 147.339,1454.45 147.806,1455C148.273,1455.55 148.823,1455.82 149.458,1455.82C150.098,1455.82 150.642,1455.56 151.09,1455.04C151.537,1454.51 151.761,1453.71 151.761,1452.64C151.761,1451.46 151.533,1450.59 151.077,1450.04C150.622,1449.48 150.06,1449.2 149.393,1449.2C148.742,1449.2 148.198,1449.47 147.761,1450C147.324,1450.53 147.106,1451.37 147.106,1452.52Z"
   style="fill-rule:nonzero;" />
            <path
   id="path27"
   d="M161.38,1456.83L160.021,1456.83L160.021,1444.9L161.486,1444.9L161.486,1449.16C162.104,1448.38 162.894,1447.99 163.854,1447.99C164.386,1447.99 164.889,1448.1 165.364,1448.31C165.838,1448.53 166.229,1448.83 166.536,1449.22C166.842,1449.61 167.082,1450.07 167.256,1450.62C167.429,1451.17 167.516,1451.76 167.516,1452.38C167.516,1453.86 167.15,1455 166.418,1455.81C165.685,1456.62 164.806,1457.03 163.781,1457.03C162.761,1457.03 161.961,1456.6 161.38,1455.75L161.38,1456.83ZM161.364,1452.44C161.364,1453.48 161.505,1454.23 161.787,1454.69C162.248,1455.44 162.872,1455.82 163.659,1455.82C164.299,1455.82 164.852,1455.54 165.319,1454.99C165.786,1454.43 166.019,1453.6 166.019,1452.5C166.019,1451.37 165.795,1450.54 165.347,1450C164.9,1449.46 164.359,1449.2 163.724,1449.2C163.084,1449.2 162.53,1449.48 162.064,1450.03C161.597,1450.59 161.364,1451.39 161.364,1452.44Z"
   style="fill-rule:nonzero;" />
            <path
   id="path29"
   d="M169.233,1460.15L169.071,1458.78C169.391,1458.86 169.67,1458.9 169.909,1458.9C170.234,1458.9 170.495,1458.85 170.69,1458.74C170.885,1458.63 171.045,1458.48 171.17,1458.29C171.262,1458.14 171.412,1457.78 171.618,1457.2C171.645,1457.12 171.688,1457 171.748,1456.84L168.468,1448.18L170.047,1448.18L171.846,1453.18C172.079,1453.82 172.288,1454.49 172.472,1455.19C172.641,1454.51 172.841,1453.86 173.075,1453.22L174.922,1448.18L176.387,1448.18L173.099,1456.97C172.746,1457.92 172.472,1458.57 172.277,1458.93C172.017,1459.41 171.718,1459.77 171.382,1459.99C171.045,1460.22 170.644,1460.33 170.177,1460.33C169.895,1460.33 169.581,1460.27 169.233,1460.15Z"
   style="fill-rule:nonzero;" />
            <path
   id="path31"
   d="M187.902,1455.76C187.359,1456.22 186.837,1456.55 186.335,1456.74C185.834,1456.93 185.295,1457.02 184.72,1457.02C183.771,1457.02 183.041,1456.79 182.531,1456.33C182.021,1455.86 181.766,1455.27 181.766,1454.55C181.766,1454.12 181.862,1453.74 182.055,1453.39C182.247,1453.04 182.5,1452.76 182.812,1452.55C183.124,1452.33 183.475,1452.17 183.866,1452.07C184.153,1451.99 184.587,1451.92 185.168,1451.85C186.35,1451.7 187.221,1451.54 187.78,1451.34C187.785,1451.14 187.788,1451.01 187.788,1450.96C187.788,1450.36 187.65,1449.94 187.373,1449.7C186.999,1449.37 186.443,1449.2 185.705,1449.2C185.016,1449.2 184.507,1449.32 184.179,1449.56C183.851,1449.8 183.608,1450.23 183.451,1450.85L182.018,1450.65C182.148,1450.04 182.363,1449.54 182.661,1449.16C182.96,1448.79 183.391,1448.5 183.955,1448.29C184.519,1448.09 185.173,1447.99 185.916,1447.99C186.654,1447.99 187.254,1448.08 187.715,1448.25C188.176,1448.42 188.515,1448.64 188.732,1448.9C188.949,1449.17 189.101,1449.5 189.188,1449.9C189.237,1450.15 189.261,1450.6 189.261,1451.25L189.261,1453.2C189.261,1454.57 189.292,1455.43 189.355,1455.79C189.417,1456.15 189.54,1456.5 189.725,1456.83L188.195,1456.83C188.043,1456.52 187.945,1456.17 187.902,1455.76ZM187.78,1452.49C187.248,1452.7 186.451,1452.89 185.387,1453.04C184.785,1453.13 184.359,1453.23 184.11,1453.34C183.86,1453.44 183.668,1453.6 183.532,1453.81C183.396,1454.02 183.328,1454.25 183.328,1454.51C183.328,1454.9 183.476,1455.22 183.772,1455.48C184.068,1455.74 184.5,1455.87 185.07,1455.87C185.634,1455.87 186.136,1455.75 186.576,1455.5C187.015,1455.26 187.338,1454.92 187.544,1454.49C187.701,1454.16 187.78,1453.67 187.78,1453.03L187.78,1452.49Z"
   style="fill-rule:nonzero;" />
            <path
   id="path33"
   d="M191.54,1446.58L191.54,1444.9L193.005,1444.9L193.005,1446.58L191.54,1446.58ZM191.54,1456.83L191.54,1448.18L193.005,1448.18L193.005,1456.83L191.54,1456.83Z"
   style="fill-rule:nonzero;" />
            <path
   id="path35"
   d="M195.218,1456.83L195.218,1448.19L196.536,1448.19L196.536,1449.5C196.873,1448.88 197.183,1448.48 197.468,1448.29C197.753,1448.09 198.066,1447.99 198.408,1447.99C198.902,1447.99 199.404,1448.15 199.914,1448.46L199.409,1449.82C199.051,1449.61 198.693,1449.51 198.335,1449.51C198.015,1449.51 197.727,1449.6 197.472,1449.8C197.217,1449.99 197.036,1450.25 196.927,1450.6C196.764,1451.12 196.683,1451.69 196.683,1452.31L196.683,1456.83L195.218,1456.83Z"
   style="fill-rule:nonzero;" />
            <path
   id="path37"
   d="M202.38,1456.83L199.735,1448.19L201.248,1448.19L202.624,1453.18L203.136,1455.03C203.158,1454.94 203.307,1454.35 203.584,1453.25L204.959,1448.19L206.465,1448.19L207.759,1453.2L208.19,1454.85L208.687,1453.18L210.168,1448.19L211.592,1448.19L208.89,1456.83L207.368,1456.83L205.993,1451.65L205.659,1450.18L203.91,1456.83L202.38,1456.83Z"
   style="fill-rule:nonzero;" />
            <path
   id="path39"
   d="M212.829,1446.58L212.829,1444.9L214.294,1444.9L214.294,1446.58L212.829,1446.58ZM212.829,1456.83L212.829,1448.18L214.294,1448.18L214.294,1456.83L212.829,1456.83Z"
   style="fill-rule:nonzero;" />
            <path
   id="path41"
   d="M216.523,1456.83L216.523,1448.19L217.842,1448.19L217.842,1449.42C218.477,1448.47 219.393,1447.99 220.592,1447.99C221.113,1447.99 221.592,1448.09 222.029,1448.27C222.466,1448.46 222.792,1448.71 223.009,1449.01C223.226,1449.31 223.378,1449.67 223.465,1450.09C223.519,1450.36 223.547,1450.84 223.547,1451.52L223.547,1456.83L222.082,1456.83L222.082,1451.57C222.082,1450.98 222.025,1450.53 221.911,1450.23C221.797,1449.94 221.595,1449.7 221.305,1449.53C221.014,1449.35 220.674,1449.26 220.283,1449.26C219.659,1449.26 219.121,1449.46 218.668,1449.86C218.215,1450.25 217.988,1451 217.988,1452.11L217.988,1456.83L216.523,1456.83Z"
   style="fill-rule:nonzero;" />
            <path
   id="path43"
   d="M231.4,1456.83L231.4,1455.74C230.852,1456.6 230.046,1457.03 228.983,1457.03C228.294,1457.03 227.66,1456.84 227.083,1456.46C226.505,1456.08 226.057,1455.55 225.74,1454.87C225.422,1454.18 225.264,1453.4 225.264,1452.52C225.264,1451.65 225.407,1450.87 225.695,1450.17C225.983,1449.47 226.414,1448.93 226.989,1448.55C227.564,1448.18 228.207,1447.99 228.918,1447.99C229.438,1447.99 229.902,1448.1 230.309,1448.32C230.716,1448.54 231.047,1448.83 231.302,1449.18L231.302,1444.9L232.759,1444.9L232.759,1456.83L231.4,1456.83ZM226.769,1452.52C226.769,1453.62 227.002,1454.45 227.469,1455C227.936,1455.55 228.486,1455.82 229.121,1455.82C229.761,1455.82 230.305,1455.56 230.753,1455.04C231.2,1454.51 231.424,1453.71 231.424,1452.64C231.424,1451.46 231.196,1450.59 230.741,1450.04C230.285,1449.48 229.723,1449.2 229.056,1449.2C228.405,1449.2 227.861,1449.47 227.424,1450C226.988,1450.53 226.769,1451.37 226.769,1452.52Z"
   style="fill-rule:nonzero;" />
            <path
   id="path45"
   d="M234.517,1452.5C234.517,1450.9 234.961,1449.71 235.851,1448.94C236.595,1448.3 237.501,1447.98 238.569,1447.98C239.757,1447.98 240.729,1448.37 241.483,1449.15C242.237,1449.93 242.614,1451.01 242.614,1452.38C242.614,1453.49 242.447,1454.37 242.113,1455C241.78,1455.64 241.294,1456.13 240.657,1456.49C240.019,1456.84 239.323,1457.02 238.569,1457.02C237.359,1457.02 236.382,1456.63 235.636,1455.85C234.89,1455.08 234.517,1453.96 234.517,1452.5ZM236.022,1452.5C236.022,1453.61 236.264,1454.43 236.746,1454.99C237.229,1455.54 237.837,1455.81 238.569,1455.81C239.296,1455.81 239.901,1455.54 240.384,1454.98C240.867,1454.43 241.108,1453.59 241.108,1452.45C241.108,1451.38 240.866,1450.57 240.38,1450.02C239.894,1449.47 239.291,1449.2 238.569,1449.2C237.837,1449.2 237.229,1449.47 236.746,1450.02C236.264,1450.57 236.022,1451.39 236.022,1452.5Z"
   style="fill-rule:nonzero;" />
            <path
   id="path47"
   d="M245.926,1456.83L243.281,1448.19L244.795,1448.19L246.17,1453.18L246.683,1455.03C246.705,1454.94 246.854,1454.35 247.131,1453.25L248.506,1448.19L250.011,1448.19L251.305,1453.2L251.737,1454.85L252.233,1453.18L253.714,1448.19L255.138,1448.19L252.437,1456.83L250.915,1456.83L249.539,1451.65L249.206,1450.18L247.456,1456.83L245.926,1456.83Z"
   style="fill-rule:nonzero;" />
            <path
   id="path49"
   d="M255.781,1454.25L257.23,1454.02C257.311,1454.6 257.538,1455.05 257.909,1455.36C258.281,1455.67 258.8,1455.82 259.468,1455.82C260.141,1455.82 260.64,1455.68 260.965,1455.41C261.291,1455.14 261.453,1454.81 261.453,1454.45C261.453,1454.12 261.31,1453.85 261.022,1453.66C260.821,1453.53 260.322,1453.37 259.525,1453.17C258.451,1452.9 257.706,1452.66 257.291,1452.46C256.876,1452.27 256.561,1451.99 256.347,1451.64C256.133,1451.29 256.025,1450.91 256.025,1450.48C256.025,1450.1 256.114,1449.74 256.29,1449.41C256.466,1449.08 256.706,1448.81 257.01,1448.59C257.238,1448.43 257.549,1448.28 257.942,1448.17C258.335,1448.05 258.757,1447.99 259.207,1447.99C259.886,1447.99 260.481,1448.09 260.994,1448.29C261.506,1448.48 261.885,1448.75 262.129,1449.08C262.373,1449.41 262.541,1449.86 262.633,1450.42L261.201,1450.61C261.136,1450.17 260.948,1449.82 260.636,1449.57C260.324,1449.32 259.883,1449.2 259.313,1449.2C258.64,1449.2 258.16,1449.31 257.873,1449.53C257.585,1449.75 257.441,1450.01 257.441,1450.31C257.441,1450.5 257.501,1450.67 257.62,1450.82C257.74,1450.98 257.927,1451.11 258.182,1451.21C258.328,1451.27 258.76,1451.39 259.476,1451.59C260.512,1451.87 261.235,1452.09 261.645,1452.27C262.054,1452.44 262.376,1452.7 262.609,1453.04C262.842,1453.37 262.959,1453.79 262.959,1454.29C262.959,1454.78 262.817,1455.24 262.532,1455.67C262.247,1456.1 261.836,1456.43 261.299,1456.67C260.762,1456.91 260.154,1457.03 259.476,1457.03C258.353,1457.03 257.497,1456.79 256.908,1456.33C256.32,1455.86 255.944,1455.17 255.781,1454.25Z"
   style="fill-rule:nonzero;" />
        </g>
        <g
   id="g74">
            <path
   id="path52"
   d="M137.446,117.683C137.446,116.944 137.426,115.991 137.388,114.824C137.349,113.658 137.29,112.608 137.213,111.674L141.004,111.674C141.082,112.413 141.14,113.23 141.179,114.124C141.218,115.019 141.238,115.758 141.238,116.341L141.354,116.341C142.132,114.746 143.299,113.453 144.854,112.462C146.41,111.47 148.16,110.974 150.104,110.974C150.61,110.974 151.067,110.994 151.475,111.033C151.883,111.071 152.301,111.149 152.729,111.266L152.204,114.999C151.971,114.921 151.582,114.844 151.038,114.766C150.493,114.688 149.949,114.649 149.404,114.649C148.354,114.649 147.343,114.844 146.371,115.233C145.399,115.621 144.553,116.234 143.833,117.07C143.114,117.906 142.531,118.976 142.083,120.278C141.636,121.581 141.413,123.146 141.413,124.974L141.413,138.974L137.446,138.974L137.446,117.683Z"
   style="fill-rule:nonzero;" />
            <path
   id="path54"
   d="M174.954,121.358C174.954,118.985 174.332,117.216 173.088,116.049C171.843,114.883 170.035,114.299 167.663,114.299C166.029,114.299 164.513,114.591 163.113,115.174C161.713,115.758 160.526,116.535 159.554,117.508L157.338,114.883C158.465,113.755 159.953,112.821 161.8,112.083C163.647,111.344 165.738,110.974 168.071,110.974C169.549,110.974 170.929,111.178 172.213,111.587C173.496,111.995 174.624,112.608 175.596,113.424C176.568,114.241 177.326,115.271 177.871,116.516C178.415,117.76 178.688,119.219 178.688,120.891L178.688,132.849C178.688,133.899 178.726,134.988 178.804,136.116C178.882,137.244 178.999,138.196 179.154,138.974L175.596,138.974C175.479,138.313 175.382,137.594 175.304,136.816C175.226,136.038 175.188,135.28 175.188,134.541L175.071,134.541C173.826,136.369 172.417,137.681 170.842,138.478C169.267,139.276 167.371,139.674 165.154,139.674C164.104,139.674 163.025,139.528 161.917,139.237C160.808,138.945 159.797,138.469 158.883,137.808C157.969,137.146 157.211,136.291 156.608,135.241C156.006,134.191 155.704,132.908 155.704,131.391C155.704,129.291 156.239,127.628 157.308,126.403C158.378,125.178 159.807,124.265 161.596,123.662C163.385,123.059 165.436,122.67 167.75,122.495C170.064,122.32 172.465,122.233 174.954,122.233L174.954,121.358ZM173.788,125.324C172.154,125.324 170.511,125.392 168.858,125.528C167.206,125.665 165.708,125.937 164.367,126.345C163.025,126.753 161.926,127.346 161.071,128.124C160.215,128.902 159.787,129.933 159.787,131.216C159.787,132.188 159.972,133.005 160.342,133.666C160.711,134.327 161.207,134.862 161.829,135.27C162.451,135.678 163.142,135.97 163.9,136.145C164.658,136.32 165.426,136.408 166.204,136.408C167.604,136.408 168.849,136.165 169.937,135.678C171.026,135.192 171.94,134.531 172.679,133.695C173.418,132.859 173.982,131.896 174.371,130.808C174.76,129.719 174.954,128.571 174.954,127.366L174.954,125.324L173.787,125.324L173.788,125.324Z"
   style="fill-rule:nonzero;" />
            <path
   id="path56"
   d="M189.421,111.674L196.013,133.841L196.129,133.841L203.479,111.674L207.329,111.674L214.796,133.841L214.913,133.841L221.446,111.674L225.646,111.674L217.013,138.974L212.696,138.974L205.404,116.866L205.288,116.866L198.113,138.974L193.796,138.974L185.163,111.674L189.421,111.674Z"
   style="fill-rule:nonzero;" />
            <path
   id="path58"
   d="M120.85,163.416C119.411,161.899 117.7,160.723 115.717,159.887C113.733,159.051 111.458,158.633 108.892,158.633C106.247,158.633 103.865,159.119 101.746,160.091C99.626,161.063 97.828,162.376 96.35,164.028C94.872,165.681 93.735,167.596 92.938,169.774C92.14,171.952 91.742,174.246 91.742,176.658C91.742,179.069 92.14,181.363 92.938,183.541C93.735,185.719 94.872,187.624 96.35,189.258C97.828,190.891 99.626,192.194 101.746,193.166C103.865,194.138 106.247,194.624 108.892,194.624C111.225,194.624 113.364,194.371 115.308,193.866C117.253,193.36 118.828,192.719 120.033,191.941L120.033,179.399L110.408,179.399L110.408,175.724L124.233,175.724L124.233,194.333C121.978,195.694 119.547,196.705 116.942,197.366C114.336,198.027 111.633,198.358 108.833,198.358C105.722,198.358 102.844,197.813 100.2,196.724C97.556,195.635 95.281,194.128 93.375,192.203C91.469,190.278 89.982,187.994 88.913,185.349C87.843,182.705 87.308,179.808 87.308,176.658C87.308,173.508 87.853,170.61 88.942,167.966C90.031,165.321 91.538,163.037 93.463,161.112C95.388,159.187 97.663,157.68 100.288,156.591C102.913,155.502 105.761,154.958 108.833,154.958C112.139,154.958 115.017,155.444 117.467,156.416C119.917,157.388 122.017,158.749 123.767,160.499L120.85,163.416Z"
   style="fill-rule:nonzero;" />
            <rect
   id="rect60"
   x="134.85"
   y="153.208"
   width="3.967"
   height="44.1" />
            <path
   id="path62"
   d="M153.458,197.308L149.492,197.308L149.492,170.008L153.458,170.008L153.458,197.308ZM154.275,159.508C154.275,160.324 153.983,160.995 153.4,161.52C152.817,162.045 152.175,162.308 151.475,162.308C150.775,162.308 150.133,162.045 149.55,161.52C148.967,160.995 148.675,160.324 148.675,159.508C148.675,158.691 148.967,158.02 149.55,157.495C150.133,156.97 150.775,156.708 151.475,156.708C152.175,156.708 152.817,156.97 153.4,157.495C153.983,158.02 154.275,158.691 154.275,159.508Z"
   style="fill-rule:nonzero;" />
            <path
   id="path64"
   d="M176.325,173.333L168.625,173.333L168.625,189.258C168.625,190.269 168.722,191.105 168.917,191.766C169.111,192.427 169.393,192.942 169.763,193.312C170.132,193.681 170.569,193.934 171.075,194.07C171.581,194.206 172.125,194.274 172.708,194.274C173.253,194.274 173.826,194.196 174.429,194.041C175.032,193.885 175.606,193.671 176.15,193.399L176.325,196.841C175.625,197.113 174.896,197.317 174.137,197.453C173.379,197.59 172.553,197.658 171.658,197.658C170.919,197.658 170.142,197.56 169.325,197.366C168.508,197.171 167.75,196.802 167.05,196.258C166.35,195.713 165.776,194.974 165.329,194.041C164.882,193.108 164.658,191.883 164.658,190.366L164.658,173.333L159,173.333L159,170.008L164.658,170.008L164.658,162.308L168.625,162.308L168.625,170.008L176.325,170.008L176.325,173.333Z"
   style="fill-rule:nonzero;" />
            <path
   id="path66"
   d="M194.117,173.333L186.417,173.333L186.417,189.258C186.417,190.269 186.514,191.105 186.708,191.766C186.903,192.427 187.185,192.942 187.554,193.312C187.924,193.681 188.361,193.934 188.867,194.07C189.372,194.206 189.917,194.274 190.5,194.274C191.044,194.274 191.618,194.196 192.221,194.041C192.824,193.885 193.397,193.671 193.942,193.399L194.117,196.841C193.417,197.113 192.688,197.317 191.929,197.453C191.171,197.59 190.344,197.658 189.45,197.658C188.711,197.658 187.933,197.56 187.117,197.366C186.3,197.171 185.542,196.802 184.842,196.258C184.142,195.713 183.568,194.974 183.121,194.041C182.674,193.108 182.45,191.883 182.45,190.366L182.45,173.333L176.792,173.333L176.792,170.008L182.45,170.008L182.45,162.308L186.417,162.308L186.417,170.008L194.117,170.008L194.117,173.333Z"
   style="fill-rule:nonzero;" />
            <path
   id="path68"
   d="M221.125,181.558C221.008,178.991 220.182,176.862 218.646,175.17C217.11,173.478 214.922,172.633 212.083,172.633C210.761,172.633 209.536,172.876 208.408,173.362C207.281,173.848 206.289,174.509 205.433,175.345C204.578,176.181 203.897,177.134 203.392,178.203C202.886,179.273 202.594,180.391 202.517,181.558L221.125,181.558ZM225.15,182.841L225.15,183.716C225.15,184.027 225.131,184.358 225.092,184.708L202.458,184.708C202.497,186.069 202.769,187.352 203.275,188.558C203.781,189.763 204.481,190.813 205.375,191.708C206.269,192.602 207.319,193.312 208.525,193.837C209.731,194.362 211.033,194.624 212.433,194.624C214.494,194.624 216.274,194.148 217.771,193.195C219.268,192.242 220.406,191.144 221.183,189.899L224.158,192.233C222.525,194.294 220.726,195.771 218.763,196.666C216.799,197.56 214.689,198.008 212.433,198.008C210.411,198.008 208.535,197.648 206.804,196.928C205.074,196.209 203.586,195.208 202.342,193.924C201.097,192.641 200.115,191.124 199.396,189.374C198.676,187.624 198.317,185.719 198.317,183.658C198.317,181.596 198.667,179.691 199.367,177.941C200.067,176.191 201.039,174.674 202.283,173.391C203.528,172.108 204.986,171.106 206.658,170.387C208.331,169.667 210.139,169.308 212.083,169.308C214.222,169.308 216.108,169.667 217.742,170.387C219.375,171.106 220.736,172.078 221.825,173.303C222.914,174.528 223.74,175.958 224.304,177.591C224.868,179.224 225.15,180.974 225.15,182.841Z"
   style="fill-rule:nonzero;" />
            <path
   id="path70"
   d="M233.667,176.016C233.667,175.277 233.647,174.324 233.608,173.158C233.569,171.991 233.511,170.941 233.433,170.008L237.225,170.008C237.303,170.746 237.361,171.563 237.4,172.458C237.439,173.352 237.458,174.091 237.458,174.674L237.575,174.674C238.353,173.08 239.519,171.787 241.075,170.795C242.631,169.803 244.381,169.308 246.325,169.308C246.831,169.308 247.288,169.327 247.696,169.366C248.104,169.405 248.522,169.483 248.95,169.599L248.425,173.333C248.192,173.255 247.803,173.177 247.258,173.099C246.714,173.021 246.169,172.983 245.625,172.983C244.575,172.983 243.564,173.177 242.592,173.566C241.619,173.955 240.774,174.567 240.054,175.403C239.335,176.24 238.751,177.309 238.304,178.612C237.857,179.915 237.633,181.48 237.633,183.308L237.633,197.308L233.667,197.308L233.667,176.016Z"
   style="fill-rule:nonzero;" />
            <path
   id="path72"
   d="M269.192,176.483C268.608,175.355 267.724,174.431 266.538,173.712C265.351,172.992 264,172.633 262.483,172.633C261.783,172.633 261.083,172.71 260.383,172.866C259.683,173.021 259.061,173.274 258.517,173.624C257.972,173.974 257.535,174.421 257.204,174.966C256.874,175.51 256.708,176.152 256.708,176.891C256.708,178.174 257.233,179.156 258.283,179.837C259.333,180.517 260.986,181.091 263.242,181.558C266.469,182.219 268.851,183.181 270.388,184.445C271.924,185.709 272.692,187.41 272.692,189.549C272.692,191.105 272.39,192.417 271.788,193.487C271.185,194.556 270.397,195.431 269.425,196.112C268.453,196.792 267.354,197.278 266.129,197.57C264.904,197.862 263.669,198.008 262.425,198.008C260.364,198.008 258.361,197.58 256.417,196.724C254.472,195.869 252.878,194.527 251.633,192.699L254.783,190.366C255.483,191.571 256.514,192.583 257.875,193.399C259.236,194.216 260.733,194.624 262.367,194.624C263.222,194.624 264.039,194.546 264.817,194.391C265.594,194.235 266.275,193.963 266.858,193.574C267.442,193.185 267.908,192.69 268.258,192.087C268.608,191.484 268.783,190.735 268.783,189.841C268.783,188.402 268.093,187.323 266.713,186.603C265.332,185.884 263.339,185.213 260.733,184.591C259.917,184.396 259.051,184.153 258.138,183.862C257.224,183.57 256.378,183.142 255.6,182.578C254.822,182.015 254.181,181.305 253.675,180.449C253.169,179.594 252.917,178.524 252.917,177.241C252.917,175.841 253.189,174.645 253.733,173.653C254.278,172.662 255.007,171.845 255.921,171.203C256.835,170.562 257.875,170.085 259.042,169.774C260.208,169.463 261.414,169.308 262.658,169.308C264.564,169.308 266.411,169.735 268.2,170.591C269.989,171.446 271.331,172.652 272.225,174.208L269.192,176.483Z"
   style="fill-rule:nonzero;" />
        </g>
        <rect
   id="rect76"
   x="70.118"
   y="90.127"
   width="219.764"
   height="134.258"
   style="fill:none;stroke:black;stroke-width:2.08px;" />
    </g>
    <g
   id="Outputs"
   transform="matrix(0.239955,0,0,0.239955,0,0)">
        <path
   id="path79"
   d="M153.746,1249.09C153.746,1246.53 151.665,1244.45 149.102,1244.45L84.103,1244.45C81.54,1244.45 79.459,1246.53 79.459,1249.09L79.459,1335.86C79.459,1338.42 81.54,1340.5 84.103,1340.5L149.102,1340.5C151.665,1340.5 153.746,1338.42 153.746,1335.86L153.746,1249.09Z"
   style="stroke:black;stroke-width:2.08px;" />
        <path
   id="path81"
   d="M280.541,1249.07C280.541,1246.52 278.469,1244.45 275.918,1244.45L211.211,1244.45C208.659,1244.45 206.588,1246.52 206.588,1249.07L206.588,1335.88C206.588,1338.43 208.659,1340.5 211.211,1340.5L275.918,1340.5C278.469,1340.5 280.541,1338.43 280.541,1335.88L280.541,1249.07Z"
   style="stroke:black;stroke-width:2.08px;" />
        <g
   id="g91">
            <path
   id="path83"
   d="M215.209,1260.58C215.209,1258.1 215.873,1256.17 217.202,1254.77C218.532,1253.37 220.247,1252.66 222.35,1252.66C223.726,1252.66 224.967,1252.99 226.073,1253.65C227.178,1254.31 228.021,1255.23 228.601,1256.4C229.181,1257.58 229.471,1258.91 229.471,1260.41C229.471,1261.92 229.165,1263.27 228.555,1264.47C227.945,1265.66 227.08,1266.56 225.961,1267.18C224.842,1267.79 223.635,1268.1 222.34,1268.1C220.936,1268.1 219.681,1267.76 218.576,1267.08C217.47,1266.4 216.633,1265.48 216.063,1264.3C215.493,1263.13 215.209,1261.89 215.209,1260.58ZM217.243,1260.61C217.243,1262.41 217.726,1263.82 218.693,1264.86C219.659,1265.89 220.871,1266.41 222.329,1266.41C223.815,1266.41 225.037,1265.89 225.997,1264.84C226.956,1263.8 227.436,1262.32 227.436,1260.4C227.436,1259.18 227.231,1258.12 226.821,1257.22C226.41,1256.31 225.81,1255.61 225.02,1255.11C224.23,1254.61 223.343,1254.36 222.36,1254.36C220.963,1254.36 219.761,1254.84 218.754,1255.8C217.747,1256.76 217.243,1258.37 217.243,1260.61Z"
   style="fill:rgb(230,230,230);fill-rule:nonzero;" />
            <path
   id="path85"
   d="M241.8,1252.93L243.773,1252.93L243.773,1261.55C243.773,1263.05 243.604,1264.24 243.264,1265.12C242.925,1266 242.313,1266.71 241.428,1267.27C240.543,1267.82 239.382,1268.1 237.944,1268.1C236.547,1268.1 235.404,1267.86 234.516,1267.38C233.628,1266.89 232.994,1266.2 232.614,1265.29C232.234,1264.37 232.044,1263.13 232.044,1261.55L232.044,1252.93L234.018,1252.93L234.018,1261.54C234.018,1262.83 234.138,1263.79 234.379,1264.4C234.62,1265.01 235.033,1265.49 235.62,1265.82C236.206,1266.15 236.924,1266.32 237.771,1266.32C239.223,1266.32 240.257,1265.99 240.874,1265.33C241.491,1264.67 241.8,1263.41 241.8,1261.54L241.8,1252.93Z"
   style="fill:rgb(230,230,230);fill-rule:nonzero;" />
            <path
   id="path87"
   d="M250.853,1267.84L250.853,1254.69L245.94,1254.69L245.94,1252.93L257.76,1252.93L257.76,1254.69L252.827,1254.69L252.827,1267.84L250.853,1267.84Z"
   style="fill:rgb(230,230,230);fill-rule:nonzero;" />
            <path
   id="path89"
   d="M274.077,1266.08L274.077,1267.84L264.22,1267.84C264.206,1267.4 264.278,1266.98 264.433,1266.57C264.684,1265.9 265.086,1265.24 265.639,1264.59C266.192,1263.93 266.99,1263.18 268.035,1262.33C269.655,1261 270.751,1259.94 271.32,1259.17C271.89,1258.39 272.175,1257.66 272.175,1256.96C272.175,1256.24 271.915,1255.63 271.397,1255.13C270.878,1254.63 270.201,1254.38 269.367,1254.38C268.486,1254.38 267.78,1254.65 267.251,1255.17C266.722,1255.7 266.454,1256.44 266.448,1257.37L264.566,1257.18C264.695,1255.78 265.179,1254.7 266.02,1253.97C266.861,1253.23 267.99,1252.87 269.408,1252.87C270.839,1252.87 271.971,1253.26 272.805,1254.06C273.64,1254.85 274.057,1255.83 274.057,1257.01C274.057,1257.6 273.935,1258.19 273.69,1258.77C273.446,1259.34 273.041,1259.95 272.475,1260.59C271.909,1261.22 270.968,1262.1 269.652,1263.21C268.553,1264.13 267.848,1264.76 267.536,1265.09C267.224,1265.42 266.966,1265.75 266.763,1266.08L274.077,1266.08Z"
   style="fill:rgb(230,230,230);fill-rule:nonzero;" />
        </g>
        <g
   id="g101">
            <path
   id="path93"
   d="M88.125,1260.58C88.125,1258.1 88.79,1256.17 90.119,1254.77C91.448,1253.37 93.164,1252.66 95.266,1252.66C96.643,1252.66 97.884,1252.99 98.99,1253.65C100.095,1254.31 100.938,1255.23 101.517,1256.4C102.097,1257.58 102.387,1258.91 102.387,1260.41C102.387,1261.92 102.082,1263.27 101.472,1264.47C100.861,1265.66 99.997,1266.56 98.878,1267.18C97.759,1267.79 96.552,1268.1 95.256,1268.1C93.852,1268.1 92.598,1267.76 91.492,1267.08C90.387,1266.4 89.549,1265.48 88.98,1264.3C88.41,1263.13 88.125,1261.89 88.125,1260.58ZM90.16,1260.61C90.16,1262.41 90.643,1263.82 91.609,1264.86C92.576,1265.89 93.788,1266.41 95.246,1266.41C96.731,1266.41 97.954,1265.89 98.913,1264.84C99.873,1263.8 100.353,1262.32 100.353,1260.4C100.353,1259.18 100.148,1258.12 99.737,1257.22C99.327,1256.31 98.727,1255.61 97.937,1255.11C97.147,1254.61 96.26,1254.36 95.277,1254.36C93.88,1254.36 92.678,1254.84 91.67,1255.8C90.663,1256.76 90.16,1258.37 90.16,1260.61Z"
   style="fill:rgb(230,230,230);fill-rule:nonzero;" />
            <path
   id="path95"
   d="M114.716,1252.93L116.69,1252.93L116.69,1261.55C116.69,1263.05 116.52,1264.24 116.181,1265.12C115.842,1266 115.23,1266.71 114.345,1267.27C113.46,1267.82 112.299,1268.1 110.861,1268.1C109.464,1268.1 108.321,1267.86 107.433,1267.38C106.544,1266.89 105.91,1266.2 105.53,1265.29C105.151,1264.37 104.961,1263.13 104.961,1261.55L104.961,1252.93L106.934,1252.93L106.934,1261.54C106.934,1262.83 107.055,1263.79 107.295,1264.4C107.536,1265.01 107.95,1265.49 108.536,1265.82C109.123,1266.15 109.84,1266.32 110.688,1266.32C112.139,1266.32 113.173,1265.99 113.791,1265.33C114.408,1264.67 114.716,1263.41 114.716,1261.54L114.716,1252.93Z"
   style="fill:rgb(230,230,230);fill-rule:nonzero;" />
            <path
   id="path97"
   d="M123.77,1267.84L123.77,1254.69L118.857,1254.69L118.857,1252.93L130.677,1252.93L130.677,1254.69L125.743,1254.69L125.743,1267.84L123.77,1267.84Z"
   style="fill:rgb(230,230,230);fill-rule:nonzero;" />
            <path
   id="path99"
   d="M144.267,1267.84L142.436,1267.84L142.436,1256.17C141.996,1256.59 141.417,1257.01 140.702,1257.43C139.987,1257.85 139.344,1258.17 138.774,1258.38L138.774,1256.61C139.798,1256.13 140.694,1255.55 141.46,1254.86C142.226,1254.17 142.769,1253.51 143.087,1252.87L144.267,1252.87L144.267,1267.84Z"
   style="fill:rgb(230,230,230);fill-rule:nonzero;" />
        </g>
    </g>
    <g
   id="Inputs"
   transform="matrix(0.239955,0,0,0.239955,0,0)">
        <path
   id="path104"
   d="M280.541,1082.46C280.541,1079.88 278.444,1077.78 275.861,1077.78L210.35,1077.78C207.767,1077.78 205.67,1079.88 205.67,1082.46L205.67,1169.15C205.67,1171.74 207.767,1173.83 210.35,1173.83L275.861,1173.83C278.444,1173.83 280.541,1171.74 280.541,1169.15L280.541,1082.46Z"
   style="stroke:black;stroke-width:2.08px;" />
        <path
   id="path106"
   d="M154.163,1082.45C154.163,1079.87 152.071,1077.78 149.494,1077.78L84.129,1077.78C81.552,1077.78 79.459,1079.87 79.459,1082.45L79.459,1169.16C79.459,1171.74 81.552,1173.83 84.129,1173.83L149.494,1173.83C152.071,1173.83 154.163,1171.74 154.163,1169.16L154.163,1082.45Z"
   style="stroke:black;stroke-width:2.08px;" />
        <g
   id="g114">
            <rect
   id="rect108"
   x="226.561"
   y="1086.26"
   width="1.973"
   height="14.913"
   style="fill:rgb(230,230,230);" />
            <path
   id="path110"
   d="M231.993,1101.17L231.993,1086.26L234.018,1086.26L241.85,1097.97L241.85,1086.26L243.743,1086.26L243.743,1101.17L241.718,1101.17L233.885,1089.45L233.885,1101.17L231.993,1101.17Z"
   style="fill:rgb(230,230,230);fill-rule:nonzero;" />
            <path
   id="path112"
   d="M261.728,1099.41L261.728,1101.17L251.87,1101.17C251.857,1100.73 251.928,1100.31 252.084,1099.9C252.335,1099.23 252.737,1098.57 253.289,1097.91C253.842,1097.26 254.641,1096.51 255.685,1095.66C257.306,1094.33 258.401,1093.28 258.971,1092.5C259.541,1091.72 259.825,1090.99 259.825,1090.3C259.825,1089.57 259.566,1088.96 259.047,1088.46C258.528,1087.96 257.852,1087.71 257.018,1087.71C256.136,1087.71 255.431,1087.98 254.902,1088.51C254.373,1089.03 254.105,1089.77 254.098,1090.7L252.216,1090.51C252.345,1089.11 252.83,1088.04 253.671,1087.3C254.512,1086.56 255.641,1086.2 257.058,1086.2C258.489,1086.2 259.622,1086.59 260.456,1087.39C261.29,1088.18 261.707,1089.16 261.707,1090.34C261.707,1090.93 261.585,1091.52 261.341,1092.1C261.097,1092.67 260.692,1093.28 260.125,1093.92C259.559,1094.56 258.618,1095.43 257.303,1096.54C256.204,1097.46 255.499,1098.09 255.187,1098.42C254.875,1098.75 254.617,1099.08 254.414,1099.41L261.728,1099.41Z"
   style="fill:rgb(230,230,230);fill-rule:nonzero;" />
        </g>
        <g
   id="g122">
            <rect
   id="rect116"
   x="99.478"
   y="1086.26"
   width="1.973"
   height="14.913"
   style="fill:rgb(230,230,230);" />
            <path
   id="path118"
   d="M104.91,1101.17L104.91,1086.26L106.934,1086.26L114.767,1097.97L114.767,1086.26L116.659,1086.26L116.659,1101.17L114.635,1101.17L106.802,1089.45L106.802,1101.17L104.91,1101.17Z"
   style="fill:rgb(230,230,230);fill-rule:nonzero;" />
            <path
   id="path120"
   d="M131.918,1101.17L130.087,1101.17L130.087,1089.5C129.646,1089.92 129.068,1090.34 128.353,1090.76C127.637,1091.18 126.995,1091.5 126.425,1091.71L126.425,1089.94C127.449,1089.46 128.344,1088.88 129.11,1088.19C129.877,1087.51 130.419,1086.84 130.738,1086.2L131.918,1086.2L131.918,1101.17Z"
   style="fill:rgb(230,230,230);fill-rule:nonzero;" />
        </g>
    </g>
    <g
   id="DeRez"
   transform="matrix(0.239955,0,0,0.239955,0,0)">
        <path
   id="path125"
   d="M180,795.95C222.516,795.95 257.034,830.468 257.034,872.985C257.034,915.501 222.516,950.019 180,950.019C174.069,950.019 168.293,949.347 162.745,948.076C159.507,947.334 156.347,946.387 153.279,945.251C123.917,934.377 102.966,906.108 102.966,872.985C102.966,830.468 137.484,795.95 180,795.95Z"
   style="fill:none;stroke:black;stroke-width:4.17px;stroke-linejoin:miter;stroke-miterlimit:1;stroke-dasharray:0,8.33,0,0;stroke-dashoffset:4.17;" />
        <rect
   id="rect127"
   x="100.066"
   y="923.076"
   width="159.867"
   height="47.739"
   style="fill:rgb(230,230,230);" />
        <g
   id="g139">
            <path
   id="path129"
   d="M130.7,741.388L130.7,717.527L138.919,717.527C140.775,717.527 142.191,717.641 143.167,717.869C144.535,718.184 145.701,718.754 146.667,719.578C147.925,720.642 148.867,722.001 149.491,723.655C150.114,725.31 150.426,727.201 150.426,729.328C150.426,731.14 150.215,732.746 149.792,734.145C149.368,735.545 148.826,736.703 148.164,737.62C147.502,738.537 146.778,739.259 145.991,739.785C145.205,740.311 144.255,740.71 143.143,740.981C142.031,741.253 140.753,741.388 139.31,741.388L130.7,741.388ZM133.857,738.572L138.952,738.572C140.525,738.572 141.759,738.426 142.655,738.133C143.55,737.84 144.263,737.428 144.795,736.896C145.544,736.147 146.127,735.141 146.545,733.877C146.962,732.613 147.171,731.08 147.171,729.279C147.171,726.783 146.762,724.865 145.942,723.525C145.123,722.185 144.128,721.287 142.956,720.832C142.109,720.506 140.748,720.343 138.87,720.343L133.857,720.343L133.857,738.572Z"
   style="fill-rule:nonzero;" />
            <path
   id="path131"
   d="M166.23,735.822L169.258,736.196C168.78,737.965 167.896,739.337 166.605,740.314C165.314,741.291 163.664,741.779 161.657,741.779C159.129,741.779 157.124,741 155.643,739.443C154.162,737.886 153.421,735.702 153.421,732.892C153.421,729.984 154.17,727.727 155.667,726.121C157.165,724.515 159.107,723.712 161.494,723.712C163.805,723.712 165.693,724.499 167.158,726.072C168.623,727.646 169.355,729.859 169.355,732.713C169.355,732.887 169.35,733.147 169.339,733.494L156.449,733.494C156.557,735.393 157.094,736.847 158.06,737.856C159.026,738.865 160.23,739.37 161.673,739.37C162.747,739.37 163.664,739.088 164.424,738.524C165.183,737.959 165.786,737.059 166.23,735.822ZM156.611,731.085L166.263,731.085C166.133,729.631 165.764,728.541 165.156,727.814C164.223,726.685 163.013,726.121 161.527,726.121C160.181,726.121 159.05,726.572 158.133,727.472C157.216,728.373 156.709,729.577 156.611,731.085Z"
   style="fill-rule:nonzero;" />
            <path
   id="path133"
   d="M173.359,741.388L173.359,717.527L183.939,717.527C186.066,717.527 187.682,717.742 188.789,718.17C189.896,718.599 190.78,719.356 191.442,720.441C192.104,721.526 192.435,722.725 192.435,724.038C192.435,725.731 191.887,727.157 190.791,728.319C189.695,729.48 188.002,730.217 185.713,730.532C186.548,730.934 187.183,731.33 187.617,731.72C188.539,732.567 189.413,733.624 190.238,734.894L194.388,741.388L190.417,741.388L187.259,736.424C186.337,734.992 185.577,733.896 184.98,733.136C184.384,732.377 183.849,731.845 183.377,731.541C182.905,731.237 182.425,731.026 181.937,730.906C181.579,730.83 180.993,730.792 180.179,730.792L176.517,730.792L176.517,741.388L173.359,741.388ZM176.517,728.058L183.304,728.058C184.747,728.058 185.876,727.909 186.689,727.61C187.503,727.312 188.122,726.835 188.545,726.178C188.968,725.522 189.18,724.808 189.18,724.038C189.18,722.909 188.77,721.982 187.951,721.255C187.132,720.528 185.838,720.164 184.069,720.164L176.517,720.164L176.517,728.058Z"
   style="fill-rule:nonzero;" />
            <path
   id="path135"
   d="M208.841,735.822L211.868,736.196C211.391,737.965 210.507,739.337 209.215,740.314C207.924,741.291 206.275,741.779 204.268,741.779C201.739,741.779 199.735,741 198.254,739.443C196.772,737.886 196.032,735.702 196.032,732.892C196.032,729.984 196.781,727.727 198.278,726.121C199.775,724.515 201.718,723.712 204.105,723.712C206.416,723.712 208.304,724.499 209.769,726.072C211.234,727.646 211.966,729.859 211.966,732.713C211.966,732.887 211.961,733.147 211.95,733.494L199.059,733.494C199.168,735.393 199.705,736.847 200.671,737.856C201.636,738.865 202.841,739.37 204.284,739.37C205.358,739.37 206.275,739.088 207.035,738.524C207.794,737.959 208.396,737.059 208.841,735.822ZM199.222,731.085L208.874,731.085C208.743,729.631 208.375,728.541 207.767,727.814C206.834,726.685 205.624,726.121 204.137,726.121C202.792,726.121 201.661,726.572 200.744,727.472C199.827,728.373 199.32,729.577 199.222,731.085Z"
   style="fill-rule:nonzero;" />
            <path
   id="path137"
   d="M214.001,741.388L214.001,739.012L225.003,726.382C223.755,726.447 222.654,726.479 221.699,726.479L214.652,726.479L214.652,724.103L228.779,724.103L228.779,726.04L219.421,737.01L217.614,739.012C218.927,738.914 220.158,738.865 221.309,738.865L229.3,738.865L229.3,741.388L214.001,741.388Z"
   style="fill-rule:nonzero;" />
        </g>
    </g>
    <g
   id="On-Off-Switch"
   transform="matrix(0.239955,0,0,0.239955,0,0)">
        <path
   id="path142"
   d="M172.22,529.452C172.22,526.63 172.51,524.36 173.091,522.64C173.671,520.92 174.534,519.594 175.679,518.661C176.823,517.727 178.264,517.261 180,517.261C181.28,517.261 182.403,517.519 183.369,518.034C184.335,518.549 185.132,519.293 185.762,520.264C186.391,521.235 186.885,522.418 187.243,523.812C187.601,525.206 187.78,527.086 187.78,529.452C187.78,532.251 187.492,534.511 186.917,536.231C186.342,537.95 185.482,539.28 184.338,540.218C183.193,541.157 181.747,541.626 180,541.626C177.7,541.626 175.893,540.801 174.58,539.152C173.007,537.167 172.22,533.933 172.22,529.452ZM175.231,529.452C175.231,533.369 175.69,535.976 176.606,537.272C177.523,538.569 178.655,539.217 180,539.217C181.345,539.217 182.477,538.566 183.394,537.264C184.31,535.962 184.769,533.358 184.769,529.452C184.769,525.524 184.31,522.914 183.394,521.623C182.477,520.332 181.335,519.686 179.967,519.686C178.622,519.686 177.548,520.256 176.745,521.395C175.736,522.849 175.231,525.535 175.231,529.452Z"
   style="fill-rule:nonzero;" />
        <rect
   id="rect144"
   x="178.421"
   y="374.726"
   width="3.158"
   height="23.861" />
    </g>
    <g
   id="components"
   transform="matrix(0.239955,0,0,0.239955,0,0)">
        
        
        
        
        
        
    </g><g
   inkscape:groupmode="layer"
   id="layer1"
   inkscape:label="components"
   style="display:none"><circle
     id="enabled"
     cx="180"
     cy="457.35001"
     r="36.138"
     style="clip-rule:evenodd;fill:#ff0000;fill-rule:evenodd;stroke-linecap:round;stroke-linejoin:round;stroke-miterlimit:1.5"
     transform="scale(0.239955)"
     inkscape:label="enabled"><title
       id="title929">enabled</title></circle><circle
     id="derez"
     cx="180"
     cy="873.07501"
     style="clip-rule:evenodd;fill:#ff0000;fill-rule:evenodd;stroke-linecap:round;stroke-linejoin:round;stroke-miterlimit:1.5"
     r="68.949997"
     transform="scale(0.239955)"
     inkscape:label="derez"><title
       id="title931">derez</title></circle><circle
     id="input_1"
     cx="116.685"
     cy="1142.1801"
     r="28.207001"
     style="clip-rule:evenodd;fill:#00ff00;fill-rule:evenodd;stroke-linecap:round;stroke-linejoin:round;stroke-miterlimit:1.5"
     transform="scale(0.239955)"
     inkscape:label="input_1"><title
       id="title933">input_2</title></circle><circle
     id="input_2"
     cx="243.76801"
     cy="1142.1801"
     r="28.207001"
     style="clip-rule:evenodd;fill:#00ff00;fill-rule:evenodd;stroke-linecap:round;stroke-linejoin:round;stroke-miterlimit:1.5"
     transform="scale(0.239955)"
     inkscape:label="input_2"><title
       id="title935">input_2</title></circle><circle
     id="output_2"
     cx="243.76801"
     cy="1308.85"
     r="28.207001"
     style="clip-rule:evenodd;fill:#0000ff;fill-rule:evenodd;stroke-linecap:round;stroke-linejoin:round;stroke-miterlimit:1.5"
     transform="scale(0.239955)"
     inkscape:label="output_2"><title
       id="title939">output_2</title></circle><circle
     id="output_1"
     cx="116.685"
     cy="1308.85"
     r="28.207001"
     style="clip-rule:evenodd;fill:#0000ff;fill-rule:evenodd;stroke-linecap:round;stroke-linejoin:round;stroke-miterlimit:1.5"
     transform="scale(0.239955)"
     inkscape:label="output_1"><title
       id="title937">output_1</title></circle></g>
</svg>
