<?xml version="1.0" encoding="UTF-8" standalone="no"?>
<svg
   xmlns:serif="http://www.serif.com/"
   xmlns:dc="http://purl.org/dc/elements/1.1/"
   xmlns:cc="http://creativecommons.org/ns#"
   xmlns:rdf="http://www.w3.org/1999/02/22-rdf-syntax-ns#"
   xmlns:svg="http://www.w3.org/2000/svg"
   xmlns="http://www.w3.org/2000/svg"
   xmlns:sodipodi="http://sodipodi.sourceforge.net/DTD/sodipodi-0.dtd"
   xmlns:inkscape="http://www.inkscape.org/namespaces/inkscape"
   width="30.5mm"
   height="128.5mm"
   viewBox="0 0 30.5 128.5"
   version="1.1"
   xml:space="preserve"
   style="clip-rule:evenodd;fill-rule:evenodd;stroke-linecap:round;stroke-linejoin:round;stroke-miterlimit:1.5"
   id="svg941"
   sodipodi:docname="rawTimbers.svg"
   inkscape:version="1.0.1 (c497b03c, 2020-09-10)"><metadata
   id="metadata947"><rdf:RDF><cc:Work
       rdf:about=""><dc:format>image/svg+xml</dc:format><dc:type
         rdf:resource="http://purl.org/dc/dcmitype/StillImage" /><dc:title></dc:title></cc:Work></rdf:RDF></metadata><defs
   id="defs945">
        
        
    
        
        
        
    
            
            
            
            
        
            
            
            
            
        
            
            
            
            
        
        
        
    
        
        
        
    </defs><sodipodi:namedview
   pagecolor="#ffffff"
   bordercolor="#666666"
   borderopacity="1"
   objecttolerance="10"
   gridtolerance="10"
   guidetolerance="10"
   inkscape:pageopacity="0"
   inkscape:pageshadow="2"
   inkscape:window-width="2268"
   inkscape:window-height="1387"
   id="namedview943"
   showgrid="false"
   inkscape:zoom="2.1864179"
   inkscape:cx="71.472652"
   inkscape:cy="180.06529"
   inkscape:window-x="3"
   inkscape:window-y="25"
   inkscape:window-maximized="0"
   inkscape:current-layer="Logo---Copyright"
   inkscape:document-rotation="0"
   units="mm"
   inkscape:document-units="mm"
   inkscape:pagecheckerboard="true"
   scale-x="1"
   borderlayer="true"
   showborder="true"
   showguides="true"
   inkscape:guide-bbox="true"><sodipodi:guide
     position="17.135073,95.798559"
     orientation="0,-1"
     id="guide1056" /></sodipodi:namedview>
    
    <g
   inkscape:groupmode="layer"
   id="layer2"
   inkscape:label="bg"
   style="display:inline"><g
     id="Background"
     transform="matrix(0.08478205,0,0,0.08468656,0,-0.02176444)"
     style="clip-rule:evenodd;fill-rule:evenodd;stroke-linecap:round;stroke-linejoin:round;stroke-miterlimit:1.5">
        <path
   id="rect833"
   style="fill:#e6e6e6"
   d="m 0,0.257 c 119.91533,0 239.83067,0 359.746,0 0,505.78667 0,1011.5733 0,1517.36 -119.91533,0 -239.83067,0 -359.746,0 C 0,1011.8303 0,506.04367 0,0.257 Z" />
    </g><g
     id="Logo---Copyright"
     serif:id="Logo &amp; Copyright"
     transform="matrix(0.08201366,0,0,0.08378892,0.27770194,0.48989006)"
     style="clip-rule:evenodd;fill-rule:evenodd;stroke-linecap:round;stroke-linejoin:round;stroke-miterlimit:1.5"><g
   aria-label="raw
Timbers"
   transform="scale(1.010765,0.98934965)"
   id="text1556"
   style="font-style:normal;font-weight:normal;font-size:59.579px;line-height:1.25;font-family:sans-serif;fill:#000000;fill-opacity:1;stroke:none;stroke-width:3.19173"><path
     d="m 152.46844,130.14097 h -0.29091 q -1.22184,-0.29091 -2.38549,-0.40728 -1.13456,-0.14546 -2.70549,-0.14546 -2.53094,0 -4.88734,1.13456 -2.3564,1.10547 -4.53824,2.88004 v 23.06941 h -5.46917 v -32.49499 h 5.46917 v 4.80007 q 3.25822,-2.61822 5.73098,-3.6946 2.50186,-1.10547 5.09098,-1.10547 1.42548,0 2.06548,0.0873 0.64001,0.0582 1.92003,0.26183 z"
     style="font-size:59.579px;text-align:center;text-anchor:middle;stroke-width:3.19173"
     id="path1578" /><path
     d="m 182.92704,156.67224 h -5.44007 v -3.46186 q -0.72729,0.49455 -1.97821,1.39638 -1.22184,0.87274 -2.38549,1.39638 -1.36729,0.6691 -3.14186,1.10547 -1.77457,0.46546 -4.16006,0.46546 -4.39279,0 -7.44737,-2.90913 -3.05459,-2.90913 -3.05459,-7.41828 0,-3.6946 1.57093,-5.96372 1.60002,-2.29821 4.53824,-3.60732 2.96732,-1.30911 7.12737,-1.77457 4.16006,-0.46546 8.93104,-0.69819 v -0.84365 q 0,-1.86185 -0.6691,-3.08368 -0.64001,-1.22184 -1.86185,-1.92003 -1.16365,-0.6691 -2.79276,-0.90183 -1.62912,-0.23273 -3.40369,-0.23273 -2.15275,0 -4.80006,0.58183 -2.64731,0.55273 -5.46917,1.62911 h -0.29091 v -5.55644 q 1.60002,-0.43637 4.62552,-0.96001 3.02549,-0.52365 5.96372,-0.52365 3.43277,0 5.96371,0.58183 2.56004,0.55274 4.42188,1.92003 1.83275,1.3382 2.79277,3.46186 0.96001,2.12367 0.96001,5.26553 z m -5.44007,-8.00011 v -9.0474 q -2.50186,0.14546 -5.90554,0.43637 -3.37459,0.29092 -5.3528,0.84365 -2.3564,0.6691 -3.81096,2.09458 -1.45457,1.39638 -1.45457,3.86914 0,2.79277 1.6873,4.21824 1.6873,1.39638 5.14916,1.39638 2.88004,0 5.26553,-1.10547 2.38548,-1.13456 4.42188,-2.70549 z"
     style="font-size:59.579px;text-align:center;text-anchor:middle;stroke-width:3.19173"
     id="path1580" /><path
     d="m 234.38957,124.17725 -8.46558,32.49499 h -5.06188 l -8.34921,-25.04761 -8.29102,25.04761 h -5.0328 l -8.55284,-32.49499 h 5.70189 l 5.96372,25.16398 8.11648,-25.16398 h 4.50915 l 8.32011,25.16398 5.64372,-25.16398 z"
     style="font-size:59.579px;text-align:center;text-anchor:middle;stroke-width:3.19173"
     id="path1582" /><path
     d="M 98.416791,192.9491 H 82.940215 v 38.19689 H 77.180136 V 192.9491 H 61.703561 v -5.12007 h 36.71323 z"
     style="font-size:59.579px;text-align:center;text-anchor:middle;stroke-width:3.19173"
     id="path1584" /><path
     d="m 109.73331,193.21092 h -6.16736 v -5.6728 h 6.16736 z m -0.3491,37.93507 h -5.46916 V 198.651 h 5.46916 z"
     style="font-size:59.579px;text-align:center;text-anchor:middle;stroke-width:3.19173"
     id="path1586" /><path
     d="m 167.68319,231.14599 h -5.46916 v -18.50207 q 0,-2.09458 -0.20364,-4.04369 -0.17455,-1.94912 -0.78547,-3.11277 -0.6691,-1.25093 -1.92002,-1.89094 -1.25093,-0.64001 -3.60733,-0.64001 -2.29821,0 -4.59642,1.16365 -2.29822,1.13457 -4.59643,2.90914 0.0873,0.6691 0.14546,1.57093 0.0582,0.87274 0.0582,1.74547 v 20.80029 h -5.46917 v -18.50207 q 0,-2.15276 -0.20363,-4.07279 -0.17455,-1.94911 -0.78547,-3.11277 -0.6691,-1.25092 -1.92003,-1.86184 -1.25092,-0.64001 -3.60732,-0.64001 -2.24003,0 -4.50915,1.10547 -2.24003,1.10547 -4.48006,2.82186 v 24.26215 h -5.46917 V 198.651 h 5.46917 v 3.60732 q 2.56003,-2.12366 5.09098,-3.31641 2.56003,-1.19274 5.44007,-1.19274 3.31641,0 5.61462,1.39638 2.32731,1.39638 3.46187,3.86914 3.31641,-2.79276 6.05099,-4.0146 2.73458,-1.25092 5.84735,-1.25092 5.3528,0 7.88375,3.25822 2.56003,3.22914 2.56003,9.0474 z"
     style="font-size:59.579px;text-align:center;text-anchor:middle;stroke-width:3.19173"
     id="path1588" /><path
     d="m 206.81101,214.65122 q 0,4.07278 -1.16365,7.33101 -1.13457,3.25822 -3.08368,5.46916 -2.06549,2.29822 -4.53825,3.46187 -2.47276,1.13456 -5.44007,1.13456 -2.76368,0 -4.82916,-0.6691 -2.06548,-0.64001 -4.07278,-1.74548 l -0.3491,1.51275 h -5.12007 v -45.26608 h 5.46917 v 16.17477 q 2.29821,-1.89093 4.88734,-3.08368 2.58912,-1.22183 5.81826,-1.22183 5.76008,0 9.07649,4.42188 3.3455,4.42188 3.3455,12.48017 z m -5.64372,0.14545 q 0,-5.81826 -1.92002,-8.81466 -1.92003,-3.0255 -6.19645,-3.0255 -2.38549,0 -4.82916,1.04729 -2.44367,1.01819 -4.53824,2.64731 v 18.61844 q 2.3273,1.04728 3.98551,1.45456 1.68729,0.40728 3.81096,0.40728 4.53824,0 7.09828,-2.96731 2.58912,-2.99641 2.58912,-9.36741 z"
     style="font-size:59.579px;text-align:center;text-anchor:middle;stroke-width:3.19173"
     id="path1590" /><path
     d="m 242.53512,215.46577 h -23.94214 q 0,2.99641 0.90183,5.23644 0.90183,2.21094 2.47276,3.63641 1.51275,1.39639 3.57823,2.09458 2.09457,0.69819 4.59643,0.69819 3.31641,0 6.66191,-1.30911 3.37459,-1.3382 4.80006,-2.61822 h 0.29091 v 5.96372 q -2.76367,1.16365 -5.64371,1.94912 -2.88004,0.78546 -6.05099,0.78546 -8.08738,0 -12.62563,-4.36369 -4.53824,-4.39279 -4.53824,-12.45108 0,-7.97102 4.3346,-12.65472 4.3637,-4.6837 11.46198,-4.6837 6.57463,0 10.12377,3.84005 3.57823,3.84005 3.57823,10.90924 z m -5.32371,-4.18914 q -0.0291,-4.30552 -2.18184,-6.66191 -2.12367,-2.3564 -6.48737,-2.3564 -4.39278,0 -7.011,2.58913 -2.58913,2.58912 -2.93822,6.42918 z"
     style="font-size:59.579px;text-align:center;text-anchor:middle;stroke-width:3.19173"
     id="path1592" /><path
     d="m 271.10279,204.61472 h -0.29092 q -1.22183,-0.29092 -2.38548,-0.40728 -1.13457,-0.14546 -2.7055,-0.14546 -2.53094,0 -4.88734,1.13456 -2.35639,1.10547 -4.53824,2.88004 v 23.06941 h -5.46917 V 198.651 h 5.46917 v 4.80006 q 3.25823,-2.61821 5.73099,-3.69459 2.50185,-1.10547 5.09098,-1.10547 1.42547,0 2.06548,0.0873 0.64001,0.0582 1.92003,0.26182 z"
     style="font-size:59.579px;text-align:center;text-anchor:middle;stroke-width:3.19173"
     id="path1594" /><path
     d="m 299.525,221.77859 q 0,4.45097 -3.69459,7.30192 -3.66551,2.85094 -10.03651,2.85094 -3.60732,0 -6.63281,-0.84364 -2.99641,-0.87274 -5.0328,-1.89094 v -6.13826 h 0.29091 q 2.58913,1.94911 5.76008,3.11277 3.17095,1.13456 6.08009,1.13456 3.60732,0 5.64371,-1.16366 2.03639,-1.16365 2.03639,-3.6655 0,-1.92003 -1.10547,-2.90913 -1.10547,-0.98911 -4.24733,-1.6873 -1.16365,-0.26182 -3.05459,-0.61091 -1.86184,-0.3491 -3.40368,-0.75638 -4.27642,-1.13456 -6.08008,-3.31641 -1.77457,-2.21094 -1.77457,-5.41098 0,-2.0073 0.81455,-3.78187 0.84365,-1.77457 2.53095,-3.17095 1.62911,-1.36729 4.13096,-2.15276 2.53095,-0.81456 5.64372,-0.81456 2.90913,0 5.87644,0.72729 2.99641,0.69819 4.97461,1.71638 v 5.84736 h -0.29091 q -2.09457,-1.54184 -5.09098,-2.58913 -2.9964,-1.07638 -5.87644,-1.07638 -2.99641,0 -5.06189,1.16365 -2.06548,1.13456 -2.06548,3.40369 0,2.0073 1.25092,3.02549 1.22184,1.0182 3.95642,1.65821 1.51275,0.34909 3.37459,0.69819 1.89094,0.34909 3.14186,0.64001 3.81097,0.87274 5.87645,2.9964 2.06548,2.15276 2.06548,5.7019 z"
     style="font-size:59.579px;text-align:center;text-anchor:middle;stroke-width:3.19173"
     id="path1596" /></g>
        <g
   id="inspired-by-airwindows"
   serif:id="inspired by airwindows">
            <path
   id="path11"
   d="m 97.041,1446.58 v -1.68 h 1.465 v 1.68 z m 0,10.25 v -8.65 h 1.465 v 8.65 z"
   style="fill-rule:nonzero" />
            <path
   id="path13"
   d="m 100.736,1456.83 v -8.64 h 1.318 v 1.23 c 0.635,-0.95 1.552,-1.43 2.751,-1.43 0.521,0 0.999,0.1 1.436,0.28 0.437,0.19 0.764,0.44 0.981,0.74 0.217,0.3 0.369,0.66 0.455,1.08 0.055,0.27 0.082,0.75 0.082,1.43 v 5.31 h -1.465 v -5.26 c 0,-0.59 -0.057,-1.04 -0.171,-1.34 -0.114,-0.29 -0.316,-0.53 -0.606,-0.7 -0.29,-0.18 -0.631,-0.27 -1.022,-0.27 -0.623,0 -1.162,0.2 -1.615,0.6 -0.453,0.39 -0.679,1.14 -0.679,2.25 v 4.72 z"
   style="fill-rule:nonzero" />
            <path
   id="path15"
   d="m 109.419,1454.25 1.449,-0.23 c 0.081,0.58 0.307,1.03 0.679,1.34 0.372,0.31 0.891,0.46 1.558,0.46 0.673,0 1.172,-0.14 1.498,-0.41 0.325,-0.27 0.488,-0.6 0.488,-0.96 0,-0.33 -0.144,-0.6 -0.431,-0.79 -0.201,-0.13 -0.7,-0.29 -1.498,-0.49 -1.074,-0.27 -1.818,-0.51 -2.233,-0.71 -0.415,-0.19 -0.73,-0.47 -0.944,-0.82 -0.215,-0.35 -0.322,-0.73 -0.322,-1.16 0,-0.38 0.088,-0.74 0.265,-1.07 0.176,-0.33 0.416,-0.6 0.72,-0.82 0.228,-0.16 0.538,-0.31 0.932,-0.42 0.393,-0.12 0.815,-0.18 1.265,-0.18 0.678,0 1.274,0.1 1.786,0.3 0.513,0.19 0.891,0.46 1.136,0.79 0.244,0.33 0.412,0.78 0.504,1.34 l -1.432,0.19 c -0.065,-0.44 -0.254,-0.79 -0.566,-1.04 -0.312,-0.25 -0.752,-0.37 -1.322,-0.37 -0.673,0 -1.153,0.11 -1.441,0.33 -0.287,0.22 -0.431,0.48 -0.431,0.78 0,0.19 0.06,0.36 0.179,0.51 0.119,0.16 0.307,0.29 0.562,0.39 0.146,0.06 0.577,0.18 1.294,0.38 1.036,0.28 1.759,0.5 2.168,0.68 0.41,0.17 0.731,0.43 0.965,0.77 0.233,0.33 0.35,0.75 0.35,1.25 0,0.49 -0.143,0.95 -0.428,1.38 -0.284,0.43 -0.695,0.76 -1.232,1 -0.538,0.24 -1.145,0.36 -1.823,0.36 -1.123,0 -1.979,-0.24 -2.568,-0.7 -0.589,-0.47 -0.964,-1.16 -1.127,-2.08 z"
   style="fill-rule:nonzero" />
            <path
   id="path17"
   d="m 118.338,1460.14 v -11.96 h 1.335 v 1.13 c 0.315,-0.44 0.67,-0.77 1.066,-0.99 0.396,-0.22 0.876,-0.33 1.44,-0.33 0.738,0 1.389,0.19 1.953,0.57 0.565,0.38 0.991,0.92 1.278,1.61 0.288,0.69 0.431,1.45 0.431,2.27 0,0.89 -0.158,1.68 -0.476,2.39 -0.317,0.71 -0.778,1.25 -1.383,1.63 -0.605,0.38 -1.241,0.56 -1.908,0.56 -0.489,0 -0.927,-0.1 -1.315,-0.31 -0.388,-0.2 -0.706,-0.46 -0.956,-0.78 v 4.21 z m 1.327,-7.58 c 0,1.11 0.225,1.93 0.675,2.46 0.45,0.53 0.996,0.8 1.636,0.8 0.651,0 1.208,-0.28 1.672,-0.83 0.464,-0.55 0.696,-1.4 0.696,-2.56 0,-1.1 -0.226,-1.92 -0.679,-2.47 -0.453,-0.55 -0.995,-0.82 -1.624,-0.82 -0.624,0 -1.176,0.29 -1.656,0.87 -0.48,0.59 -0.72,1.43 -0.72,2.55 z"
   style="fill-rule:nonzero" />
            <path
   id="path19"
   d="m 127.616,1446.58 v -1.68 h 1.464 v 1.68 z m 0,10.25 v -8.65 h 1.464 v 8.65 z"
   style="fill-rule:nonzero" />
            <path
   id="path21"
   d="m 131.294,1456.83 v -8.64 h 1.318 v 1.31 c 0.337,-0.62 0.647,-1.02 0.932,-1.21 0.285,-0.2 0.598,-0.3 0.94,-0.3 0.494,0 0.996,0.16 1.506,0.47 l -0.505,1.36 c -0.358,-0.21 -0.716,-0.31 -1.074,-0.31 -0.32,0 -0.608,0.09 -0.863,0.29 -0.255,0.19 -0.437,0.45 -0.545,0.8 -0.163,0.52 -0.244,1.09 -0.244,1.71 v 4.52 z"
   style="fill-rule:nonzero" />
            <path
   id="path23"
   d="m 142.777,1454.04 1.513,0.19 c -0.238,0.88 -0.681,1.57 -1.326,2.06 -0.646,0.48 -1.47,0.73 -2.474,0.73 -1.264,0 -2.267,-0.39 -3.007,-1.17 -0.741,-0.78 -1.111,-1.87 -1.111,-3.27 0,-1.46 0.374,-2.59 1.123,-3.39 0.749,-0.8 1.72,-1.2 2.914,-1.2 1.155,0 2.099,0.39 2.832,1.17 0.732,0.79 1.098,1.9 1.098,3.33 0,0.08 -0.003,0.21 -0.008,0.39 h -6.445 c 0.054,0.95 0.323,1.67 0.805,2.18 0.483,0.5 1.085,0.75 1.807,0.75 0.537,0 0.996,-0.14 1.375,-0.42 0.38,-0.28 0.681,-0.73 0.904,-1.35 z m -4.81,-2.37 h 4.826 c -0.065,-0.73 -0.25,-1.27 -0.553,-1.63 -0.467,-0.57 -1.072,-0.85 -1.815,-0.85 -0.673,0 -1.239,0.22 -1.697,0.68 -0.458,0.45 -0.712,1.05 -0.761,1.8 z"
   style="fill-rule:nonzero" />
            <path
   id="path25"
   d="m 151.737,1456.83 v -1.09 c -0.548,0.86 -1.354,1.29 -2.417,1.29 -0.689,0 -1.323,-0.19 -1.901,-0.57 -0.577,-0.38 -1.025,-0.91 -1.342,-1.59 -0.318,-0.69 -0.476,-1.47 -0.476,-2.35 0,-0.87 0.143,-1.65 0.431,-2.35 0.287,-0.7 0.719,-1.24 1.294,-1.62 0.575,-0.37 1.218,-0.56 1.929,-0.56 0.52,0 0.984,0.11 1.391,0.33 0.407,0.22 0.738,0.51 0.993,0.86 v -4.28 h 1.457 v 11.93 z m -4.631,-4.31 c 0,1.1 0.233,1.93 0.7,2.48 0.467,0.55 1.017,0.82 1.652,0.82 0.64,0 1.184,-0.26 1.632,-0.78 0.447,-0.53 0.671,-1.33 0.671,-2.4 0,-1.18 -0.228,-2.05 -0.684,-2.6 -0.455,-0.56 -1.017,-0.84 -1.684,-0.84 -0.651,0 -1.195,0.27 -1.632,0.8 -0.437,0.53 -0.655,1.37 -0.655,2.52 z"
   style="fill-rule:nonzero" />
            <path
   id="path27"
   d="m 161.38,1456.83 h -1.359 v -11.93 h 1.465 v 4.26 c 0.618,-0.78 1.408,-1.17 2.368,-1.17 0.532,0 1.035,0.11 1.51,0.32 0.474,0.22 0.865,0.52 1.172,0.91 0.306,0.39 0.546,0.85 0.72,1.4 0.173,0.55 0.26,1.14 0.26,1.76 0,1.48 -0.366,2.62 -1.098,3.43 -0.733,0.81 -1.612,1.22 -2.637,1.22 -1.02,0 -1.82,-0.43 -2.401,-1.28 z m -0.016,-4.39 c 0,1.04 0.141,1.79 0.423,2.25 0.461,0.75 1.085,1.13 1.872,1.13 0.64,0 1.193,-0.28 1.66,-0.83 0.467,-0.56 0.7,-1.39 0.7,-2.49 0,-1.13 -0.224,-1.96 -0.672,-2.5 -0.447,-0.54 -0.988,-0.8 -1.623,-0.8 -0.64,0 -1.194,0.28 -1.66,0.83 -0.467,0.56 -0.7,1.36 -0.7,2.41 z"
   style="fill-rule:nonzero" />
            <path
   id="path29"
   d="m 169.233,1460.15 -0.162,-1.37 c 0.32,0.08 0.599,0.12 0.838,0.12 0.325,0 0.586,-0.05 0.781,-0.16 0.195,-0.11 0.355,-0.26 0.48,-0.45 0.092,-0.15 0.242,-0.51 0.448,-1.09 0.027,-0.08 0.07,-0.2 0.13,-0.36 l -3.28,-8.66 h 1.579 l 1.799,5 c 0.233,0.64 0.442,1.31 0.626,2.01 0.169,-0.68 0.369,-1.33 0.603,-1.97 l 1.847,-5.04 h 1.465 l -3.288,8.79 c -0.353,0.95 -0.627,1.6 -0.822,1.96 -0.26,0.48 -0.559,0.84 -0.895,1.06 -0.337,0.23 -0.738,0.34 -1.205,0.34 -0.282,0 -0.596,-0.06 -0.944,-0.18 z"
   style="fill-rule:nonzero" />
            <path
   id="path31"
   d="m 187.902,1455.76 c -0.543,0.46 -1.065,0.79 -1.567,0.98 -0.501,0.19 -1.04,0.28 -1.615,0.28 -0.949,0 -1.679,-0.23 -2.189,-0.69 -0.51,-0.47 -0.765,-1.06 -0.765,-1.78 0,-0.43 0.096,-0.81 0.289,-1.16 0.192,-0.35 0.445,-0.63 0.757,-0.84 0.312,-0.22 0.663,-0.38 1.054,-0.48 0.287,-0.08 0.721,-0.15 1.302,-0.22 1.182,-0.15 2.053,-0.31 2.612,-0.51 0.005,-0.2 0.008,-0.33 0.008,-0.38 0,-0.6 -0.138,-1.02 -0.415,-1.26 -0.374,-0.33 -0.93,-0.5 -1.668,-0.5 -0.689,0 -1.198,0.12 -1.526,0.36 -0.328,0.24 -0.571,0.67 -0.728,1.29 l -1.433,-0.2 c 0.13,-0.61 0.345,-1.11 0.643,-1.49 0.299,-0.37 0.73,-0.66 1.294,-0.87 0.564,-0.2 1.218,-0.3 1.961,-0.3 0.738,0 1.338,0.09 1.799,0.26 0.461,0.17 0.8,0.39 1.017,0.65 0.217,0.27 0.369,0.6 0.456,1 0.049,0.25 0.073,0.7 0.073,1.35 v 1.95 c 0,1.37 0.031,2.23 0.094,2.59 0.062,0.36 0.185,0.71 0.37,1.04 h -1.53 c -0.152,-0.31 -0.25,-0.66 -0.293,-1.07 z m -0.122,-3.27 c -0.532,0.21 -1.329,0.4 -2.393,0.55 -0.602,0.09 -1.028,0.19 -1.277,0.3 -0.25,0.1 -0.442,0.26 -0.578,0.47 -0.136,0.21 -0.204,0.44 -0.204,0.7 0,0.39 0.148,0.71 0.444,0.97 0.296,0.26 0.728,0.39 1.298,0.39 0.564,0 1.066,-0.12 1.506,-0.37 0.439,-0.24 0.762,-0.58 0.968,-1.01 0.157,-0.33 0.236,-0.82 0.236,-1.46 z"
   style="fill-rule:nonzero" />
            <path
   id="path33"
   d="m 191.54,1446.58 v -1.68 h 1.465 v 1.68 z m 0,10.25 v -8.65 h 1.465 v 8.65 z"
   style="fill-rule:nonzero" />
            <path
   id="path35"
   d="m 195.218,1456.83 v -8.64 h 1.318 v 1.31 c 0.337,-0.62 0.647,-1.02 0.932,-1.21 0.285,-0.2 0.598,-0.3 0.94,-0.3 0.494,0 0.996,0.16 1.506,0.47 l -0.505,1.36 c -0.358,-0.21 -0.716,-0.31 -1.074,-0.31 -0.32,0 -0.608,0.09 -0.863,0.29 -0.255,0.19 -0.436,0.45 -0.545,0.8 -0.163,0.52 -0.244,1.09 -0.244,1.71 v 4.52 z"
   style="fill-rule:nonzero" />
            <path
   id="path37"
   d="m 202.38,1456.83 -2.645,-8.64 h 1.513 l 1.376,4.99 0.512,1.85 c 0.022,-0.09 0.171,-0.68 0.448,-1.78 l 1.375,-5.06 h 1.506 l 1.294,5.01 0.431,1.65 0.497,-1.67 1.481,-4.99 h 1.424 l -2.702,8.64 h -1.522 l -1.375,-5.18 -0.334,-1.47 -1.749,6.65 z"
   style="fill-rule:nonzero" />
            <path
   id="path39"
   d="m 212.829,1446.58 v -1.68 h 1.465 v 1.68 z m 0,10.25 v -8.65 h 1.465 v 8.65 z"
   style="fill-rule:nonzero" />
            <path
   id="path41"
   d="m 216.523,1456.83 v -8.64 h 1.319 v 1.23 c 0.635,-0.95 1.551,-1.43 2.75,-1.43 0.521,0 1,0.1 1.437,0.28 0.437,0.19 0.763,0.44 0.98,0.74 0.217,0.3 0.369,0.66 0.456,1.08 0.054,0.27 0.082,0.75 0.082,1.43 v 5.31 h -1.465 v -5.26 c 0,-0.59 -0.057,-1.04 -0.171,-1.34 -0.114,-0.29 -0.316,-0.53 -0.606,-0.7 -0.291,-0.18 -0.631,-0.27 -1.022,-0.27 -0.624,0 -1.162,0.2 -1.615,0.6 -0.453,0.39 -0.68,1.14 -0.68,2.25 v 4.72 z"
   style="fill-rule:nonzero" />
            <path
   id="path43"
   d="m 231.4,1456.83 v -1.09 c -0.548,0.86 -1.354,1.29 -2.417,1.29 -0.689,0 -1.323,-0.19 -1.9,-0.57 -0.578,-0.38 -1.026,-0.91 -1.343,-1.59 -0.318,-0.69 -0.476,-1.47 -0.476,-2.35 0,-0.87 0.143,-1.65 0.431,-2.35 0.288,-0.7 0.719,-1.24 1.294,-1.62 0.575,-0.37 1.218,-0.56 1.929,-0.56 0.52,0 0.984,0.11 1.391,0.33 0.407,0.22 0.738,0.51 0.993,0.86 v -4.28 h 1.457 v 11.93 z m -4.631,-4.31 c 0,1.1 0.233,1.93 0.7,2.48 0.467,0.55 1.017,0.82 1.652,0.82 0.64,0 1.184,-0.26 1.632,-0.78 0.447,-0.53 0.671,-1.33 0.671,-2.4 0,-1.18 -0.228,-2.05 -0.683,-2.6 -0.456,-0.56 -1.018,-0.84 -1.685,-0.84 -0.651,0 -1.195,0.27 -1.632,0.8 -0.436,0.53 -0.655,1.37 -0.655,2.52 z"
   style="fill-rule:nonzero" />
            <path
   id="path45"
   d="m 234.517,1452.5 c 0,-1.6 0.444,-2.79 1.334,-3.56 0.744,-0.64 1.65,-0.96 2.718,-0.96 1.188,0 2.16,0.39 2.914,1.17 0.754,0.78 1.131,1.86 1.131,3.23 0,1.11 -0.167,1.99 -0.501,2.62 -0.333,0.64 -0.819,1.13 -1.456,1.49 -0.638,0.35 -1.334,0.53 -2.088,0.53 -1.21,0 -2.187,-0.39 -2.933,-1.17 -0.746,-0.77 -1.119,-1.89 -1.119,-3.35 z m 1.505,0 c 0,1.11 0.242,1.93 0.724,2.49 0.483,0.55 1.091,0.82 1.823,0.82 0.727,0 1.332,-0.27 1.815,-0.83 0.483,-0.55 0.724,-1.39 0.724,-2.53 0,-1.07 -0.242,-1.88 -0.728,-2.43 -0.486,-0.55 -1.089,-0.82 -1.811,-0.82 -0.732,0 -1.34,0.27 -1.823,0.82 -0.482,0.55 -0.724,1.37 -0.724,2.48 z"
   style="fill-rule:nonzero" />
            <path
   id="path47"
   d="m 245.926,1456.83 -2.645,-8.64 h 1.514 l 1.375,4.99 0.513,1.85 c 0.022,-0.09 0.171,-0.68 0.448,-1.78 l 1.375,-5.06 h 1.505 l 1.294,5.01 0.432,1.65 0.496,-1.67 1.481,-4.99 h 1.424 l -2.701,8.64 h -1.522 l -1.376,-5.18 -0.333,-1.47 -1.75,6.65 z"
   style="fill-rule:nonzero" />
            <path
   id="path49"
   d="m 255.781,1454.25 1.449,-0.23 c 0.081,0.58 0.308,1.03 0.679,1.34 0.372,0.31 0.891,0.46 1.559,0.46 0.673,0 1.172,-0.14 1.497,-0.41 0.326,-0.27 0.488,-0.6 0.488,-0.96 0,-0.33 -0.143,-0.6 -0.431,-0.79 -0.201,-0.13 -0.7,-0.29 -1.497,-0.49 -1.074,-0.27 -1.819,-0.51 -2.234,-0.71 -0.415,-0.19 -0.73,-0.47 -0.944,-0.82 -0.214,-0.35 -0.322,-0.73 -0.322,-1.16 0,-0.38 0.089,-0.74 0.265,-1.07 0.176,-0.33 0.416,-0.6 0.72,-0.82 0.228,-0.16 0.539,-0.31 0.932,-0.42 0.393,-0.12 0.815,-0.18 1.265,-0.18 0.679,0 1.274,0.1 1.787,0.3 0.512,0.19 0.891,0.46 1.135,0.79 0.244,0.33 0.412,0.78 0.504,1.34 l -1.432,0.19 c -0.065,-0.44 -0.253,-0.79 -0.565,-1.04 -0.312,-0.25 -0.753,-0.37 -1.323,-0.37 -0.673,0 -1.153,0.11 -1.44,0.33 -0.288,0.22 -0.432,0.48 -0.432,0.78 0,0.19 0.06,0.36 0.179,0.51 0.12,0.16 0.307,0.29 0.562,0.39 0.146,0.06 0.578,0.18 1.294,0.38 1.036,0.28 1.759,0.5 2.169,0.68 0.409,0.17 0.731,0.43 0.964,0.77 0.233,0.33 0.35,0.75 0.35,1.25 0,0.49 -0.142,0.95 -0.427,1.38 -0.285,0.43 -0.696,0.76 -1.233,1 -0.537,0.24 -1.145,0.36 -1.823,0.36 -1.123,0 -1.979,-0.24 -2.568,-0.7 -0.588,-0.47 -0.964,-1.16 -1.127,-2.08 z"
   style="fill-rule:nonzero" />
        </g>
        
        <g
   id="rect76"
   transform="matrix(1.28877,0,0,1.30682,-49.42,-27.6528)">
            <rect
   x="70.117996"
   y="90.126999"
   width="219.76401"
   height="134.258"
   style="fill:none;stroke:#000000;stroke-width:2.08px"
   id="rect869" />
        </g>
    </g><g
     id="path81"
     transform="matrix(0.13118076,0,0,0.13402028,-10.290764,-61.810363)"
     style="clip-rule:evenodd;display:inline;fill-rule:evenodd;stroke-linecap:round;stroke-linejoin:round;stroke-miterlimit:1.5">
                <path
   d="m 280.541,1249.07 c 0,-2.55 -2.072,-4.62 -4.623,-4.62 h -64.707 c -2.552,0 -4.623,2.07 -4.623,4.62 v 86.81 c 0,2.55 2.071,4.62 4.623,4.62 h 64.707 c 2.551,0 4.623,-2.07 4.623,-4.62 z"
   style="stroke:#000000;stroke-width:2.08px"
   id="path876" />
            </g><g
     id="path104"
     transform="matrix(0.13118076,0,0,0.13402028,-10.290764,-56.518696)"
     style="clip-rule:evenodd;display:inline;fill-rule:evenodd;stroke-linecap:round;stroke-linejoin:round;stroke-miterlimit:1.5">
                <path
   d="m 280.541,1082.46 c 0,-2.58 -2.097,-4.68 -4.68,-4.68 H 210.35 c -2.583,0 -4.68,2.1 -4.68,4.68 v 86.69 c 0,2.59 2.097,4.68 4.68,4.68 h 65.511 c 2.583,0 4.68,-2.09 4.68,-4.68 z"
   style="stroke:#000000;stroke-width:2.08px"
   id="path879" />
            </g><path
     id="path83"
     d="m 17.499693,107.0457 c 0,-0.3511 0.09201,-0.62434 0.27618,-0.82255 0.184305,-0.1982 0.421962,-0.29872 0.713386,-0.29872 0.19068,0 0.362652,0.0467 0.515916,0.14016 0.153126,0.0934 0.269944,0.22369 0.350318,0.38933 0.08037,0.16706 0.120561,0.35535 0.120561,0.56772 0,0.21377 -0.0424,0.4049 -0.126935,0.57479 -0.08453,0.16847 -0.204399,0.29589 -0.359465,0.38367 -0.155065,0.0864 -0.322326,0.13025 -0.501781,0.13025 -0.19456,0 -0.368472,-0.0481 -0.521597,-0.14441 -0.153265,-0.0963 -0.269252,-0.22652 -0.34824,-0.39358 -0.07899,-0.16564 -0.118343,-0.34119 -0.118343,-0.52666 z m 0.281862,0.004 c 0,0.25484 0.06693,0.45446 0.200934,0.60169 0.133864,0.14583 0.301817,0.21945 0.50386,0.21945 0.205923,0 0.375262,-0.0736 0.508294,-0.22228 0.132894,-0.14723 0.19941,-0.35677 0.19941,-0.62859 0,-0.17272 -0.02841,-0.32279 -0.08522,-0.45021 -0.05695,-0.12883 -0.1401,-0.22793 -0.249574,-0.29872 -0.109474,-0.0708 -0.232391,-0.10618 -0.36861,-0.10618 -0.19359,0 -0.360157,0.0679 -0.499703,0.20387 -0.139545,0.13591 -0.209387,0.36384 -0.209387,0.68097 z"
     style="clip-rule:evenodd;display:inline;fill:#e6e6e6;fill-rule:nonzero;stroke-width:0.140067;stroke-linecap:round;stroke-linejoin:round;stroke-miterlimit:1.5" /><path
     id="path85"
     d="m 21.184549,105.96266 h 0.273409 v 1.22037 c 0,0.21236 -0.02342,0.38084 -0.07053,0.50542 -0.04698,0.12459 -0.131785,0.22511 -0.254424,0.30439 -0.12264,0.0779 -0.283526,0.11751 -0.482797,0.11751 -0.19359,0 -0.351981,-0.034 -0.475036,-0.10194 -0.123055,-0.0694 -0.210912,-0.16705 -0.26357,-0.29589 -0.05266,-0.13025 -0.07899,-0.3058 -0.07899,-0.52949 v -1.22037 h 0.273548 v 1.21896 c 0,0.18263 0.01663,0.31854 0.05003,0.4049 0.0334,0.0864 0.09063,0.15432 0.171972,0.20104 0.08121,0.0467 0.180702,0.0708 0.298076,0.0708 0.201211,0 0.344498,-0.0467 0.429999,-0.14016 0.0855,-0.0934 0.128321,-0.27182 0.128321,-0.53656 z"
     style="clip-rule:evenodd;display:inline;fill:#e6e6e6;fill-rule:nonzero;stroke-width:0.140067;stroke-linecap:round;stroke-linejoin:round;stroke-miterlimit:1.5" /><path
     id="path87"
     d="m 22.439071,108.07354 v -1.86171 H 21.75825 v -0.24917 h 1.63796 v 0.24917 h -0.683592 v 1.86171 z"
     style="clip-rule:evenodd;display:inline;fill:#e6e6e6;fill-rule:nonzero;stroke-width:0.140067;stroke-linecap:round;stroke-linejoin:round;stroke-miterlimit:1.5" /><path
     id="path89"
     d="m 25.657343,107.82437 v 0.24917 h -1.365936 c -0.0019,-0.0623 0.008,-0.12176 0.02952,-0.1798 0.03478,-0.0949 0.09049,-0.1883 0.167122,-0.28032 0.07663,-0.0934 0.187215,-0.19962 0.332027,-0.31996 0.224492,-0.18829 0.37637,-0.33836 0.455219,-0.44738 0.07899,-0.11042 0.118482,-0.21377 0.118482,-0.31288 0,-0.10193 -0.03603,-0.18829 -0.107811,-0.25908 -0.07192,-0.0708 -0.165736,-0.10618 -0.281308,-0.10618 -0.122085,0 -0.219919,0.0382 -0.293225,0.11184 -0.07331,0.075 -0.110445,0.1798 -0.111276,0.31147 l -0.260799,-0.0269 c 0.01788,-0.19821 0.08495,-0.35111 0.201488,-0.45446 0.116542,-0.10476 0.272994,-0.15573 0.469493,-0.15573 0.198302,0 0.355169,0.0552 0.470741,0.16848 0.11571,0.11184 0.173496,0.25058 0.173496,0.41764 0,0.0835 -0.01691,0.16706 -0.05086,0.24917 -0.03381,0.0807 -0.08994,0.16706 -0.168369,0.25767 -0.07843,0.0892 -0.208833,0.21378 -0.391198,0.37093 -0.152294,0.13025 -0.24999,0.21944 -0.293226,0.26616 -0.04323,0.0467 -0.07899,0.0934 -0.107118,0.14016 z"
     style="clip-rule:evenodd;display:inline;fill:#e6e6e6;fill-rule:nonzero;stroke-width:0.140067;stroke-linecap:round;stroke-linejoin:round;stroke-miterlimit:1.5" /><g
     id="g114"
     transform="matrix(0.1385753,0,0,0.14157488,-12.322959,-65.257003)"
     style="clip-rule:evenodd;display:inline;fill-rule:evenodd;stroke-linecap:round;stroke-linejoin:round;stroke-miterlimit:1.5">
            <rect
   id="rect108"
   x="226.561"
   y="1086.26"
   width="1.973"
   height="14.913"
   style="fill:#e6e6e6" />
            <path
   id="path110"
   d="m 231.993,1101.17 v -14.91 h 2.025 l 7.832,11.71 v -11.71 h 1.893 v 14.91 h -2.025 l -7.833,-11.72 v 11.72 z"
   style="fill:#e6e6e6;fill-rule:nonzero" />
            <path
   id="path112"
   d="m 261.728,1099.41 v 1.76 h -9.858 c -0.013,-0.44 0.058,-0.86 0.214,-1.27 0.251,-0.67 0.653,-1.33 1.205,-1.99 0.553,-0.65 1.352,-1.4 2.396,-2.25 1.621,-1.33 2.716,-2.38 3.286,-3.16 0.57,-0.78 0.854,-1.51 0.854,-2.2 0,-0.73 -0.259,-1.34 -0.778,-1.84 -0.519,-0.5 -1.195,-0.75 -2.029,-0.75 -0.882,0 -1.587,0.27 -2.116,0.8 -0.529,0.52 -0.797,1.26 -0.804,2.19 l -1.882,-0.19 c 0.129,-1.4 0.614,-2.47 1.455,-3.21 0.841,-0.74 1.97,-1.1 3.387,-1.1 1.431,0 2.564,0.39 3.398,1.19 0.834,0.79 1.251,1.77 1.251,2.95 0,0.59 -0.122,1.18 -0.366,1.76 -0.244,0.57 -0.649,1.18 -1.216,1.82 -0.566,0.64 -1.507,1.51 -2.822,2.62 -1.099,0.92 -1.804,1.55 -2.116,1.88 -0.312,0.33 -0.57,0.66 -0.773,0.99 z"
   style="fill:#e6e6e6;fill-rule:nonzero" />
        </g><g
     id="path79"
     transform="matrix(0.13118076,0,0,0.13402028,-6.423356,-61.810363)"
     style="clip-rule:evenodd;display:inline;fill-rule:evenodd;stroke-linecap:round;stroke-linejoin:round;stroke-miterlimit:1.5">
                <path
   d="m 153.746,1249.09 c 0,-2.56 -2.081,-4.64 -4.644,-4.64 H 84.103 c -2.563,0 -4.644,2.08 -4.644,4.64 v 86.77 c 0,2.56 2.081,4.64 4.644,4.64 h 64.999 c 2.563,0 4.644,-2.08 4.644,-4.64 z"
   style="stroke:#000000;stroke-width:2.08px"
   id="path873" />
            </g><g
     id="path106"
     transform="matrix(0.13118076,0,0,0.13402028,-6.423356,-56.518696)"
     style="clip-rule:evenodd;display:inline;fill-rule:evenodd;stroke-linecap:round;stroke-linejoin:round;stroke-miterlimit:1.5">
                <path
   d="m 154.163,1082.45 c 0,-2.58 -2.092,-4.67 -4.669,-4.67 H 84.129 c -2.577,0 -4.67,2.09 -4.67,4.67 v 86.71 c 0,2.58 2.093,4.67 4.67,4.67 h 65.365 c 2.577,0 4.669,-2.09 4.669,-4.67 z"
   style="stroke:#000000;stroke-width:2.08px"
   id="path882" />
            </g><path
     id="path93"
     d="m 4.8526955,107.0457 c 0,-0.3511 0.092153,-0.62434 0.2763192,-0.82255 0.1841665,-0.1982 0.4219617,-0.29872 0.713247,-0.29872 0.1908182,0 0.3627902,0.0467 0.5160544,0.14016 0.1531258,0.0934 0.2699447,0.22369 0.3501798,0.38933 0.080374,0.16706 0.1205605,0.35535 0.1205605,0.56772 0,0.21377 -0.042265,0.4049 -0.1267964,0.57479 -0.08467,0.16847 -0.2043985,0.29589 -0.3594643,0.38367 -0.1550657,0.0864 -0.3223261,0.13025 -0.5019197,0.13025 -0.1945597,0 -0.3683332,-0.0481 -0.5215975,-0.14441 -0.1531257,-0.0963 -0.2692518,-0.22652 -0.3481011,-0.39358 -0.078988,-0.16564 -0.1184819,-0.34119 -0.1184819,-0.52666 z m 0.2820007,0.004 c 0,0.25484 0.066932,0.45446 0.2007957,0.60169 0.1340023,0.14583 0.3019555,0.21945 0.5039983,0.21945 0.2057843,0 0.3752619,-0.0736 0.5081556,-0.22228 0.1330323,-0.14723 0.1995485,-0.35677 0.1995485,-0.62859 0,-0.17272 -0.028408,-0.32279 -0.085362,-0.45021 -0.056816,-0.12883 -0.1399611,-0.22793 -0.2494355,-0.29872 -0.1094745,-0.0708 -0.2323908,-0.10618 -0.3686103,-0.10618 -0.1935897,0 -0.3601572,0.0679 -0.4998411,0.20387 -0.1395454,0.13591 -0.2092488,0.36384 -0.2092492,0.68097 z"
     style="clip-rule:evenodd;display:inline;fill:#e6e6e6;fill-rule:nonzero;stroke-width:0.140067;stroke-linecap:round;stroke-linejoin:round;stroke-miterlimit:1.5" /><path
     id="path95"
     d="M 8.5375513,105.96266 H 8.811099 v 1.22037 c 0,0.21236 -0.023558,0.38084 -0.070535,0.50542 -0.046977,0.12459 -0.1317851,0.22511 -0.2544242,0.30439 -0.1226392,0.0779 -0.2835251,0.11751 -0.4827964,0.11751 -0.1935897,0 -0.3519812,-0.034 -0.4750361,-0.10194 -0.1231934,-0.0694 -0.2110502,-0.16705 -0.2637088,-0.29589 -0.05252,-0.13025 -0.078849,-0.3058 -0.078849,-0.52949 v -1.22037 h 0.273409 v 1.21896 c 0,0.18263 0.016768,0.31854 0.050026,0.4049 0.033397,0.0864 0.090767,0.15432 0.171972,0.20104 0.081344,0.0467 0.1807022,0.0708 0.298214,0.0708 0.2010728,0 0.3443596,-0.0467 0.4299992,-0.14016 0.085501,-0.0934 0.1281821,-0.27182 0.1281821,-0.53656 z"
     style="clip-rule:evenodd;display:inline;fill:#e6e6e6;fill-rule:nonzero;stroke-width:0.140067;stroke-linecap:round;stroke-linejoin:round;stroke-miterlimit:1.5" /><path
     id="path97"
     d="m 9.7922121,108.07354 v -1.86171 H 9.1113916 v -0.24917 h 1.6379604 v 0.24917 h -0.683731 v 1.86171 z"
     style="clip-rule:evenodd;display:inline;fill:#e6e6e6;fill-rule:nonzero;stroke-width:0.140067;stroke-linecap:round;stroke-linejoin:round;stroke-miterlimit:1.5" /><path
     id="path99"
     d="m 12.63259,108.07354 h -0.253732 v -1.65218 c -0.06097,0.0595 -0.141208,0.11892 -0.240289,0.17838 -0.09908,0.0595 -0.188185,0.10477 -0.267173,0.1345 v -0.25059 c 0.141901,-0.0679 0.266064,-0.15007 0.372213,-0.24775 0.106149,-0.0977 0.181395,-0.19113 0.225462,-0.28174 h 0.163519 z"
     style="clip-rule:evenodd;display:inline;fill:#e6e6e6;fill-rule:nonzero;stroke-width:0.140067;stroke-linecap:round;stroke-linejoin:round;stroke-miterlimit:1.5" /><g
     id="g122"
     transform="matrix(0.1385753,0,0,0.14157488,-7.3592529,-65.257003)"
     style="clip-rule:evenodd;display:inline;fill-rule:evenodd;stroke-linecap:round;stroke-linejoin:round;stroke-miterlimit:1.5">
            <rect
   id="rect116"
   x="99.477997"
   y="1086.26"
   width="1.973"
   height="14.913"
   style="fill:#e6e6e6" />
            <path
   id="path118"
   d="m 104.91,1101.17 v -14.91 h 2.024 l 7.833,11.71 v -11.71 h 1.892 v 14.91 h -2.024 l -7.833,-11.72 v 11.72 z"
   style="fill:#e6e6e6;fill-rule:nonzero" />
            <path
   id="path120"
   d="m 131.918,1101.17 h -1.831 v -11.67 c -0.441,0.42 -1.019,0.84 -1.734,1.26 -0.716,0.42 -1.358,0.74 -1.928,0.95 v -1.77 c 1.024,-0.48 1.919,-1.06 2.685,-1.75 0.767,-0.68 1.309,-1.35 1.628,-1.99 h 1.18 z"
   style="fill:#e6e6e6;fill-rule:nonzero" />
        </g></g>
    
    
    
    
    
    
    
    
    
    
<path
   id="path125"
   d="m 15.249984,66.123348 c 3.486893,0 6.317841,2.892226 6.317841,6.454679 0,3.56237 -2.830948,6.454596 -6.317841,6.454596 -0.486423,0 -0.960133,-0.05631 -1.415145,-0.162802 -0.26556,-0.06217 -0.524724,-0.141519 -0.776342,-0.236704 -2.408085,-0.91112 -4.1263528,-3.279749 -4.1263528,-6.05509 0,-3.562453 2.8309478,-6.454679 6.3178398,-6.454679 z"
   style="fill:none;stroke:#000000;stroke-width:0.345679px;stroke-linejoin:miter;stroke-miterlimit:1;stroke-dasharray:0, 0.690528, 0, 0;stroke-dashoffset:0.345679" /><rect
   id="rect127"
   x="8.6943045"
   y="77.713982"
   width="13.111279"
   height="3.999999"
   style="fill:#e6e6e6;stroke-width:0.0828965" /><g
   id="g139"
   transform="matrix(0.13925427,0,0,0.14226856,-9.8157684,-42.529013)">
            <path
   id="path129"
   d="m 130.7,741.388 v -23.861 h 8.219 c 1.856,0 3.272,0.114 4.248,0.342 1.368,0.315 2.534,0.885 3.5,1.709 1.258,1.064 2.2,2.423 2.824,4.077 0.623,1.655 0.935,3.546 0.935,5.673 0,1.812 -0.211,3.418 -0.634,4.817 -0.424,1.4 -0.966,2.558 -1.628,3.475 -0.662,0.917 -1.386,1.639 -2.173,2.165 -0.786,0.526 -1.736,0.925 -2.848,1.196 -1.112,0.272 -2.39,0.407 -3.833,0.407 z m 3.157,-2.816 h 5.095 c 1.573,0 2.807,-0.146 3.703,-0.439 0.895,-0.293 1.608,-0.705 2.14,-1.237 0.749,-0.749 1.332,-1.755 1.75,-3.019 0.417,-1.264 0.626,-2.797 0.626,-4.598 0,-2.496 -0.409,-4.414 -1.229,-5.754 -0.819,-1.34 -1.814,-2.238 -2.986,-2.693 -0.847,-0.326 -2.208,-0.489 -4.086,-0.489 h -5.013 z"
   style="fill-rule:nonzero" />
            <path
   id="path131"
   d="m 166.23,735.822 3.028,0.374 c -0.478,1.769 -1.362,3.141 -2.653,4.118 -1.291,0.977 -2.941,1.465 -4.948,1.465 -2.528,0 -4.533,-0.779 -6.014,-2.336 -1.481,-1.557 -2.222,-3.741 -2.222,-6.551 0,-2.908 0.749,-5.165 2.246,-6.771 1.498,-1.606 3.44,-2.409 5.827,-2.409 2.311,0 4.199,0.787 5.664,2.36 1.465,1.574 2.197,3.787 2.197,6.641 0,0.174 -0.005,0.434 -0.016,0.781 h -12.89 c 0.108,1.899 0.645,3.353 1.611,4.362 0.966,1.009 2.17,1.514 3.613,1.514 1.074,0 1.991,-0.282 2.751,-0.846 0.759,-0.565 1.362,-1.465 1.806,-2.702 z m -9.619,-4.737 h 9.652 c -0.13,-1.454 -0.499,-2.544 -1.107,-3.271 -0.933,-1.129 -2.143,-1.693 -3.629,-1.693 -1.346,0 -2.477,0.451 -3.394,1.351 -0.917,0.901 -1.424,2.105 -1.522,3.613 z"
   style="fill-rule:nonzero" />
            <path
   id="path133"
   d="m 173.359,741.388 v -23.861 h 10.58 c 2.127,0 3.743,0.215 4.85,0.643 1.107,0.429 1.991,1.186 2.653,2.271 0.662,1.085 0.993,2.284 0.993,3.597 0,1.693 -0.548,3.119 -1.644,4.281 -1.096,1.161 -2.789,1.898 -5.078,2.213 0.835,0.402 1.47,0.798 1.904,1.188 0.922,0.847 1.796,1.904 2.621,3.174 l 4.15,6.494 h -3.971 l -3.158,-4.964 c -0.922,-1.432 -1.682,-2.528 -2.279,-3.288 -0.596,-0.759 -1.131,-1.291 -1.603,-1.595 -0.472,-0.304 -0.952,-0.515 -1.44,-0.635 -0.358,-0.076 -0.944,-0.114 -1.758,-0.114 h -3.662 v 10.596 z m 3.158,-13.33 h 6.787 c 1.443,0 2.572,-0.149 3.385,-0.448 0.814,-0.298 1.433,-0.775 1.856,-1.432 0.423,-0.656 0.635,-1.37 0.635,-2.14 0,-1.129 -0.41,-2.056 -1.229,-2.783 -0.819,-0.727 -2.113,-1.091 -3.882,-1.091 h -7.552 z"
   style="fill-rule:nonzero" />
            <path
   id="path135"
   d="m 208.841,735.822 3.027,0.374 c -0.477,1.769 -1.361,3.141 -2.653,4.118 -1.291,0.977 -2.94,1.465 -4.947,1.465 -2.529,0 -4.533,-0.779 -6.014,-2.336 -1.482,-1.557 -2.222,-3.741 -2.222,-6.551 0,-2.908 0.749,-5.165 2.246,-6.771 1.497,-1.606 3.44,-2.409 5.827,-2.409 2.311,0 4.199,0.787 5.664,2.36 1.465,1.574 2.197,3.787 2.197,6.641 0,0.174 -0.005,0.434 -0.016,0.781 h -12.891 c 0.109,1.899 0.646,3.353 1.612,4.362 0.965,1.009 2.17,1.514 3.613,1.514 1.074,0 1.991,-0.282 2.751,-0.846 0.759,-0.565 1.361,-1.465 1.806,-2.702 z m -9.619,-4.737 h 9.652 c -0.131,-1.454 -0.499,-2.544 -1.107,-3.271 -0.933,-1.129 -2.143,-1.693 -3.63,-1.693 -1.345,0 -2.476,0.451 -3.393,1.351 -0.917,0.901 -1.424,2.105 -1.522,3.613 z"
   style="fill-rule:nonzero" />
            <path
   id="path137"
   d="m 214.001,741.388 v -2.376 l 11.002,-12.63 c -1.248,0.065 -2.349,0.097 -3.304,0.097 h -7.047 v -2.376 h 14.127 v 1.937 l -9.358,10.97 -1.807,2.002 c 1.313,-0.098 2.544,-0.147 3.695,-0.147 h 7.991 v 2.523 z"
   style="fill-rule:nonzero" />
        </g><g
   inkscape:groupmode="layer"
   id="layer1"
   inkscape:label="components"
   style="display:none"><circle
     style="clip-rule:evenodd;display:inline;fill:#ff0000;fill-rule:evenodd;stroke-width:0.264583;stroke-linecap:round;stroke-linejoin:round;stroke-miterlimit:1.5"
     id="derez"
     cx="15.250001"
     cy="72.48185"
     r="2.6825812"
     inkscape:label="derez" /><circle
     style="clip-rule:evenodd;display:inline;fill:#00ff00;fill-opacity:1;fill-rule:evenodd;stroke-width:0.353099;stroke-linecap:round;stroke-linejoin:round;stroke-miterlimit:1.5"
     id="input_2"
     cx="21.63966"
     cy="96.346321"
     r="3.5800402"
     inkscape:label="input_2" /><circle
     style="clip-rule:evenodd;display:inline;fill:#0000ff;fill-opacity:1;fill-rule:evenodd;stroke-width:0.353099;stroke-linecap:round;stroke-linejoin:round;stroke-miterlimit:1.5"
     id="output_2"
     cx="21.682001"
     cy="113.21371"
     r="3.5800402"
     inkscape:label="output_2" /><circle
     style="clip-rule:evenodd;display:inline;fill:#0000ff;fill-opacity:1;fill-rule:evenodd;stroke-width:0.353099;stroke-linecap:round;stroke-linejoin:round;stroke-miterlimit:1.5"
     id="output_1"
     cx="8.8457088"
     cy="113.33265"
     r="3.5800402"
     inkscape:label="output_1" /><circle
     style="clip-rule:evenodd;display:inline;fill:#00ff00;fill-opacity:1;fill-rule:evenodd;stroke-width:0.353099;stroke-linecap:round;stroke-linejoin:round;stroke-miterlimit:1.5"
     id="input_1"
     cx="8.8193293"
     cy="96.346321"
     r="3.5800402"
     inkscape:label="input_1" /><circle
     style="clip-rule:evenodd;display:inline;fill:#ff0000;fill-rule:evenodd;stroke-width:0.264583;stroke-linecap:round;stroke-linejoin:round;stroke-miterlimit:1.5"
     id="enabled"
     cx="9.958333"
     cy="40.361702"
     r="2.6825812"
     inkscape:label="enabled" /><circle
     style="clip-rule:evenodd;display:inline;fill:#ff0000;fill-rule:evenodd;stroke-width:0.264583;stroke-linecap:round;stroke-linejoin:round;stroke-miterlimit:1.5"
     id="res"
     cx="20.541666"
     cy="40.410782"
     r="2.6825812"
     inkscape:label="res" /></g><g
   id="g1029"
   transform="matrix(0.30997287,0,0,0.31668253,38.133742,73.591238)">
        
        
    </g><g
   aria-label="16 BIT"
   id="text1092"
   style="font-style:normal;font-weight:normal;font-size:2.11666px;line-height:1.25;font-family:sans-serif;fill:#000000;fill-opacity:1;stroke:none;stroke-width:0.264583"><path
     d="m 18.147045,34.256809 h -0.1524 v -1.310212 l -0.270932,0.230716 -0.09313,-0.105833 0.380998,-0.313266 h 0.135467 z"
     style="font-style:normal;font-variant:normal;font-weight:normal;font-stretch:normal;font-size:2.11666px;font-family:'Avenir Next';-inkscape-font-specification:'Avenir Next';stroke-width:0.264583"
     id="path1520" /><path
     d="m 19.042557,33.412262 0.0042,0.0042 q 0.03387,-0.0254 0.09525,-0.04022 0.06138,-0.01482 0.118533,-0.01482 0.09737,0 0.179916,0.03387 0.08467,0.03387 0.14605,0.09525 0.06138,0.05927 0.09525,0.14605 0.03598,0.08467 0.03598,0.186266 0,0.105833 -0.03598,0.192616 -0.03598,0.08678 -0.1016,0.148166 -0.06562,0.06138 -0.154516,0.09525 -0.0889,0.03598 -0.194733,0.03598 -0.105833,0 -0.194733,-0.03598 -0.0889,-0.03387 -0.154516,-0.09525 -0.06562,-0.06138 -0.1016,-0.148166 -0.03598,-0.08678 -0.03598,-0.192616 0,-0.116416 0.04022,-0.215899 0.04022,-0.09948 0.09525,-0.1905 l 0.408516,-0.658281 h 0.175683 z m -0.146049,0.410632 q 0,0.07408 0.02328,0.137583 0.0254,0.06138 0.06985,0.107949 0.04445,0.04445 0.105833,0.07197 0.06138,0.0254 0.135466,0.0254 0.07408,0 0.135466,-0.0254 0.06138,-0.02752 0.105833,-0.07197 0.04445,-0.04657 0.06773,-0.107949 0.0254,-0.0635 0.0254,-0.137583 0,-0.07197 -0.02328,-0.13335 -0.02328,-0.0635 -0.06773,-0.107949 -0.04233,-0.04657 -0.105833,-0.07197 -0.06138,-0.0254 -0.137583,-0.0254 -0.0762,0 -0.1397,0.0254 -0.06138,0.0254 -0.105833,0.07197 -0.04233,0.04445 -0.06562,0.107949 -0.02328,0.06138 -0.02328,0.13335 z"
     style="font-style:normal;font-variant:normal;font-weight:normal;font-stretch:normal;font-size:2.11666px;font-family:'Avenir Next';-inkscape-font-specification:'Avenir Next';stroke-width:0.264583"
     id="path1522" /><path
     d="m 20.573068,32.758214 h 0.446615 q 0.08467,0 0.17145,0.01905 0.08678,0.01693 0.154516,0.06138 0.06985,0.04233 0.112183,0.116416 0.04445,0.07408 0.04445,0.186266 0,0.118533 -0.07197,0.207433 -0.07197,0.08678 -0.192616,0.1143 v 0.0042 q 0.14605,0.01693 0.241299,0.1143 0.09737,0.09525 0.09737,0.260349 0,0.09313 -0.04022,0.171449 -0.0381,0.0762 -0.110066,0.131233 -0.07197,0.05292 -0.175683,0.08255 -0.103716,0.02963 -0.232832,0.02963 h -0.444499 z m 0.152399,0.656165 h 0.306916 q 0.05503,0 0.110067,-0.0127 0.05715,-0.0127 0.103716,-0.04233 0.04657,-0.03175 0.07408,-0.08255 0.02963,-0.0508 0.02963,-0.124883 0,-0.07197 -0.02963,-0.12065 -0.02752,-0.0508 -0.0762,-0.08255 -0.04868,-0.03175 -0.114299,-0.04445 -0.06562,-0.01482 -0.1397,-0.01482 h -0.264583 z m 0,0.711197 H 21.0091 q 0.08255,0 0.156633,-0.01482 0.0762,-0.01693 0.131233,-0.0508 0.05715,-0.03598 0.09102,-0.09102 0.03387,-0.05715 0.03387,-0.135466 0,-0.148166 -0.1016,-0.220132 -0.09948,-0.07408 -0.283633,-0.07408 h -0.311149 z"
     style="font-style:normal;font-variant:normal;font-weight:normal;font-stretch:normal;font-size:2.11666px;font-family:'Avenir Next';-inkscape-font-specification:'Avenir Next';stroke-width:0.264583"
     id="path1524" /><path
     d="m 22.073185,34.256809 h -0.1524 v -1.498595 h 0.1524 z"
     style="font-style:normal;font-variant:normal;font-weight:normal;font-stretch:normal;font-size:2.11666px;font-family:'Avenir Next';-inkscape-font-specification:'Avenir Next';stroke-width:0.264583"
     id="path1526" /><path
     d="m 22.951103,34.256809 h -0.1524 V 32.89368 h -0.501648 v -0.135466 h 1.155696 v 0.135466 h -0.501648 z"
     style="font-style:normal;font-variant:normal;font-weight:normal;font-stretch:normal;font-size:2.11666px;font-family:'Avenir Next';-inkscape-font-specification:'Avenir Next';stroke-width:0.264583"
     id="path1528" /></g><g
   aria-label="24 BIT"
   id="text1104"
   style="font-style:normal;font-weight:normal;font-size:2.11666px;line-height:1.25;font-family:sans-serif;fill:#000000;fill-opacity:1;stroke:none;stroke-width:0.264583"><path
     d="m 18.522752,48.636818 h -0.958847 v -0.15875 l 0.613832,-0.620181 q 0.03387,-0.03387 0.06562,-0.07197 0.03387,-0.04022 0.05927,-0.08255 0.0254,-0.04233 0.04022,-0.0889 0.01482,-0.04868 0.01482,-0.09948 0,-0.06562 -0.02328,-0.118533 -0.02328,-0.05292 -0.06562,-0.0889 -0.04022,-0.0381 -0.09525,-0.05715 -0.05292,-0.02117 -0.112183,-0.02117 -0.120649,0 -0.203199,0.0762 -0.08255,0.07408 -0.105833,0.190499 l -0.150283,-0.02963 q 0.01482,-0.07832 0.05503,-0.14605 0.04233,-0.06773 0.1016,-0.116416 0.06138,-0.04868 0.137583,-0.0762 0.0762,-0.02752 0.165099,-0.02752 0.09102,0 0.17145,0.02752 0.08255,0.0254 0.143933,0.07832 0.06138,0.0508 0.09737,0.129116 0.0381,0.0762 0.0381,0.177799 0,0.07197 -0.02117,0.13335 -0.01905,0.06138 -0.05292,0.116416 -0.03175,0.05503 -0.0762,0.105833 -0.04445,0.04868 -0.09313,0.09737 l -0.539748,0.535515 h 0.793747 z"
     style="font-style:normal;font-variant:normal;font-weight:normal;font-stretch:normal;font-size:2.11666px;font-family:'Avenir Next';-inkscape-font-specification:'Avenir Next';stroke-width:0.264583"
     id="path1531" /><path
     d="m 19.606648,48.141519 h 0.220132 v 0.13335 h -0.220132 v 0.361949 h -0.148167 v -0.361949 h -0.685798 v -0.148166 l 0.634999,-0.98848 h 0.198966 z m -0.148167,-0.831847 h -0.0042 l -0.522815,0.831847 h 0.527048 z"
     style="font-style:normal;font-variant:normal;font-weight:normal;font-stretch:normal;font-size:2.11666px;font-family:'Avenir Next';-inkscape-font-specification:'Avenir Next';stroke-width:0.264583"
     id="path1533" /><path
     d="m 20.639743,47.138223 h 0.446615 q 0.08467,0 0.17145,0.01905 0.08678,0.01693 0.154516,0.06138 0.06985,0.04233 0.112183,0.116416 0.04445,0.07408 0.04445,0.186266 0,0.118533 -0.07197,0.207433 -0.07197,0.08678 -0.192616,0.114299 v 0.0042 q 0.14605,0.01693 0.2413,0.114299 0.09737,0.09525 0.09737,0.26035 0,0.09313 -0.04022,0.171449 -0.0381,0.0762 -0.110066,0.131233 -0.07197,0.05292 -0.175683,0.08255 -0.103716,0.02963 -0.232832,0.02963 h -0.444499 z m 0.1524,0.656164 h 0.306915 q 0.05503,0 0.110067,-0.0127 0.05715,-0.0127 0.103716,-0.04233 0.04657,-0.03175 0.07408,-0.08255 0.02963,-0.0508 0.02963,-0.124883 0,-0.07197 -0.02963,-0.120649 -0.02752,-0.0508 -0.0762,-0.08255 -0.04868,-0.03175 -0.114299,-0.04445 -0.06562,-0.01482 -0.1397,-0.01482 h -0.264582 z m 0,0.711198 h 0.283632 q 0.08255,0 0.156633,-0.01482 0.0762,-0.01693 0.131233,-0.0508 0.05715,-0.03598 0.09102,-0.09102 0.03387,-0.05715 0.03387,-0.135466 0,-0.148166 -0.1016,-0.220133 -0.09948,-0.07408 -0.283632,-0.07408 h -0.311149 z"
     style="font-style:normal;font-variant:normal;font-weight:normal;font-stretch:normal;font-size:2.11666px;font-family:'Avenir Next';-inkscape-font-specification:'Avenir Next';stroke-width:0.264583"
     id="path1535" /><path
     d="m 22.13986,48.636818 h -0.1524 v -1.498595 h 0.1524 z"
     style="font-style:normal;font-variant:normal;font-weight:normal;font-stretch:normal;font-size:2.11666px;font-family:'Avenir Next';-inkscape-font-specification:'Avenir Next';stroke-width:0.264583"
     id="path1537" /><path
     d="m 23.017778,48.636818 h -0.1524 V 47.273689 H 22.36373 v -0.135466 h 1.155696 v 0.135466 h -0.501648 z"
     style="font-style:normal;font-variant:normal;font-weight:normal;font-stretch:normal;font-size:2.11666px;font-family:'Avenir Next';-inkscape-font-specification:'Avenir Next';stroke-width:0.264583"
     id="path1539" /></g><g
   aria-label="ON"
   id="text1112"
   style="font-style:normal;font-weight:normal;font-size:2.11666px;line-height:1.25;font-family:sans-serif;fill:#000000;fill-opacity:1;stroke:none;stroke-width:0.264583"><path
     d="m 9.9714473,33.507512 q 0,0.171449 -0.059266,0.315382 -0.059266,0.143933 -0.1650995,0.249766 -0.1037163,0.103716 -0.2476492,0.162983 -0.1418162,0.05927 -0.3090324,0.05927 -0.1672161,0 -0.311149,-0.05927 -0.1418162,-0.05927 -0.2476493,-0.162983 -0.1037163,-0.105833 -0.1629828,-0.249766 -0.059266,-0.143933 -0.059266,-0.315382 0,-0.17145 0.059266,-0.315383 0.059267,-0.143933 0.1629828,-0.247649 0.1058331,-0.105833 0.2476493,-0.1651 0.1439329,-0.05927 0.311149,-0.05927 0.1672162,0 0.3090324,0.05927 0.1439329,0.05927 0.2476492,0.1651 0.105833,0.103716 0.1650995,0.247649 0.059266,0.143933 0.059266,0.315383 z m -0.1608662,0 q 0,-0.131233 -0.042333,-0.249766 -0.042333,-0.118533 -0.1227663,-0.207433 -0.080433,-0.09102 -0.1968493,-0.143933 -0.1142997,-0.05292 -0.2582326,-0.05292 -0.1439329,0 -0.2603492,0.05292 -0.1142996,0.05292 -0.1947327,0.143933 -0.080433,0.0889 -0.1227663,0.207433 -0.042333,0.118533 -0.042333,0.249766 0,0.131232 0.042333,0.249765 0.042333,0.118533 0.1227663,0.207433 0.080433,0.0889 0.1947327,0.141816 0.1164163,0.05292 0.2603492,0.05292 0.1439329,0 0.2582326,-0.05292 0.1164163,-0.05292 0.1968493,-0.141816 0.080433,-0.0889 0.1227663,-0.207433 0.042333,-0.118533 0.042333,-0.249765 z"
     style="font-style:normal;font-variant:normal;font-weight:normal;font-stretch:normal;font-size:2.11666px;font-family:'Avenir Next';-inkscape-font-specification:'Avenir Next';stroke-width:0.264583"
     id="path1549" /><path
     d="m 11.350683,34.03456 h 0.0042 v -1.276346 h 0.1524 v 1.498595 h -0.1905 l -0.872064,-1.289046 h -0.0042 v 1.289046 h -0.1524 v -1.498595 h 0.1905 z"
     style="font-style:normal;font-variant:normal;font-weight:normal;font-stretch:normal;font-size:2.11666px;font-family:'Avenir Next';-inkscape-font-specification:'Avenir Next';stroke-width:0.264583"
     id="path1551" /></g><g
   aria-label="OFF"
   id="text1116"
   style="font-style:normal;font-weight:normal;font-size:2.11666px;line-height:1.25;font-family:sans-serif;fill:#000000;fill-opacity:1;stroke:none;stroke-width:0.264583"><path
     d="m 9.5338276,47.88752 q 0,0.17145 -0.059266,0.315383 -0.059267,0.143932 -0.1650995,0.249766 -0.1037163,0.103716 -0.2476492,0.162982 -0.1418162,0.05927 -0.3090324,0.05927 -0.1672161,0 -0.311149,-0.05927 Q 8.2998148,48.556385 8.1939818,48.452669 8.0902654,48.346835 8.0309989,48.202903 7.9717324,48.05897 7.9717324,47.88752 q 0,-0.171449 0.059267,-0.315382 0.059266,-0.143933 0.1629829,-0.247649 0.105833,-0.105833 0.2476492,-0.1651 0.1439329,-0.05927 0.311149,-0.05927 0.1672162,0 0.3090324,0.05927 0.1439329,0.05927 0.2476492,0.1651 0.105833,0.103716 0.1650995,0.247649 0.059266,0.143933 0.059266,0.315382 z m -0.1608662,0 q 0,-0.131233 -0.042333,-0.249766 Q 9.288295,47.519221 9.207862,47.430322 9.1274289,47.339305 9.0110126,47.286389 8.8967129,47.233472 8.75278,47.233472 q -0.1439329,0 -0.2603492,0.05292 -0.1142996,0.05292 -0.1947327,0.143933 -0.080433,0.0889 -0.1227663,0.207432 -0.042333,0.118533 -0.042333,0.249766 0,0.131233 0.042333,0.249766 0.042333,0.118533 0.1227663,0.207433 0.080433,0.0889 0.1947327,0.141816 0.1164163,0.05292 0.2603492,0.05292 0.1439329,0 0.2582326,-0.05292 0.1164163,-0.05292 0.1968494,-0.141816 0.080433,-0.0889 0.1227662,-0.207433 0.042333,-0.118533 0.042333,-0.249766 z"
     style="font-style:normal;font-variant:normal;font-weight:normal;font-stretch:normal;font-size:2.11666px;font-family:'Avenir Next';-inkscape-font-specification:'Avenir Next';stroke-width:0.264583"
     id="path1542" /><path
     d="M 10.002899,48.636818 H 9.8504998 v -1.498595 h 0.9038142 v 0.135466 h -0.751415 v 0.520698 h 0.698498 v 0.13335 h -0.698498 z"
     style="font-style:normal;font-variant:normal;font-weight:normal;font-stretch:normal;font-size:2.11666px;font-family:'Avenir Next';-inkscape-font-specification:'Avenir Next';stroke-width:0.264583"
     id="path1544" /><path
     d="m 11.193521,48.636818 h -0.1524 v -1.498595 h 0.903814 v 0.135466 h -0.751414 v 0.520698 h 0.698497 v 0.13335 h -0.698497 z"
     style="font-style:normal;font-variant:normal;font-weight:normal;font-stretch:normal;font-size:2.11666px;font-family:'Avenir Next';-inkscape-font-specification:'Avenir Next';stroke-width:0.264583"
     id="path1546" /></g></svg>
